FiraSans-CondensedLightItalic.ufo
<glyph name="exclam" format="2">
  <advance width="210"/>
  <unicode hex="0021"/>
  <outline>
    <contour>
      <point x="94" y="188" type="line"/>
      <point x="96" y="188" type="line"/>
      <point x="164" y="680" type="line"/>
      <point x="162" y="680" type="line"/>
    </contour>
    <component base="period" xOffset="50"/>
  </outline>
</glyph>
<glyph name="numbersign" format="2">
  <advance width="393"/>
  <unicode hex="0023"/>
  <outline>
    <contour>
      <point x="387" y="662" type="line"/>
      <point x="385" y="662" type="line"/>
      <point x="222" y="0" type="line"/>
      <point x="224" y="0" type="line"/>
    </contour>
    <contour>
      <point x="196" y="662" type="line"/>
      <point x="194" y="662" type="line"/>
      <point x="30" y="0" type="line"/>
      <point x="32" y="0" type="line"/>
    </contour>
    <contour>
      <point x="346" y="216" type="line"/>
      <point x="8" y="216" type="line"/>
      <point x="6" y="214" type="line"/>
      <point x="344" y="214" type="line"/>
    </contour>
    <contour>
      <point x="410" y="468" type="line"/>
      <point x="72" y="468" type="line"/>
      <point x="72" y="466" type="line"/>
      <point x="410" y="466" type="line"/>
    </contour>
  </outline>
</glyph>
<glyph name="dollar" format="2">
  <advance width="434"/>
  <unicode hex="0024"/>
  <outline>
    <contour>
      <point x="167" y="-8" type="line"/>
      <point x="165" y="-8" type="line"/>
      <point x="142" y="-144" type="line"/>
      <point x="144" y="-144" type="line"/>
    </contour>
    <contour>
      <point x="313" y="805" type="line"/>
      <point x="311" y="805" type="line"/>
      <point x="287" y="669" type="line"/>
      <point x="289" y="669" type="line"/>
    </contour>
    <contour>
      <point x="285" y="669" type="curve" smooth="yes"/>
      <point x="172" y="669"/>
      <point x="118" y="578"/>
      <point x="118" y="497" type="curve" smooth="yes"/>
      <point x="118" y="432"/>
      <point x="152" y="395"/>
      <point x="237" y="357" type="curve" smooth="yes"/>
      <point x="316" y="322"/>
      <point x="356" y="275"/>
      <point x="356" y="197" type="curve" smooth="yes"/>
      <point x="356" y="103"/>
      <point x="306" y="-7"/>
      <point x="165" y="-7" type="curve" smooth="yes"/>
      <point x="103" y="-7"/>
      <point x="55" y="23"/>
      <point x="24" y="69" type="curve"/>
      <point x="23" y="67" type="line"/>
      <point x="54" y="21"/>
      <point x="103" y="-9"/>
      <point x="165" y="-9" type="curve" smooth="yes"/>
      <point x="307" y="-9"/>
      <point x="358" y="102"/>
      <point x="358" y="197" type="curve" smooth="yes"/>
      <point x="358" y="276"/>
      <point x="317" y="324"/>
      <point x="238" y="359" type="curve" smooth="yes"/>
      <point x="152" y="397"/>
      <point x="120" y="433"/>
      <point x="120" y="497" type="curve" smooth="yes"/>
      <point x="120" y="577"/>
      <point x="173" y="667"/>
      <point x="285" y="667" type="curve" smooth="yes"/>
      <point x="345" y="667"/>
      <point x="382" y="641"/>
      <point x="412" y="605" type="curve"/>
      <point x="413" y="607" type="line"/>
      <point x="383" y="643"/>
      <point x="346" y="669"/>
    </contour>
  </outline>
</glyph>
<glyph name="percent" format="2">
  <advance width="635"/>
  <unicode hex="0025"/>
  <outline>
    <contour>
      <point x="571" y="690" type="line"/>
      <point x="573" y="690" type="line"/>
      <point x="90" y="-9" type="line"/>
      <point x="88" y="-9" type="line"/>
    </contour>
    <contour>
      <point x="421" y="-9" type="curve" smooth="yes"/>
      <point x="515" y="-9"/>
      <point x="550" y="113"/>
      <point x="550" y="188" type="curve" smooth="yes"/>
      <point x="550" y="257"/>
      <point x="520" y="295"/>
      <point x="469" y="295" type="curve" smooth="yes"/>
      <point x="373" y="295"/>
      <point x="339" y="175"/>
      <point x="339" y="101" type="curve" smooth="yes"/>
      <point x="339" y="34"/>
      <point x="368" y="-9"/>
    </contour>
    <contour>
      <point x="421" y="-7" type="curve" smooth="yes"/>
      <point x="369" y="-7"/>
      <point x="341" y="35"/>
      <point x="341" y="101" type="curve" smooth="yes"/>
      <point x="341" y="174"/>
      <point x="374" y="293"/>
      <point x="469" y="293" type="curve" smooth="yes"/>
      <point x="519" y="293"/>
      <point x="548" y="256"/>
      <point x="548" y="188" type="curve" smooth="yes"/>
      <point x="548" y="114"/>
      <point x="514" y="-7"/>
    </contour>
    <contour>
      <point x="187" y="366" type="curve" smooth="yes"/>
      <point x="281" y="366"/>
      <point x="316" y="488"/>
      <point x="316" y="563" type="curve" smooth="yes"/>
      <point x="316" y="632"/>
      <point x="286" y="670"/>
      <point x="235" y="670" type="curve" smooth="yes"/>
      <point x="139" y="670"/>
      <point x="105" y="550"/>
      <point x="105" y="476" type="curve" smooth="yes"/>
      <point x="105" y="409"/>
      <point x="134" y="366"/>
    </contour>
    <contour>
      <point x="187" y="368" type="curve" smooth="yes"/>
      <point x="135" y="368"/>
      <point x="107" y="410"/>
      <point x="107" y="476" type="curve" smooth="yes"/>
      <point x="107" y="549"/>
      <point x="140" y="668"/>
      <point x="235" y="668" type="curve" smooth="yes"/>
      <point x="285" y="668"/>
      <point x="314" y="631"/>
      <point x="314" y="563" type="curve" smooth="yes"/>
      <point x="314" y="489"/>
      <point x="280" y="368"/>
    </contour>
  </outline>
</glyph>
<glyph name="ampersand" format="2">
  <advance width="603"/>
  <unicode hex="0026"/>
  <outline>
    <contour>
      <point x="329" y="691" type="curve" smooth="yes"/>
      <point x="233" y="691"/>
      <point x="191" y="602"/>
      <point x="191" y="521" type="curve" smooth="yes"/>
      <point x="191" y="469"/>
      <point x="209" y="419"/>
      <point x="250" y="361" type="curve"/>
      <point x="115" y="282"/>
      <point x="95" y="211"/>
      <point x="95" y="133" type="curve" smooth="yes"/>
      <point x="95" y="53"/>
      <point x="142" y="-9"/>
      <point x="229" y="-9" type="curve" smooth="yes"/>
      <point x="306" y="-9"/>
      <point x="367" y="34"/>
      <point x="421" y="114" type="curve"/>
      <point x="500" y="-1" type="line"/>
      <point x="502" y="0" type="line"/>
      <point x="423" y="115" type="line"/>
      <point x="471" y="185"/>
      <point x="493" y="254"/>
      <point x="519" y="334" type="curve"/>
      <point x="517" y="334" type="line"/>
      <point x="492" y="257"/>
      <point x="470" y="186"/>
      <point x="422" y="116" type="curve"/>
      <point x="254" y="361" type="line"/>
      <point x="392" y="445"/>
      <point x="429" y="493"/>
      <point x="429" y="581" type="curve" smooth="yes"/>
      <point x="429" y="646"/>
      <point x="387" y="691"/>
    </contour>
    <contour>
      <point x="252" y="360" type="curve"/>
      <point x="420" y="115" type="line"/>
      <point x="365" y="35"/>
      <point x="305" y="-7"/>
      <point x="229" y="-7" type="curve" smooth="yes"/>
      <point x="143" y="-7"/>
      <point x="97" y="54"/>
      <point x="97" y="133" type="curve" smooth="yes"/>
      <point x="97" y="210"/>
      <point x="115" y="280"/>
    </contour>
    <contour>
      <point x="329" y="689" type="curve" smooth="yes"/>
      <point x="386" y="689"/>
      <point x="427" y="645"/>
      <point x="427" y="581" type="curve" smooth="yes"/>
      <point x="427" y="498"/>
      <point x="398" y="451"/>
      <point x="252" y="362" type="curve"/>
      <point x="210" y="421"/>
      <point x="193" y="470"/>
      <point x="193" y="521" type="curve" smooth="yes"/>
      <point x="193" y="601"/>
      <point x="234" y="689"/>
    </contour>
  </outline>
</glyph>
<glyph name="quotesingle" format="2">
  <advance width="163"/>
  <unicode hex="0027"/>
  <outline>
    <contour>
      <point x="107" y="446" type="line"/>
      <point x="109" y="446" type="line"/>
      <point x="141" y="680" type="line"/>
      <point x="139" y="680" type="line"/>
    </contour>
  </outline>
</glyph>
<glyph name="parenleft" format="2">
  <advance width="270"/>
  <unicode hex="0028"/>
  <outline>
    <contour>
      <point x="282" y="825" type="line"/>
      <point x="140" y="623"/>
      <point x="68" y="466"/>
      <point x="68" y="212" type="curve" smooth="yes"/>
      <point x="68" y="70"/>
      <point x="106" y="-23"/>
      <point x="149" y="-125" type="curve"/>
      <point x="151" y="-124" type="line"/>
      <point x="108" y="-22"/>
      <point x="70" y="71"/>
      <point x="70" y="212" type="curve" smooth="yes"/>
      <point x="70" y="465"/>
      <point x="141" y="621"/>
      <point x="283" y="824" type="curve"/>
    </contour>
  </outline>
</glyph>
<glyph name="parenright" format="2">
  <advance width="268"/>
  <unicode hex="0029"/>
  <outline>
    <contour>
      <point x="146" y="825" type="curve"/>
      <point x="144" y="824" type="line"/>
      <point x="187" y="722"/>
      <point x="224" y="630"/>
      <point x="224" y="487" type="curve" smooth="yes"/>
      <point x="224" y="237"/>
      <point x="152" y="79"/>
      <point x="11" y="-124" type="curve"/>
      <point x="13" y="-125" type="line"/>
      <point x="153" y="77"/>
      <point x="226" y="236"/>
      <point x="226" y="487" type="curve" smooth="yes"/>
      <point x="226" y="631"/>
      <point x="189" y="722"/>
    </contour>
  </outline>
</glyph>
<glyph name="asterisk" format="2">
  <advance width="363"/>
  <unicode hex="002A"/>
  <outline>
    <contour>
      <point x="225" y="566" type="line"/>
      <point x="225" y="564" type="line"/>
      <point x="284" y="435" type="line"/>
      <point x="286" y="436" type="line"/>
      <point x="227" y="565" type="line" smooth="yes"/>
    </contour>
    <contour>
      <point x="249" y="727" type="line"/>
      <point x="247" y="727" type="line"/>
      <point x="224" y="567" type="line"/>
      <point x="225" y="566" type="line"/>
      <point x="226" y="567" type="line"/>
    </contour>
    <contour>
      <point x="358" y="616" type="line"/>
      <point x="226" y="567" type="line"/>
      <point x="225" y="566" type="line"/>
      <point x="227" y="565" type="line"/>
      <point x="358" y="614" type="line"/>
    </contour>
    <contour>
      <point x="106" y="616" type="line"/>
      <point x="105" y="614" type="line"/>
      <point x="223" y="565" type="line"/>
      <point x="225" y="566" type="line"/>
      <point x="224" y="567" type="line"/>
    </contour>
    <contour>
      <point x="225" y="566" type="line"/>
      <point x="223" y="565" type="line"/>
      <point x="128" y="436" type="line"/>
      <point x="130" y="435" type="line"/>
      <point x="225" y="564" type="line"/>
    </contour>
  </outline>
</glyph>
<glyph name="plus" format="2">
  <advance width="406"/>
  <unicode hex="002B"/>
  <outline>
    <contour>
      <point x="236" y="488" type="line"/>
      <point x="234" y="488" type="line"/>
      <point x="212" y="332" type="line"/>
      <point x="86" y="332" type="line"/>
      <point x="86" y="330" type="line"/>
      <point x="212" y="330" type="line"/>
      <point x="189" y="174" type="line"/>
      <point x="191" y="174" type="line"/>
      <point x="214" y="330" type="line"/>
      <point x="339" y="330" type="line"/>
      <point x="339" y="332" type="line"/>
      <point x="214" y="332" type="line"/>
    </contour>
  </outline>
</glyph>
<glyph name="comma" format="2">
  <advance width="110"/>
  <unicode hex="002C"/>
  <outline>
    <contour>
      <point x="19" y="10" type="curve" smooth="yes"/>
      <point x="15" y="10"/>
      <point x="12" y="7"/>
      <point x="12" y="3" type="curve" smooth="yes"/>
      <point x="12" y="0"/>
      <point x="14" y="-3"/>
      <point x="18" y="-4" type="curve"/>
      <point x="-24" y="-109" type="line"/>
      <point x="-21" y="-109" type="line"/>
      <point x="23" y="-6" type="line"/>
      <point x="25" y="-2"/>
      <point x="26" y="0"/>
      <point x="26" y="3" type="curve" smooth="yes"/>
      <point x="26" y="7"/>
      <point x="23" y="10"/>
    </contour>
  </outline>
</glyph>
<glyph name="period" format="2">
  <advance width="110"/>
  <unicode hex="002E"/>
  <outline>
    <contour>
      <point x="19" y="-4" type="curve" smooth="yes"/>
      <point x="23" y="-4"/>
      <point x="26" y="-1"/>
      <point x="26" y="3" type="curve"/>
      <point x="26" y="7"/>
      <point x="23" y="10"/>
      <point x="19" y="10" type="curve" smooth="yes"/>
      <point x="15" y="10"/>
      <point x="12" y="7"/>
      <point x="12" y="3" type="curve" smooth="yes"/>
      <point x="12" y="-1"/>
      <point x="15" y="-4"/>
    </contour>
  </outline>
</glyph>
<glyph name="slash" format="2">
  <advance width="440"/>
  <unicode hex="002F"/>
  <outline>
    <contour>
      <point x="389" y="794" type="line"/>
      <point x="75" y="-91" type="line"/>
      <point x="77" y="-92" type="line"/>
      <point x="391" y="793" type="line"/>
    </contour>
  </outline>
</glyph>
<glyph name="zero" format="2">
  <advance width="463"/>
  <unicode hex="0030"/>
  <outline>
    <contour>
      <point x="301" y="670" type="curve" smooth="yes"/>
      <point x="376" y="670"/>
      <point x="412" y="608"/>
      <point x="412" y="486" type="curve" smooth="yes"/>
      <point x="412" y="267"/>
      <point x="338" y="-9"/>
      <point x="181" y="-9" type="curve" smooth="yes"/>
      <point x="108" y="-9"/>
      <point x="71" y="52"/>
      <point x="71" y="172" type="curve" smooth="yes"/>
      <point x="71" y="387"/>
      <point x="142" y="670"/>
    </contour>
    <contour>
      <point x="301" y="668" type="curve" smooth="yes"/>
      <point x="143" y="668"/>
      <point x="73" y="386"/>
      <point x="73" y="172" type="curve" smooth="yes"/>
      <point x="73" y="53"/>
      <point x="109" y="-7"/>
      <point x="181" y="-7" type="curve" smooth="yes"/>
      <point x="336" y="-6"/>
      <point x="410" y="268"/>
      <point x="410" y="486" type="curve" smooth="yes"/>
      <point x="410" y="608"/>
      <point x="374" y="668"/>
    </contour>
  </outline>
</glyph>
<glyph name="one" format="2">
  <advance width="323"/>
  <unicode hex="0031"/>
  <outline>
    <contour>
      <point x="254" y="660" type="line"/>
      <point x="252" y="660" type="line"/>
      <point x="86" y="543" type="line"/>
      <point x="87" y="541" type="line"/>
      <point x="252" y="658" type="line"/>
      <point x="160" y="0" type="line"/>
      <point x="162" y="0" type="line"/>
    </contour>
  </outline>
</glyph>
<glyph name="two" format="2">
  <advance width="380"/>
  <unicode hex="0032"/>
  <outline>
    <contour>
      <point x="231" y="670" type="curve" smooth="yes"/>
      <point x="171" y="670"/>
      <point x="128" y="639"/>
      <point x="82" y="588" type="curve"/>
      <point x="84" y="587" type="line"/>
      <point x="129" y="638"/>
      <point x="172" y="668"/>
      <point x="231" y="668" type="curve" smooth="yes"/>
      <point x="308" y="668"/>
      <point x="346" y="614"/>
      <point x="347" y="539" type="curve" smooth="yes"/>
      <point x="349" y="430"/>
      <point x="307" y="361"/>
      <point x="0" y="2" type="curve"/>
      <point x="0" y="0" type="line"/>
      <point x="281" y="0" type="line"/>
      <point x="282" y="2" type="line"/>
      <point x="3" y="2" type="line"/>
      <point x="305" y="356"/>
      <point x="351" y="427"/>
      <point x="349" y="539" type="curve" smooth="yes"/>
      <point x="348" y="615"/>
      <point x="309" y="670"/>
    </contour>
  </outline>
</glyph>
<glyph name="three" format="2">
  <advance width="390"/>
  <unicode hex="0033"/>
  <outline>
    <contour>
      <point x="241" y="670" type="curve" smooth="yes"/>
      <point x="194" y="670"/>
      <point x="146" y="649"/>
      <point x="97" y="599" type="curve"/>
      <point x="99" y="598" type="line"/>
      <point x="148" y="648"/>
      <point x="196" y="668"/>
      <point x="241" y="668" type="curve" smooth="yes"/>
      <point x="311" y="668"/>
      <point x="348" y="618"/>
      <point x="348" y="548" type="curve" smooth="yes"/>
      <point x="348" y="454"/>
      <point x="296" y="354"/>
      <point x="187" y="354" type="curve" smooth="yes"/>
      <point x="156" y="354" type="line"/>
      <point x="156" y="352" type="line"/>
      <point x="184" y="352" type="line" smooth="yes"/>
      <point x="259" y="352"/>
      <point x="305" y="306"/>
      <point x="305" y="217" type="curve" smooth="yes"/>
      <point x="305" y="124"/>
      <point x="253" y="-7"/>
      <point x="121" y="-7" type="curve" smooth="yes"/>
      <point x="60" y="-7"/>
      <point x="23" y="16"/>
      <point x="-9" y="73" type="curve"/>
      <point x="-11" y="72" type="line"/>
      <point x="21" y="15"/>
      <point x="59" y="-9"/>
      <point x="121" y="-9" type="curve" smooth="yes"/>
      <point x="254" y="-9"/>
      <point x="307" y="122"/>
      <point x="307" y="217" type="curve" smooth="yes"/>
      <point x="307" y="305"/>
      <point x="264" y="347"/>
      <point x="200" y="353" type="curve"/>
      <point x="299" y="360"/>
      <point x="350" y="452"/>
      <point x="350" y="548" type="curve" smooth="yes"/>
      <point x="350" y="619"/>
      <point x="312" y="670"/>
    </contour>
  </outline>
</glyph>
<glyph name="four" format="2">
  <advance width="406"/>
  <unicode hex="0034"/>
  <outline>
    <contour>
      <point x="273" y="670" type="line"/>
      <point x="37" y="199" type="line"/>
      <point x="36" y="196" type="line"/>
      <point x="363" y="196" type="line"/>
      <point x="364" y="198" type="line"/>
      <point x="39" y="198" type="line"/>
      <point x="275" y="669" type="line"/>
    </contour>
    <contour>
      <point x="317" y="418" type="line"/>
      <point x="315" y="418" type="line"/>
      <point x="284" y="197" type="line"/>
      <point x="256" y="0" type="line"/>
      <point x="258" y="0" type="line"/>
    </contour>
  </outline>
</glyph>
<glyph name="five" format="2">
  <advance width="386"/>
  <unicode hex="0035"/>
  <outline>
    <contour>
      <point x="372" y="660" type="line"/>
      <point x="136" y="660" type="line"/>
      <point x="94" y="360" type="line"/>
      <point x="97" y="360" type="line"/>
      <point x="131" y="389"/>
      <point x="167" y="407"/>
      <point x="213" y="407" type="curve" smooth="yes"/>
      <point x="286" y="407"/>
      <point x="325" y="356"/>
      <point x="325" y="271" type="curve" smooth="yes"/>
      <point x="325" y="162"/>
      <point x="280" y="-7"/>
      <point x="128" y="-7" type="curve" smooth="yes"/>
      <point x="76" y="-7"/>
      <point x="32" y="20"/>
      <point x="10" y="64" type="curve"/>
      <point x="8" y="63" type="line"/>
      <point x="32" y="18"/>
      <point x="74" y="-9"/>
      <point x="128" y="-9" type="curve" smooth="yes"/>
      <point x="281" y="-9"/>
      <point x="327" y="161"/>
      <point x="327" y="271" type="curve" smooth="yes"/>
      <point x="327" y="357"/>
      <point x="287" y="409"/>
      <point x="213" y="409" type="curve" smooth="yes"/>
      <point x="166" y="409"/>
      <point x="129" y="390"/>
      <point x="96" y="362" type="curve"/>
      <point x="138" y="658" type="line"/>
      <point x="372" y="658" type="line"/>
    </contour>
  </outline>
</glyph>
<glyph name="seven" format="2">
  <advance width="357"/>
  <unicode hex="0037"/>
  <outline>
    <contour>
      <point x="374" y="660" type="line"/>
      <point x="95" y="660" type="line"/>
      <point x="95" y="658" type="line"/>
      <point x="372" y="658" type="line"/>
      <point x="46" y="-4" type="line"/>
      <point x="48" y="-5" type="line"/>
      <point x="374" y="658" type="line"/>
    </contour>
  </outline>
</glyph>
<glyph name="eight" format="2">
  <advance width="444"/>
  <unicode hex="0038"/>
  <outline>
    <contour>
      <point x="296" y="670" type="curve" smooth="yes"/>
      <point x="214" y="670"/>
      <point x="135" y="599"/>
      <point x="135" y="492" type="curve" smooth="yes"/>
      <point x="135" y="432"/>
      <point x="157" y="396"/>
      <point x="215" y="365" type="curve"/>
      <point x="217" y="364" type="line"/>
      <point x="248" y="348" type="line" smooth="yes"/>
      <point x="329" y="306"/>
      <point x="367" y="274"/>
      <point x="367" y="195" type="curve" smooth="yes"/>
      <point x="367" y="79"/>
      <point x="288" y="-7"/>
      <point x="181" y="-7" type="curve" smooth="yes"/>
      <point x="97" y="-7"/>
      <point x="51" y="45"/>
      <point x="51" y="128" type="curve" smooth="yes"/>
      <point x="51" y="207"/>
      <point x="73" y="294"/>
      <point x="217" y="364" type="curve"/>
      <point x="215" y="365" type="line"/>
      <point x="77" y="298"/>
      <point x="49" y="213"/>
      <point x="49" y="128" type="curve" smooth="yes"/>
      <point x="49" y="44"/>
      <point x="96" y="-9"/>
      <point x="181" y="-9" type="curve" smooth="yes"/>
      <point x="289" y="-9"/>
      <point x="369" y="78"/>
      <point x="369" y="195" type="curve" smooth="yes"/>
      <point x="369" y="265"/>
      <point x="339" y="301"/>
      <point x="269" y="339" type="curve"/>
      <point x="267" y="340" type="line"/>
      <point x="223" y="363" type="line" smooth="yes"/>
      <point x="165" y="393"/>
      <point x="137" y="425"/>
      <point x="137" y="492" type="curve" smooth="yes"/>
      <point x="137" y="598"/>
      <point x="215" y="668"/>
      <point x="296" y="668" type="curve" smooth="yes"/>
      <point x="360" y="668"/>
      <point x="406" y="625"/>
      <point x="406" y="545" type="curve" smooth="yes"/>
      <point x="406" y="472"/>
      <point x="383" y="411"/>
      <point x="267" y="340" type="curve"/>
      <point x="269" y="339" type="line"/>
      <point x="383" y="410"/>
      <point x="408" y="470"/>
      <point x="408" y="545" type="curve" smooth="yes"/>
      <point x="408" y="626"/>
      <point x="361" y="670"/>
    </contour>
  </outline>
</glyph>
<glyph name="nine" format="2">
  <advance width="422"/>
  <unicode hex="0039"/>
  <outline>
    <contour>
      <point x="373" y="389" type="curve"/>
      <point x="373" y="393" type="line"/>
      <point x="325" y="307"/>
      <point x="261" y="263"/>
      <point x="196" y="263" type="curve" smooth="yes"/>
      <point x="125" y="263"/>
      <point x="83" y="314"/>
      <point x="83" y="408" type="curve" smooth="yes"/>
      <point x="83" y="519"/>
      <point x="142" y="668"/>
      <point x="264" y="668" type="curve" smooth="yes"/>
      <point x="347" y="668"/>
      <point x="380" y="609"/>
      <point x="380" y="509" type="curve" smooth="yes"/>
      <point x="380" y="473"/>
      <point x="379" y="438"/>
      <point x="372" y="391" type="curve"/>
      <point x="372" y="389" type="line"/>
      <point x="336" y="153"/>
      <point x="197" y="41"/>
      <point x="53" y="-9" type="curve"/>
      <point x="54" y="-11" type="line"/>
      <point x="332" y="88"/>
      <point x="382" y="329"/>
      <point x="382" y="509" type="curve" smooth="yes"/>
      <point x="382" y="610"/>
      <point x="348" y="670"/>
      <point x="264" y="670" type="curve" smooth="yes"/>
      <point x="141" y="670"/>
      <point x="81" y="520"/>
      <point x="81" y="408" type="curve" smooth="yes"/>
      <point x="81" y="313"/>
      <point x="124" y="261"/>
      <point x="196" y="261" type="curve" smooth="yes"/>
      <point x="261" y="261"/>
      <point x="324" y="304"/>
    </contour>
  </outline>
</glyph>
<glyph name="less" format="2">
  <advance width="418"/>
  <unicode hex="003C"/>
  <outline>
    <contour>
      <point x="370" y="487" type="line"/>
      <point x="90" y="334" type="line"/>
      <point x="90" y="332" type="line"/>
      <point x="326" y="175" type="line"/>
      <point x="327" y="177" type="line"/>
      <point x="92" y="333" type="line"/>
      <point x="371" y="485" type="line"/>
    </contour>
  </outline>
</glyph>
<glyph name="greater" format="2">
  <advance width="419"/>
  <unicode hex="003E"/>
  <outline>
    <contour>
      <point x="113" y="487" type="line"/>
      <point x="112" y="485" type="line"/>
      <point x="348" y="333" type="line"/>
      <point x="68" y="177" type="line"/>
      <point x="69" y="175" type="line"/>
      <point x="350" y="332" type="line"/>
      <point x="350" y="334" type="line"/>
    </contour>
  </outline>
</glyph>
<glyph name="question" format="2">
  <advance width="448"/>
  <unicode hex="003F"/>
  <outline>
    <contour>
      <point x="254" y="690" type="curve"/>
      <point x="201" y="690"/>
      <point x="162" y="664"/>
      <point x="116" y="612" type="curve"/>
      <point x="118" y="611" type="line"/>
      <point x="164" y="663"/>
      <point x="201" y="688"/>
      <point x="254" y="688" type="curve"/>
      <point x="324" y="688"/>
      <point x="354" y="640"/>
      <point x="354" y="579" type="curve" smooth="yes"/>
      <point x="354" y="400"/>
      <point x="164" y="417"/>
      <point x="162" y="267" type="curve" smooth="yes"/>
      <point x="162" y="248"/>
      <point x="165" y="228"/>
      <point x="169" y="209" type="curve"/>
      <point x="171" y="209" type="line"/>
      <point x="167" y="228"/>
      <point x="164" y="248"/>
      <point x="164" y="267" type="curve" smooth="yes"/>
      <point x="166" y="416"/>
      <point x="356" y="399"/>
      <point x="356" y="579" type="curve" smooth="yes"/>
      <point x="356" y="641"/>
      <point x="325" y="690"/>
    </contour>
    <component base="period" xOffset="136" yOffset="-1"/>
  </outline>
</glyph>
<glyph name="at" format="2">
  <advance width="858"/>
  <unicode hex="0040"/>
  <outline>
    <contour>
      <point x="514" y="691" type="curve" smooth="yes"/>
      <point x="218" y="691"/>
      <point x="85" y="359"/>
      <point x="85" y="149" type="curve" smooth="yes"/>
      <point x="85" y="-64"/>
      <point x="205" y="-192"/>
      <point x="371" y="-192" type="curve" smooth="yes"/>
      <point x="420" y="-192"/>
      <point x="479" y="-180"/>
      <point x="523" y="-161" type="curve"/>
      <point x="523" y="-159" type="line"/>
      <point x="479" y="-178"/>
      <point x="420" y="-190"/>
      <point x="371" y="-190" type="curve" smooth="yes"/>
      <point x="206" y="-190"/>
      <point x="87" y="-63"/>
      <point x="87" y="149" type="curve" smooth="yes"/>
      <point x="87" y="358"/>
      <point x="219" y="689"/>
      <point x="513" y="689" type="curve" smooth="yes"/>
      <point x="692" y="689"/>
      <point x="773" y="556"/>
      <point x="773" y="389" type="curve" smooth="yes"/>
      <point x="773" y="243"/>
      <point x="713" y="16"/>
      <point x="588" y="16" type="curve" smooth="yes"/>
      <point x="518" y="16"/>
      <point x="512" y="92"/>
      <point x="523" y="175" type="curve" smooth="yes"/>
      <point x="560" y="451" type="line"/>
      <point x="541" y="463"/>
      <point x="517" y="474"/>
      <point x="479" y="474" type="curve" smooth="yes"/>
      <point x="332" y="474"/>
      <point x="271" y="292"/>
      <point x="271" y="160" type="curve" smooth="yes"/>
      <point x="271" y="65"/>
      <point x="312" y="16"/>
      <point x="369" y="16" type="curve" smooth="yes"/>
      <point x="432" y="16"/>
      <point x="483" y="68"/>
      <point x="519" y="162" type="curve"/>
      <point x="511" y="89"/>
      <point x="517" y="14"/>
      <point x="588" y="14" type="curve" smooth="yes"/>
      <point x="714" y="14"/>
      <point x="775" y="242"/>
      <point x="775" y="389" type="curve" smooth="yes"/>
      <point x="775" y="557"/>
      <point x="693" y="691"/>
    </contour>
    <contour>
      <point x="369" y="18" type="curve" smooth="yes"/>
      <point x="313" y="18"/>
      <point x="273" y="66"/>
      <point x="273" y="160" type="curve" smooth="yes"/>
      <point x="273" y="291"/>
      <point x="333" y="472"/>
      <point x="479" y="472" type="curve" smooth="yes"/>
      <point x="517" y="472"/>
      <point x="540" y="461"/>
      <point x="558" y="450" type="curve"/>
      <point x="519" y="167" type="line"/>
      <point x="482" y="71"/>
      <point x="433" y="18"/>
    </contour>
  </outline>
</glyph>
<glyph name="A" format="2">
  <advance width="469"/>
  <unicode hex="0041"/>
  <anchor x="198" y="0" name="bottom"/>
  <anchor x="406" y="0" name="ogonek"/>
  <anchor x="294" y="680" name="top"/>
  <anchor x="205" y="680" name="topleft"/>
  <outline>
    <contour>
      <point x="294" y="680" type="line"/>
      <point x="293" y="680" type="line"/>
      <point x="-1" y="0" type="line"/>
      <point x="1" y="0" type="line"/>
      <point x="293" y="676" type="line"/>
      <point x="396" y="0" type="line"/>
      <point x="398" y="0" type="line"/>
    </contour>
    <contour>
      <point x="364" y="215" type="line"/>
      <point x="93" y="215" type="line"/>
      <point x="91" y="213" type="line"/>
      <point x="364" y="213" type="line"/>
    </contour>
  </outline>
</glyph>
<glyph name="B" format="2">
  <advance width="491"/>
  <unicode hex="0042"/>
  <anchor x="311" y="680" name="top"/>
  <outline>
    <contour>
      <point x="289" y="680" type="curve" smooth="yes"/>
      <point x="165" y="680" type="line"/>
      <point x="70" y="0" type="line"/>
      <point x="199" y="0" type="line" smooth="yes"/>
      <point x="365" y="0"/>
      <point x="422" y="109"/>
      <point x="422" y="219" type="curve" smooth="yes"/>
      <point x="422" y="304"/>
      <point x="369" y="355"/>
      <point x="293" y="360" type="curve"/>
      <point x="377" y="369"/>
      <point x="449" y="442"/>
      <point x="449" y="544" type="curve" smooth="yes"/>
      <point x="449" y="630"/>
      <point x="398" y="680"/>
    </contour>
    <contour>
      <point x="290" y="678" type="line" smooth="yes"/>
      <point x="397" y="678"/>
      <point x="447" y="629"/>
      <point x="447" y="544" type="curve" smooth="yes"/>
      <point x="447" y="423"/>
      <point x="351" y="361"/>
      <point x="281" y="361" type="curve" smooth="yes"/>
      <point x="121" y="361" type="line"/>
      <point x="121" y="359" type="line"/>
      <point x="277" y="359" type="line" smooth="yes"/>
      <point x="367" y="359"/>
      <point x="420" y="303"/>
      <point x="420" y="219" type="curve" smooth="yes"/>
      <point x="420" y="110"/>
      <point x="364" y="2"/>
      <point x="200" y="2" type="curve" smooth="yes"/>
      <point x="72" y="2" type="line"/>
      <point x="167" y="678" type="line"/>
    </contour>
  </outline>
</glyph>
<glyph name="C" format="2">
  <advance width="439"/>
  <unicode hex="0043"/>
  <anchor x="235" y="0" name="bottom"/>
  <anchor x="346" y="680" name="top"/>
  <outline>
    <contour>
      <point x="351" y="690" type="curve" smooth="yes"/>
      <point x="147" y="690"/>
      <point x="73" y="416"/>
      <point x="73" y="223" type="curve" smooth="yes"/>
      <point x="73" y="73"/>
      <point x="133" y="-9"/>
      <point x="235" y="-9" type="curve" smooth="yes"/>
      <point x="301" y="-9"/>
      <point x="346" y="23"/>
      <point x="377" y="50" type="curve"/>
      <point x="376" y="52" type="line"/>
      <point x="345" y="25"/>
      <point x="301" y="-7"/>
      <point x="235" y="-7" type="curve" smooth="yes"/>
      <point x="134" y="-7"/>
      <point x="75" y="74"/>
      <point x="75" y="224" type="curve" smooth="yes"/>
      <point x="75" y="414"/>
      <point x="148" y="688"/>
      <point x="351" y="688" type="curve" smooth="yes"/>
      <point x="411" y="688"/>
      <point x="445" y="662"/>
      <point x="470" y="631" type="curve"/>
      <point x="471" y="633" type="line"/>
      <point x="446" y="664"/>
      <point x="412" y="690"/>
    </contour>
  </outline>
</glyph>
<glyph name="D" format="2">
  <advance width="519"/>
  <unicode hex="0044"/>
  <anchor x="200" y="0" name="bottom"/>
  <anchor x="277" y="340" name="center"/>
  <anchor x="320" y="680" name="top"/>
  <outline>
    <contour>
      <point x="272" y="680" type="curve" smooth="yes"/>
      <point x="165" y="680" type="line"/>
      <point x="70" y="0" type="line"/>
      <point x="161" y="0" type="line" smooth="yes"/>
      <point x="389" y="0"/>
      <point x="469" y="244"/>
      <point x="469" y="463" type="curve" smooth="yes"/>
      <point x="469" y="634"/>
      <point x="376" y="680"/>
    </contour>
    <contour>
      <point x="272" y="678" type="line" smooth="yes"/>
      <point x="375" y="678"/>
      <point x="467" y="633"/>
      <point x="467" y="463" type="curve" smooth="yes"/>
      <point x="467" y="245"/>
      <point x="388" y="2"/>
      <point x="161" y="2" type="curve" smooth="yes"/>
      <point x="72" y="2" type="line"/>
      <point x="167" y="678" type="line"/>
    </contour>
  </outline>
</glyph>
<glyph name="E" format="2">
  <advance width="405"/>
  <unicode hex="0045"/>
  <anchor x="196" y="0" name="bottom"/>
  <anchor x="312" y="0" name="ogonek"/>
  <anchor x="292" y="680" name="top"/>
  <anchor x="124" y="680" name="topleft"/>
  <outline>
    <contour>
      <point x="415" y="680" type="line"/>
      <point x="165" y="680" type="line"/>
      <point x="70" y="0" type="line"/>
      <point x="329" y="0" type="line"/>
      <point x="329" y="2" type="line"/>
      <point x="72" y="2" type="line"/>
      <point x="123" y="360" type="line"/>
      <point x="336" y="360" type="line"/>
      <point x="336" y="362" type="line"/>
      <point x="123" y="362" type="line"/>
      <point x="167" y="678" type="line"/>
      <point x="415" y="678" type="line"/>
    </contour>
  </outline>
</glyph>
<glyph name="F" format="2">
  <advance width="384"/>
  <unicode hex="0046"/>
  <anchor x="71" y="0" name="bottom"/>
  <anchor x="288" y="680" name="top"/>
  <outline>
    <contour>
      <point x="411" y="680" type="line"/>
      <point x="165" y="680" type="line"/>
      <point x="70" y="0" type="line"/>
      <point x="72" y="0" type="line"/>
      <point x="120" y="345" type="line"/>
      <point x="332" y="345" type="line"/>
      <point x="332" y="347" type="line"/>
      <point x="120" y="347" type="line"/>
      <point x="167" y="678" type="line"/>
      <point x="411" y="678" type="line"/>
    </contour>
  </outline>
</glyph>
<glyph name="G" format="2">
  <advance width="490"/>
  <unicode hex="0047"/>
  <anchor x="243" y="0" name="bottom"/>
  <anchor x="351" y="680" name="top"/>
  <outline>
    <contour>
      <point x="351" y="690" type="curve" smooth="yes"/>
      <point x="167" y="690"/>
      <point x="73" y="444"/>
      <point x="73" y="227" type="curve" smooth="yes"/>
      <point x="73" y="74"/>
      <point x="136" y="-9"/>
      <point x="246" y="-9" type="curve" smooth="yes"/>
      <point x="304" y="-9"/>
      <point x="357" y="15"/>
      <point x="394" y="39" type="curve"/>
      <point x="437" y="342" type="line"/>
      <point x="312" y="342" type="line"/>
      <point x="312" y="340" type="line"/>
      <point x="435" y="340" type="line"/>
      <point x="392" y="40" type="line"/>
      <point x="356" y="17"/>
      <point x="305" y="-7"/>
      <point x="246" y="-7" type="curve" smooth="yes"/>
      <point x="137" y="-7"/>
      <point x="75" y="75"/>
      <point x="75" y="227" type="curve" smooth="yes"/>
      <point x="75" y="443"/>
      <point x="168" y="688"/>
      <point x="351" y="688" type="curve" smooth="yes"/>
      <point x="405" y="688"/>
      <point x="441" y="669"/>
      <point x="476" y="633" type="curve"/>
      <point x="477" y="635" type="line"/>
      <point x="442" y="671"/>
      <point x="406" y="690"/>
    </contour>
  </outline>
</glyph>
<glyph name="H" format="2">
  <advance width="536"/>
  <unicode hex="0048"/>
  <anchor x="242" y="0" name="bottom"/>
  <anchor x="402" y="0" name="bottomright"/>
  <anchor x="279" y="340" name="center"/>
  <anchor x="326" y="680" name="top"/>
  <anchor x="124" y="680" name="topleft"/>
  <outline>
    <contour>
      <point x="70" y="0" type="line"/>
      <point x="72" y="0" type="line"/>
      <point x="123" y="365" type="line"/>
      <point x="443" y="365" type="line"/>
      <point x="391" y="0" type="line"/>
      <point x="393" y="0" type="line"/>
      <point x="489" y="680" type="line"/>
      <point x="487" y="680" type="line"/>
      <point x="443" y="367" type="line"/>
      <point x="123" y="367" type="line"/>
      <point x="167" y="680" type="line"/>
      <point x="165" y="680" type="line"/>
    </contour>
  </outline>
</glyph>
<glyph name="I" format="2">
  <advance width="214"/>
  <unicode hex="0049"/>
  <anchor x="71" y="0" name="bottom"/>
  <anchor x="80" y="0" name="ogonek"/>
  <anchor x="166" y="680" name="top"/>
  <anchor x="125" y="680" name="topleft"/>
  <outline>
    <contour>
      <point x="167" y="680" type="line"/>
      <point x="165" y="680" type="line"/>
      <point x="70" y="0" type="line"/>
      <point x="72" y="0" type="line"/>
    </contour>
  </outline>
</glyph>
<glyph name="J" format="2">
  <advance width="231"/>
  <unicode hex="004A"/>
  <anchor x="189" y="680" name="top"/>
  <outline>
    <contour>
      <point x="189" y="680" type="line"/>
      <point x="187" y="680" type="line"/>
      <point x="104" y="85" type="line" smooth="yes"/>
      <point x="91" y="-11"/>
      <point x="69" y="-49"/>
      <point x="-18" y="-89" type="curve"/>
      <point x="-17" y="-91" type="line"/>
      <point x="71" y="-50"/>
      <point x="92" y="-12"/>
      <point x="106" y="85" type="curve" smooth="yes"/>
    </contour>
  </outline>
</glyph>
<glyph name="K" format="2">
  <advance width="416"/>
  <unicode hex="004B"/>
  <anchor x="197" y="0" name="bottom"/>
  <anchor x="292" y="680" name="top"/>
  <outline>
    <contour>
      <point x="362" y="0" type="line"/>
      <point x="365" y="0" type="line"/>
      <point x="129" y="366" type="line"/>
      <point x="447" y="680" type="line"/>
      <point x="444" y="680" type="line"/>
      <point x="126" y="366" type="line"/>
    </contour>
    <contour>
      <point x="70" y="1" type="line"/>
      <point x="72" y="1" type="line"/>
      <point x="167" y="680" type="line"/>
      <point x="165" y="680" type="line"/>
    </contour>
  </outline>
</glyph>
<glyph name="L" format="2">
  <advance width="358"/>
  <unicode hex="004C"/>
  <anchor x="189" y="0" name="bottom"/>
  <anchor x="300" y="355" name="center"/>
  <anchor x="166" y="680" name="top"/>
  <anchor x="216" y="680" name="topright"/>
  <outline>
    <contour>
      <point x="167" y="680" type="line"/>
      <point x="165" y="680" type="line"/>
      <point x="70" y="0" type="line"/>
      <point x="308" y="0" type="line"/>
      <point x="308" y="2" type="line"/>
      <point x="72" y="2" type="line"/>
    </contour>
  </outline>
</glyph>
<glyph name="M" format="2">
  <advance width="622"/>
  <unicode hex="004D"/>
  <anchor x="275" y="0" name="bottom"/>
  <anchor x="524" y="0" name="bottomright"/>
  <anchor x="370" y="680" name="top"/>
  <outline>
    <contour>
      <point x="545" y="680" type="line"/>
      <point x="542" y="680" type="line"/>
      <point x="287" y="88" type="line"/>
      <point x="198" y="680" type="line"/>
      <point x="194" y="680" type="line"/>
      <point x="34" y="0" type="line"/>
      <point x="36" y="0" type="line"/>
      <point x="121" y="361" type="line" smooth="yes"/>
      <point x="148" y="474"/>
      <point x="185" y="630"/>
      <point x="196" y="678" type="curve"/>
      <point x="285" y="85" type="line"/>
      <point x="288" y="85" type="line"/>
      <point x="543" y="677" type="line"/>
      <point x="540" y="606"/>
      <point x="534" y="468"/>
      <point x="529" y="354" type="curve" smooth="yes"/>
      <point x="514" y="0" type="line"/>
      <point x="516" y="0" type="line"/>
    </contour>
  </outline>
</glyph>
<glyph name="N" format="2">
  <advance width="536"/>
  <unicode hex="004E"/>
  <anchor x="227" y="0" name="bottom"/>
  <anchor x="330" y="680" name="top"/>
  <outline>
    <contour>
      <point x="489" y="680" type="line"/>
      <point x="487" y="680" type="line"/>
      <point x="411" y="136" type="line"/>
      <point x="405" y="95"/>
      <point x="398" y="45"/>
      <point x="392" y="4" type="curve"/>
      <point x="168" y="680" type="line"/>
      <point x="165" y="680" type="line"/>
      <point x="70" y="0" type="line"/>
      <point x="72" y="0" type="line"/>
      <point x="152" y="572" type="line"/>
      <point x="159" y="622"/>
      <point x="163" y="650"/>
      <point x="167" y="677" type="curve"/>
      <point x="391" y="0" type="line"/>
      <point x="393" y="0" type="line"/>
    </contour>
  </outline>
</glyph>
<glyph name="O" format="2">
  <advance width="570"/>
  <unicode hex="004F"/>
  <anchor x="235" y="0" name="bottom"/>
  <anchor x="354" y="680" name="top"/>
  <anchor x="158" y="679" name="topleft"/>
  <anchor x="499" y="680" name="topright"/>
  <outline>
    <contour>
      <point x="353" y="690" type="curve" smooth="yes"/>
      <point x="150" y="690"/>
      <point x="72" y="402"/>
      <point x="72" y="222" type="curve" smooth="yes"/>
      <point x="72" y="73"/>
      <point x="130" y="-9"/>
      <point x="238" y="-9" type="curve" smooth="yes"/>
      <point x="452" y="-9"/>
      <point x="521" y="281"/>
      <point x="521" y="458" type="curve" smooth="yes"/>
      <point x="521" y="609"/>
      <point x="461" y="690"/>
    </contour>
    <contour>
      <point x="353" y="688" type="curve" smooth="yes"/>
      <point x="460" y="688"/>
      <point x="519" y="608"/>
      <point x="519" y="458" type="curve" smooth="yes"/>
      <point x="519" y="282"/>
      <point x="451" y="-7"/>
      <point x="238" y="-7" type="curve" smooth="yes"/>
      <point x="131" y="-7"/>
      <point x="74" y="74"/>
      <point x="74" y="222" type="curve" smooth="yes"/>
      <point x="74" y="401"/>
      <point x="151" y="688"/>
    </contour>
  </outline>
</glyph>
<glyph name="P" format="2">
  <advance width="455"/>
  <unicode hex="0050"/>
  <anchor x="180" y="0" name="bottom"/>
  <anchor x="299" y="680" name="top"/>
  <anchor x="138" y="680" name="topleft"/>
  <outline>
    <contour>
      <point x="165" y="680" type="line"/>
      <point x="70" y="0" type="line"/>
      <point x="72" y="0" type="line"/>
      <point x="167" y="678" type="line"/>
      <point x="274" y="678" type="line" smooth="yes"/>
      <point x="385" y="678"/>
      <point x="442" y="632"/>
      <point x="442" y="535" type="curve" smooth="yes"/>
      <point x="442" y="426"/>
      <point x="391" y="293"/>
      <point x="209" y="293" type="curve" smooth="yes"/>
      <point x="112" y="293" type="line"/>
      <point x="111" y="291" type="line"/>
      <point x="208" y="291" type="line" smooth="yes"/>
      <point x="392" y="291"/>
      <point x="444" y="425"/>
      <point x="444" y="535" type="curve" smooth="yes"/>
      <point x="444" y="633"/>
      <point x="386" y="680"/>
      <point x="274" y="680" type="curve" smooth="yes"/>
    </contour>
  </outline>
</glyph>
<glyph name="Q" format="2">
  <advance width="571"/>
  <unicode hex="0051"/>
  <anchor x="239" y="0" name="bottom"/>
  <anchor x="358" y="680" name="top"/>
  <outline>
    <contour>
      <point x="238" y="-9" type="curve" smooth="yes"/>
      <point x="247" y="-9"/>
      <point x="255" y="-8"/>
      <point x="259" y="-8" type="curve"/>
      <point x="261" y="-8" type="line"/>
      <point x="455" y="12"/>
      <point x="521" y="281"/>
      <point x="521" y="458" type="curve" smooth="yes"/>
      <point x="521" y="609"/>
      <point x="461" y="690"/>
      <point x="353" y="690" type="curve" smooth="yes"/>
      <point x="150" y="690"/>
      <point x="72" y="402"/>
      <point x="72" y="222" type="curve" smooth="yes"/>
      <point x="72" y="73"/>
      <point x="130" y="-9"/>
    </contour>
    <contour>
      <point x="453" y="-73" type="curve"/>
      <point x="455" y="-72" type="line"/>
      <point x="412" y="-21"/>
      <point x="356" y="-8"/>
      <point x="268" y="-7" type="curve"/>
      <point x="238" y="-9" type="line"/>
      <point x="358" y="-7"/>
      <point x="411" y="-24"/>
    </contour>
    <contour>
      <point x="238" y="-7" type="curve" smooth="yes"/>
      <point x="131" y="-7"/>
      <point x="74" y="74"/>
      <point x="74" y="222" type="curve" smooth="yes"/>
      <point x="74" y="401"/>
      <point x="151" y="688"/>
      <point x="353" y="688" type="curve" smooth="yes"/>
      <point x="460" y="688"/>
      <point x="519" y="608"/>
      <point x="519" y="458" type="curve" smooth="yes"/>
      <point x="519" y="282"/>
      <point x="451" y="-7"/>
    </contour>
  </outline>
</glyph>
<glyph name="R" format="2">
  <advance width="461"/>
  <unicode hex="0052"/>
  <anchor x="218" y="0" name="bottom"/>
  <anchor x="291" y="680" name="top"/>
  <outline>
    <contour>
      <point x="280" y="680" type="curve" smooth="yes"/>
      <point x="165" y="680" type="line"/>
      <point x="70" y="0" type="line"/>
      <point x="72" y="0" type="line"/>
      <point x="167" y="678" type="line"/>
      <point x="280" y="678" type="line" smooth="yes"/>
      <point x="398" y="678"/>
      <point x="438" y="629"/>
      <point x="438" y="540" type="curve" smooth="yes"/>
      <point x="438" y="441"/>
      <point x="384" y="336"/>
      <point x="261" y="336" type="curve" smooth="yes"/>
      <point x="118" y="336" type="line"/>
      <point x="118" y="334" type="line"/>
      <point x="261" y="334" type="line"/>
      <point x="385" y="334"/>
      <point x="440" y="440"/>
      <point x="440" y="540" type="curve" smooth="yes"/>
      <point x="440" y="630"/>
      <point x="399" y="680"/>
    </contour>
    <contour>
      <point x="268" y="335" type="line"/>
      <point x="266" y="335" type="line"/>
      <point x="376" y="0" type="line"/>
      <point x="379" y="0" type="line"/>
    </contour>
  </outline>
</glyph>
<glyph name="S" format="2">
  <advance width="444"/>
  <unicode hex="0053"/>
  <anchor x="184" y="0" name="bottom"/>
  <anchor x="290" y="680" name="top"/>
  <outline>
    <contour>
      <point x="292" y="690" type="curve" smooth="yes"/>
      <point x="181" y="690"/>
      <point x="122" y="600"/>
      <point x="122" y="510" type="curve" smooth="yes"/>
      <point x="122" y="437"/>
      <point x="155" y="406"/>
      <point x="243" y="368" type="curve" smooth="yes"/>
      <point x="325" y="333"/>
      <point x="368" y="296"/>
      <point x="368" y="211" type="curve" smooth="yes"/>
      <point x="368" y="100"/>
      <point x="297" y="-7"/>
      <point x="174" y="-7" type="curve" smooth="yes"/>
      <point x="96" y="-7"/>
      <point x="56" y="24"/>
      <point x="24" y="71" type="curve"/>
      <point x="23" y="69" type="line"/>
      <point x="55" y="22"/>
      <point x="95" y="-9"/>
      <point x="174" y="-9" type="curve" smooth="yes"/>
      <point x="298" y="-9"/>
      <point x="370" y="99"/>
      <point x="370" y="212" type="curve" smooth="yes"/>
      <point x="370" y="297"/>
      <point x="326" y="335"/>
      <point x="244" y="370" type="curve" smooth="yes"/>
      <point x="156" y="408"/>
      <point x="124" y="438"/>
      <point x="124" y="510" type="curve" smooth="yes"/>
      <point x="124" y="599"/>
      <point x="182" y="688"/>
      <point x="292" y="688" type="curve" smooth="yes"/>
      <point x="354" y="688"/>
      <point x="395" y="662"/>
      <point x="424" y="625" type="curve"/>
      <point x="426" y="626" type="line"/>
      <point x="397" y="663"/>
      <point x="355" y="690"/>
    </contour>
  </outline>
</glyph>
<glyph name="T" format="2">
  <advance width="385"/>
  <unicode hex="0054"/>
  <anchor x="156" y="0" name="bottom"/>
  <anchor x="165" y="0" name="bottomright"/>
  <anchor x="204" y="340" name="center"/>
  <anchor x="251" y="680" name="top"/>
  <outline>
    <contour>
      <point x="429" y="680" type="line"/>
      <point x="74" y="680" type="line"/>
      <point x="74" y="678" type="line"/>
      <point x="250" y="678" type="line"/>
      <point x="155" y="0" type="line"/>
      <point x="157" y="0" type="line"/>
      <point x="252" y="678" type="line"/>
      <point x="428" y="678" type="line"/>
    </contour>
  </outline>
</glyph>
<glyph name="U" format="2">
  <advance width="517"/>
  <unicode hex="0055"/>
  <anchor x="221" y="0" name="bottom"/>
  <anchor x="290" y="0" name="ogonek"/>
  <anchor x="317" y="680" name="top"/>
  <anchor x="487" y="680" name="topright"/>
  <outline>
    <contour>
      <point x="479" y="680" type="line"/>
      <point x="477" y="680" type="line"/>
      <point x="408" y="181" type="line" smooth="yes"/>
      <point x="393" y="73"/>
      <point x="338" y="-7"/>
      <point x="221" y="-7" type="curve" smooth="yes"/>
      <point x="104" y="-7"/>
      <point x="73" y="74"/>
      <point x="88" y="181" type="curve" smooth="yes"/>
      <point x="157" y="680" type="line"/>
      <point x="155" y="680" type="line"/>
      <point x="86" y="181" type="line" smooth="yes"/>
      <point x="71" y="73"/>
      <point x="103" y="-9"/>
      <point x="221" y="-9" type="curve" smooth="yes"/>
      <point x="339" y="-9"/>
      <point x="395" y="72"/>
      <point x="410" y="181" type="curve" smooth="yes"/>
    </contour>
  </outline>
</glyph>
<glyph name="V" format="2">
  <advance width="442"/>
  <unicode hex="0056"/>
  <anchor x="186" y="0" name="bottom"/>
  <anchor x="280" y="680" name="top"/>
  <outline>
    <contour>
      <point x="466" y="680" type="line"/>
      <point x="464" y="680" type="line"/>
      <point x="186" y="2" type="line"/>
      <point x="96" y="680" type="line"/>
      <point x="94" y="680" type="line"/>
      <point x="185" y="0" type="line"/>
      <point x="187" y="0" type="line"/>
    </contour>
  </outline>
</glyph>
<glyph name="W" format="2">
  <advance width="643"/>
  <unicode hex="0057"/>
  <anchor x="285" y="0" name="bottom"/>
  <anchor x="381" y="680" name="top"/>
  <outline>
    <contour>
      <point x="662" y="680" type="line"/>
      <point x="660" y="680" type="line"/>
      <point x="435" y="3" type="line"/>
      <point x="382" y="680" type="line"/>
      <point x="379" y="680" type="line"/>
      <point x="136" y="2" type="line"/>
      <point x="101" y="680" type="line"/>
      <point x="99" y="680" type="line"/>
      <point x="135" y="0" type="line"/>
      <point x="137" y="0" type="line"/>
      <point x="380" y="678" type="line"/>
      <point x="434" y="0" type="line"/>
      <point x="436" y="0" type="line"/>
    </contour>
  </outline>
</glyph>
<glyph name="X" format="2">
  <advance width="383"/>
  <unicode hex="0058"/>
  <anchor x="155" y="0" name="bottom"/>
  <anchor x="336" y="0" name="bottomright"/>
  <anchor x="251" y="680" name="top"/>
  <outline>
    <contour>
      <point x="102" y="680" type="line"/>
      <point x="100" y="680" type="line"/>
      <point x="205" y="370" type="line"/>
      <point x="207" y="369" type="line"/>
      <point x="329" y="0" type="line"/>
      <point x="331" y="0" type="line"/>
      <point x="209" y="370" type="line"/>
      <point x="207" y="371" type="line"/>
    </contour>
    <contour>
      <point x="400" y="680" type="line"/>
      <point x="398" y="680" type="line"/>
      <point x="207" y="371" type="line"/>
      <point x="205" y="370" type="line"/>
      <point x="-20" y="0" type="line"/>
      <point x="-18" y="0" type="line"/>
      <point x="207" y="369" type="line"/>
      <point x="209" y="370" type="line"/>
    </contour>
  </outline>
</glyph>
<glyph name="Y" format="2">
  <advance width="392"/>
  <unicode hex="0059"/>
  <anchor x="160" y="0" name="bottom"/>
  <anchor x="255" y="680" name="top"/>
  <anchor x="70" y="680" name="topleft"/>
  <outline>
    <contour>
      <point x="431" y="680" type="line"/>
      <point x="429" y="680" type="line"/>
      <point x="198" y="273" type="line"/>
      <point x="81" y="680" type="line"/>
      <point x="79" y="680" type="line"/>
      <point x="197" y="271" type="line"/>
      <point x="159" y="0" type="line"/>
      <point x="161" y="0" type="line"/>
      <point x="199" y="271" type="line"/>
    </contour>
  </outline>
</glyph>
<glyph name="Z" format="2">
  <advance width="412"/>
  <unicode hex="005A"/>
  <anchor x="160" y="0" name="bottom"/>
  <anchor x="264" y="680" name="top"/>
  <outline>
    <contour>
      <point x="-3" y="0" type="line"/>
      <point x="319" y="0" type="line"/>
      <point x="319" y="2" type="line"/>
      <point x="0" y="2" type="line"/>
      <point x="428" y="678" type="line"/>
      <point x="428" y="680" type="line"/>
      <point x="122" y="680" type="line"/>
      <point x="122" y="678" type="line"/>
      <point x="425" y="678" type="line"/>
      <point x="-3" y="2" type="line"/>
    </contour>
  </outline>
</glyph>
<glyph name="bracketleft" format="2">
  <advance width="256"/>
  <unicode hex="005B"/>
  <outline>
    <contour>
      <point x="256" y="790" type="line"/>
      <point x="166" y="790" type="line"/>
      <point x="40" y="-100" type="line"/>
      <point x="130" y="-100" type="line"/>
      <point x="131" y="-98" type="line"/>
      <point x="42" y="-98" type="line"/>
      <point x="168" y="788" type="line"/>
      <point x="256" y="788" type="line"/>
    </contour>
  </outline>
</glyph>
<glyph name="backslash" format="2">
  <advance width="440"/>
  <unicode hex="005C"/>
  <outline>
    <contour>
      <point x="201" y="794" type="line"/>
      <point x="199" y="793" type="line"/>
      <point x="265" y="-92" type="line"/>
      <point x="267" y="-91" type="line"/>
    </contour>
  </outline>
</glyph>
<glyph name="bracketright" format="2">
  <advance width="255"/>
  <unicode hex="005D"/>
  <outline>
    <contour>
      <point x="240" y="790" type="line"/>
      <point x="149" y="790" type="line"/>
      <point x="149" y="788" type="line"/>
      <point x="238" y="788" type="line"/>
      <point x="113" y="-98" type="line"/>
      <point x="24" y="-98" type="line"/>
      <point x="24" y="-100" type="line"/>
      <point x="115" y="-100" type="line"/>
    </contour>
  </outline>
</glyph>
<glyph name="asciicircum" format="2">
  <advance width="436"/>
  <unicode hex="005E"/>
  <outline>
    <contour>
      <point x="299" y="817" type="line"/>
      <point x="297" y="817" type="line"/>
      <point x="117" y="527" type="line"/>
      <point x="119" y="527" type="line"/>
      <point x="298" y="816" type="line"/>
      <point x="393" y="527" type="line"/>
      <point x="395" y="527" type="line"/>
    </contour>
  </outline>
</glyph>
<glyph name="underscore" format="2">
  <advance width="441"/>
  <unicode hex="005F"/>
  <outline>
    <contour>
      <point x="2" y="-87" type="line"/>
      <point x="342" y="-87" type="line"/>
      <point x="342" y="-85" type="line"/>
      <point x="2" y="-85" type="line"/>
    </contour>
  </outline>
</glyph>
<glyph name="a" format="2">
  <advance width="448"/>
  <unicode hex="0061"/>
  <anchor x="200" y="0" name="bottom"/>
  <anchor x="361" y="-9" name="ogonek"/>
  <anchor x="288" y="517" name="top"/>
  <outline>
    <contour>
      <point x="287" y="527" type="curve" smooth="yes"/>
      <point x="123" y="527"/>
      <point x="56" y="322"/>
      <point x="56" y="164" type="curve" smooth="yes"/>
      <point x="56" y="63"/>
      <point x="96" y="-9"/>
      <point x="174" y="-9" type="curve" smooth="yes"/>
      <point x="230" y="-9"/>
      <point x="282" y="30"/>
      <point x="328" y="115" type="curve"/>
      <point x="321" y="56"/>
      <point x="313" y="12"/>
      <point x="353" y="-9" type="curve"/>
      <point x="354" y="-7" type="line"/>
      <point x="318" y="12"/>
      <point x="321" y="49"/>
      <point x="331" y="121" type="curve" smooth="yes"/>
      <point x="383" y="499" type="line"/>
      <point x="358" y="516"/>
      <point x="328" y="527"/>
    </contour>
    <contour>
      <point x="287" y="525" type="curve" smooth="yes"/>
      <point x="327" y="525"/>
      <point x="356" y="515"/>
      <point x="381" y="498" type="curve"/>
      <point x="329" y="121" type="line"/>
      <point x="282" y="33"/>
      <point x="230" y="-7"/>
      <point x="174" y="-7" type="curve" smooth="yes"/>
      <point x="97" y="-7"/>
      <point x="58" y="64"/>
      <point x="58" y="164" type="curve" smooth="yes"/>
      <point x="58" y="321"/>
      <point x="124" y="525"/>
    </contour>
  </outline>
</glyph>
<glyph name="b" format="2">
  <advance width="465"/>
  <unicode hex="0062"/>
  <anchor x="193" y="0" name="bottom"/>
  <anchor x="324" y="727" name="top"/>
  <outline>
    <contour>
      <point x="295" y="527" type="curve" smooth="yes"/>
      <point x="231" y="527"/>
      <point x="179" y="482"/>
      <point x="127" y="420" type="curve"/>
      <point x="170" y="730" type="line"/>
      <point x="168" y="730" type="line"/>
      <point x="70" y="23" type="line"/>
      <point x="113" y="2"/>
      <point x="147" y="-9"/>
      <point x="191" y="-9" type="curve" smooth="yes"/>
      <point x="346" y="-9"/>
      <point x="410" y="211"/>
      <point x="410" y="362" type="curve" smooth="yes"/>
      <point x="410" y="468"/>
      <point x="373" y="527"/>
    </contour>
    <contour>
      <point x="295" y="525" type="curve" smooth="yes"/>
      <point x="372" y="525"/>
      <point x="408" y="467"/>
      <point x="408" y="362" type="curve" smooth="yes"/>
      <point x="408" y="212"/>
      <point x="345" y="-7"/>
      <point x="191" y="-7" type="curve" smooth="yes"/>
      <point x="148" y="-7"/>
      <point x="115" y="3"/>
      <point x="72" y="24" type="curve"/>
      <point x="127" y="418" type="line"/>
      <point x="183" y="483"/>
      <point x="233" y="525"/>
    </contour>
  </outline>
</glyph>
<glyph name="c" format="2">
  <advance width="386"/>
  <unicode hex="0063"/>
  <anchor x="189" y="-1" name="bottom"/>
  <anchor x="266" y="517" name="top"/>
  <outline>
    <contour>
      <point x="274" y="527" type="curve" smooth="yes"/>
      <point x="138" y="527"/>
      <point x="58" y="360"/>
      <point x="58" y="172" type="curve" smooth="yes"/>
      <point x="58" y="55"/>
      <point x="106" y="-9"/>
      <point x="186" y="-9" type="curve" smooth="yes"/>
      <point x="234" y="-9"/>
      <point x="269" y="13"/>
      <point x="302" y="44" type="curve"/>
      <point x="300" y="45" type="line"/>
      <point x="267" y="14"/>
      <point x="233" y="-7"/>
      <point x="186" y="-7" type="curve" smooth="yes"/>
      <point x="107" y="-7"/>
      <point x="60" y="56"/>
      <point x="60" y="172" type="curve" smooth="yes"/>
      <point x="60" y="359"/>
      <point x="139" y="525"/>
      <point x="274" y="525" type="curve" smooth="yes"/>
      <point x="318" y="525"/>
      <point x="348" y="509"/>
      <point x="373" y="476" type="curve"/>
      <point x="375" y="477" type="line"/>
      <point x="350" y="510"/>
      <point x="319" y="527"/>
    </contour>
  </outline>
</glyph>
<glyph name="d" format="2">
  <advance width="462"/>
  <unicode hex="0064"/>
  <anchor x="189" y="0" name="bottom"/>
  <anchor x="234" y="259" name="center"/>
  <anchor x="308" y="727" name="top"/>
  <anchor x="486" y="727" name="topright"/>
  <outline>
    <contour>
      <point x="424" y="730" type="line"/>
      <point x="382" y="425" type="line"/>
      <point x="369" y="477"/>
      <point x="336" y="527"/>
      <point x="268" y="527" type="curve" smooth="yes"/>
      <point x="119" y="527"/>
      <point x="56" y="309"/>
      <point x="56" y="161" type="curve" smooth="yes"/>
      <point x="56" y="54"/>
      <point x="99" y="-9"/>
      <point x="172" y="-9" type="curve" smooth="yes"/>
      <point x="248" y="-9"/>
      <point x="300" y="62"/>
      <point x="343" y="149" type="curve"/>
      <point x="322" y="0" type="line"/>
      <point x="324" y="0" type="line"/>
      <point x="426" y="730" type="line"/>
    </contour>
    <contour>
      <point x="268" y="525" type="curve" smooth="yes"/>
      <point x="335" y="525"/>
      <point x="367" y="477"/>
      <point x="381" y="421" type="curve"/>
      <point x="343" y="152" type="line"/>
      <point x="299" y="64"/>
      <point x="247" y="-7"/>
      <point x="172" y="-7" type="curve" smooth="yes"/>
      <point x="100" y="-7"/>
      <point x="58" y="55"/>
      <point x="58" y="161" type="curve" smooth="yes"/>
      <point x="58" y="308"/>
      <point x="120" y="525"/>
    </contour>
  </outline>
</glyph>
<glyph name="e" format="2">
  <advance width="422"/>
  <unicode hex="0065"/>
  <anchor x="177" y="0" name="bottom"/>
  <anchor x="267" y="10" name="ogonek"/>
  <anchor x="268" y="517" name="top"/>
  <outline>
    <contour>
      <point x="282" y="527" type="curve"/>
      <point x="116" y="527"/>
      <point x="57" y="309"/>
      <point x="57" y="165" type="curve" smooth="yes"/>
      <point x="57" y="51"/>
      <point x="103" y="-9"/>
      <point x="181" y="-9" type="curve"/>
      <point x="234" y="-9"/>
      <point x="272" y="12"/>
      <point x="317" y="50" type="curve"/>
      <point x="316" y="52" type="line"/>
      <point x="272" y="14"/>
      <point x="234" y="-7"/>
      <point x="181" y="-7" type="curve"/>
      <point x="104" y="-7"/>
      <point x="59" y="53"/>
      <point x="59" y="165" type="curve" smooth="yes"/>
      <point x="59" y="308"/>
      <point x="117" y="525"/>
      <point x="282" y="525" type="curve"/>
      <point x="344" y="525"/>
      <point x="390" y="489"/>
      <point x="390" y="422" type="curve" smooth="yes"/>
      <point x="390" y="287"/>
      <point x="241" y="230"/>
      <point x="61" y="220" type="curve"/>
      <point x="61" y="218" type="line"/>
      <point x="239" y="228"/>
      <point x="392" y="284"/>
      <point x="392" y="422" type="curve" smooth="yes"/>
      <point x="392" y="490"/>
      <point x="345" y="527"/>
    </contour>
  </outline>
</glyph>
<glyph name="g" format="2">
  <advance width="448"/>
  <unicode hex="0067"/>
  <anchor x="149" y="-188" name="bottom"/>
  <anchor x="278" y="517" name="top"/>
  <outline>
    <contour>
      <point x="288" y="527" type="curve" smooth="yes"/>
      <point x="124" y="527"/>
      <point x="57" y="321"/>
      <point x="57" y="173" type="curve" smooth="yes"/>
      <point x="57" y="72"/>
      <point x="97" y="0"/>
      <point x="175" y="0" type="curve" smooth="yes"/>
      <point x="231" y="0"/>
      <point x="282" y="39"/>
      <point x="328" y="124" type="curve"/>
      <point x="308" y="-21" type="line" smooth="yes"/>
      <point x="290" y="-151"/>
      <point x="232" y="-189"/>
      <point x="159" y="-189" type="curve" smooth="yes"/>
      <point x="102" y="-189"/>
      <point x="61" y="-165"/>
      <point x="34" y="-143" type="curve"/>
      <point x="33" y="-145" type="line"/>
      <point x="60" y="-167"/>
      <point x="102" y="-191"/>
      <point x="159" y="-191" type="curve" smooth="yes"/>
      <point x="233" y="-191"/>
      <point x="292" y="-152"/>
      <point x="310" y="-21" type="curve" smooth="yes"/>
      <point x="382" y="499" type="line"/>
      <point x="357" y="516"/>
      <point x="329" y="527"/>
    </contour>
    <contour>
      <point x="288" y="525" type="curve" smooth="yes"/>
      <point x="328" y="525"/>
      <point x="355" y="515"/>
      <point x="380" y="498" type="curve"/>
      <point x="329" y="130" type="line"/>
      <point x="282" y="42"/>
      <point x="231" y="2"/>
      <point x="175" y="2" type="curve" smooth="yes"/>
      <point x="98" y="2"/>
      <point x="59" y="73"/>
      <point x="59" y="173" type="curve" smooth="yes"/>
      <point x="59" y="320"/>
      <point x="125" y="525"/>
    </contour>
  </outline>
</glyph>
<glyph name="h" format="2">
  <advance width="476"/>
  <unicode hex="0068"/>
  <anchor x="204" y="0" name="bottom"/>
  <anchor x="230" y="259" name="center"/>
  <anchor x="275" y="727" name="top"/>
  <outline>
    <contour>
      <point x="302" y="527" type="curve" smooth="yes"/>
      <point x="229" y="527"/>
      <point x="176" y="472"/>
      <point x="116" y="344" type="curve"/>
      <point x="170" y="730" type="line"/>
      <point x="168" y="730" type="line"/>
      <point x="66" y="0" type="line"/>
      <point x="68" y="0" type="line"/>
      <point x="115" y="338" type="line"/>
      <point x="177" y="470"/>
      <point x="230" y="525"/>
      <point x="302" y="525" type="curve" smooth="yes"/>
      <point x="375" y="525"/>
      <point x="404" y="465"/>
      <point x="392" y="378" type="curve" smooth="yes"/>
      <point x="339" y="0" type="line"/>
      <point x="341" y="0" type="line"/>
      <point x="394" y="378" type="line" smooth="yes"/>
      <point x="406" y="466"/>
      <point x="376" y="527"/>
    </contour>
  </outline>
</glyph>
<glyph name="k" format="2">
  <advance width="427"/>
  <unicode hex="006B"/>
  <anchor x="198" y="0" name="bottom"/>
  <anchor x="312" y="727" name="top"/>
  <outline>
    <contour>
      <point x="170" y="730" type="line"/>
      <point x="168" y="730" type="line"/>
      <point x="66" y="0" type="line"/>
      <point x="68" y="0" type="line"/>
      <point x="110" y="302" type="line"/>
      <point x="171" y="446"/>
      <point x="235" y="525"/>
      <point x="311" y="525" type="curve" smooth="yes"/>
      <point x="366" y="525"/>
      <point x="393" y="489"/>
      <point x="393" y="434" type="curve" smooth="yes"/>
      <point x="393" y="338"/>
      <point x="331" y="285"/>
      <point x="228" y="244" type="curve"/>
      <point x="327" y="0" type="line"/>
      <point x="329" y="0" type="line"/>
      <point x="230" y="243" type="line"/>
      <point x="331" y="283"/>
      <point x="395" y="337"/>
      <point x="395" y="434" type="curve" smooth="yes"/>
      <point x="395" y="490"/>
      <point x="367" y="527"/>
      <point x="311" y="527" type="curve" smooth="yes"/>
      <point x="234" y="527"/>
      <point x="171" y="448"/>
      <point x="111" y="308" type="curve"/>
    </contour>
  </outline>
</glyph>
<glyph name="l" format="2">
  <advance width="227"/>
  <unicode hex="006C"/>
  <anchor x="105" y="0" name="bottom"/>
  <anchor x="225" y="375" name="center"/>
  <anchor x="164" y="730" name="top"/>
  <anchor x="205" y="727" name="topright"/>
  <outline>
    <contour>
      <point x="165" y="730" type="line"/>
      <point x="163" y="730" type="line"/>
      <point x="69" y="54" type="line" smooth="yes"/>
      <point x="63" y="15"/>
      <point x="76" y="-9"/>
      <point x="110" y="-9" type="curve" smooth="yes"/>
      <point x="122" y="-9"/>
      <point x="135" y="-6"/>
      <point x="146" y="-1" type="curve"/>
      <point x="145" y="1" type="line"/>
      <point x="135" y="-4"/>
      <point x="122" y="-7"/>
      <point x="110" y="-7" type="curve" smooth="yes"/>
      <point x="77" y="-7"/>
      <point x="65" y="16"/>
      <point x="71" y="54" type="curve" smooth="yes"/>
    </contour>
  </outline>
</glyph>
<glyph name="m" format="2">
  <advance width="692"/>
  <unicode hex="006D"/>
  <anchor x="311" y="0" name="bottom"/>
  <anchor x="380" y="517" name="top"/>
  <outline>
    <contour>
      <point x="287" y="527" type="curve" smooth="yes"/>
      <point x="230" y="527"/>
      <point x="171" y="478"/>
      <point x="115" y="335" type="curve"/>
      <point x="140" y="517" type="line"/>
      <point x="138" y="517" type="line"/>
      <point x="66" y="0" type="line"/>
      <point x="68" y="0" type="line"/>
      <point x="114" y="329" type="line"/>
      <point x="172" y="476"/>
      <point x="231" y="525"/>
      <point x="286" y="525" type="curve" smooth="yes"/>
      <point x="352" y="525"/>
      <point x="375" y="466"/>
      <point x="361" y="368" type="curve" smooth="yes"/>
      <point x="310" y="0" type="line"/>
      <point x="312" y="0" type="line"/>
      <point x="363" y="368" type="line" smooth="yes"/>
      <point x="377" y="467"/>
      <point x="353" y="527"/>
    </contour>
    <contour>
      <point x="531" y="527" type="curve" smooth="yes"/>
      <point x="474" y="527"/>
      <point x="415" y="480"/>
      <point x="358" y="337" type="curve"/>
      <point x="357" y="331" type="line"/>
      <point x="416" y="478"/>
      <point x="475" y="525"/>
      <point x="531" y="525" type="curve" smooth="yes"/>
      <point x="597" y="525"/>
      <point x="620" y="466"/>
      <point x="606" y="368" type="curve" smooth="yes"/>
      <point x="555" y="0" type="line"/>
      <point x="557" y="0" type="line"/>
      <point x="608" y="368" type="line" smooth="yes"/>
      <point x="622" y="467"/>
      <point x="598" y="527"/>
    </contour>
  </outline>
</glyph>
<glyph name="n" format="2">
  <advance width="476"/>
  <unicode hex="006E"/>
  <anchor x="204" y="0" name="bottom"/>
  <anchor x="277" y="517" name="top"/>
  <anchor x="130" y="517" name="topleft"/>
  <outline>
    <contour>
      <point x="302" y="527" type="curve" smooth="yes"/>
      <point x="229" y="527"/>
      <point x="176" y="473"/>
      <point x="116" y="345" type="curve"/>
      <point x="140" y="517" type="line"/>
      <point x="138" y="517" type="line"/>
      <point x="66" y="0" type="line"/>
      <point x="68" y="0" type="line"/>
      <point x="115" y="339" type="line"/>
      <point x="177" y="471"/>
      <point x="230" y="525"/>
      <point x="302" y="525" type="curve" smooth="yes"/>
      <point x="375" y="525"/>
      <point x="404" y="465"/>
      <point x="392" y="378" type="curve" smooth="yes"/>
      <point x="339" y="0" type="line"/>
      <point x="341" y="0" type="line"/>
      <point x="394" y="378" type="line" smooth="yes"/>
      <point x="406" y="466"/>
      <point x="376" y="527"/>
    </contour>
  </outline>
</glyph>
<glyph name="o" format="2">
  <advance width="459"/>
  <unicode hex="006F"/>
  <anchor x="183" y="0" name="bottom"/>
  <anchor x="275" y="517" name="top"/>
  <anchor x="399" y="517" name="topright"/>
  <outline>
    <contour>
      <point x="185" y="-9" type="curve" smooth="yes"/>
      <point x="345" y="-9"/>
      <point x="402" y="208"/>
      <point x="402" y="350" type="curve" smooth="yes"/>
      <point x="402" y="462"/>
      <point x="357" y="527"/>
      <point x="275" y="527" type="curve" smooth="yes"/>
      <point x="117" y="527"/>
      <point x="57" y="316"/>
      <point x="57" y="170" type="curve" smooth="yes"/>
      <point x="57" y="58"/>
      <point x="102" y="-9"/>
    </contour>
    <contour>
      <point x="185" y="-7" type="curve" smooth="yes"/>
      <point x="103" y="-7"/>
      <point x="59" y="59"/>
      <point x="59" y="170" type="curve" smooth="yes"/>
      <point x="59" y="315"/>
      <point x="118" y="525"/>
      <point x="275" y="525" type="curve" smooth="yes"/>
      <point x="356" y="525"/>
      <point x="400" y="461"/>
      <point x="400" y="350" type="curve" smooth="yes"/>
      <point x="400" y="209"/>
      <point x="344" y="-7"/>
    </contour>
  </outline>
</glyph>
<glyph name="p" format="2">
  <advance width="465"/>
  <unicode hex="0070"/>
  <anchor x="165" y="-188" name="bottom"/>
  <anchor x="286" y="517" name="top"/>
  <outline>
    <contour>
      <point x="40" y="-189" type="line"/>
      <point x="42" y="-189" type="line"/>
      <point x="72" y="26" type="line"/>
      <point x="103" y="6"/>
      <point x="145" y="-9"/>
      <point x="191" y="-9" type="curve" smooth="yes"/>
      <point x="346" y="-9"/>
      <point x="410" y="210"/>
      <point x="410" y="362" type="curve" smooth="yes"/>
      <point x="410" y="468"/>
      <point x="373" y="527"/>
      <point x="295" y="527" type="curve" smooth="yes"/>
      <point x="231" y="527"/>
      <point x="178" y="482"/>
      <point x="126" y="420" type="curve"/>
      <point x="140" y="517" type="line"/>
      <point x="138" y="517" type="line"/>
    </contour>
    <contour>
      <point x="191" y="-7" type="curve" smooth="yes"/>
      <point x="146" y="-7"/>
      <point x="104" y="7"/>
      <point x="72" y="28" type="curve"/>
      <point x="126" y="418" type="line"/>
      <point x="182" y="483"/>
      <point x="233" y="525"/>
      <point x="295" y="525" type="curve" smooth="yes"/>
      <point x="372" y="525"/>
      <point x="408" y="467"/>
      <point x="408" y="362" type="curve" smooth="yes"/>
      <point x="408" y="212"/>
      <point x="346" y="-7"/>
    </contour>
  </outline>
</glyph>
<glyph name="q" format="2">
  <advance width="455"/>
  <unicode hex="0071"/>
  <anchor x="152" y="-188" name="bottom"/>
  <anchor x="286" y="517" name="top"/>
  <outline>
    <contour>
      <point x="292" y="527" type="curve" smooth="yes"/>
      <point x="123" y="527"/>
      <point x="56" y="322"/>
      <point x="56" y="164" type="curve" smooth="yes"/>
      <point x="56" y="63"/>
      <point x="96" y="-9"/>
      <point x="177" y="-9" type="curve" smooth="yes"/>
      <point x="236" y="-9"/>
      <point x="286" y="30"/>
      <point x="333" y="115" type="curve"/>
      <point x="291" y="-189" type="line"/>
      <point x="293" y="-189" type="line"/>
      <point x="388" y="499" type="line"/>
      <point x="363" y="516"/>
      <point x="334" y="527"/>
    </contour>
    <contour>
      <point x="292" y="525" type="curve" smooth="yes"/>
      <point x="333" y="525"/>
      <point x="361" y="515"/>
      <point x="386" y="498" type="curve"/>
      <point x="334" y="121" type="line"/>
      <point x="286" y="33"/>
      <point x="236" y="-7"/>
      <point x="177" y="-7" type="curve" smooth="yes"/>
      <point x="97" y="-7"/>
      <point x="58" y="64"/>
      <point x="58" y="164" type="curve" smooth="yes"/>
      <point x="58" y="321"/>
      <point x="124" y="525"/>
    </contour>
  </outline>
</glyph>
<glyph name="r" format="2">
  <advance width="295"/>
  <unicode hex="0072"/>
  <anchor x="67" y="0" name="bottom"/>
  <anchor x="214" y="517" name="top"/>
  <outline>
    <contour>
      <point x="275" y="527" type="curve" smooth="yes"/>
      <point x="207" y="527"/>
      <point x="160" y="486"/>
      <point x="118" y="358" type="curve"/>
      <point x="140" y="517" type="line"/>
      <point x="138" y="517" type="line"/>
      <point x="66" y="0" type="line"/>
      <point x="68" y="0" type="line"/>
      <point x="117" y="349" type="line"/>
      <point x="161" y="485"/>
      <point x="208" y="525"/>
      <point x="275" y="525" type="curve" smooth="yes"/>
      <point x="289" y="525"/>
      <point x="302" y="522"/>
      <point x="311" y="518" type="curve"/>
      <point x="312" y="520" type="line"/>
      <point x="302" y="524"/>
      <point x="290" y="527"/>
    </contour>
  </outline>
</glyph>
<glyph name="s" format="2">
  <advance width="376"/>
  <unicode hex="0073"/>
  <anchor x="153" y="0" name="bottom"/>
  <anchor x="232" y="517" name="top"/>
  <outline>
    <contour>
      <point x="227" y="527" type="curve" smooth="yes"/>
      <point x="155" y="527"/>
      <point x="88" y="476"/>
      <point x="88" y="395" type="curve" smooth="yes"/>
      <point x="88" y="340"/>
      <point x="113" y="309"/>
      <point x="193" y="275" type="curve" smooth="yes"/>
      <point x="269" y="243"/>
      <point x="296" y="211"/>
      <point x="296" y="147" type="curve" smooth="yes"/>
      <point x="296" y="50"/>
      <point x="226" y="-7"/>
      <point x="146" y="-7" type="curve" smooth="yes"/>
      <point x="80" y="-7"/>
      <point x="42" y="21"/>
      <point x="13" y="59" type="curve"/>
      <point x="12" y="57" type="line"/>
      <point x="41" y="19"/>
      <point x="80" y="-9"/>
      <point x="146" y="-9" type="curve" smooth="yes"/>
      <point x="227" y="-9"/>
      <point x="298" y="49"/>
      <point x="298" y="147" type="curve" smooth="yes"/>
      <point x="298" y="212"/>
      <point x="270" y="245"/>
      <point x="194" y="277" type="curve" smooth="yes"/>
      <point x="115" y="310"/>
      <point x="90" y="341"/>
      <point x="90" y="395" type="curve" smooth="yes"/>
      <point x="90" y="475"/>
      <point x="156" y="525"/>
      <point x="227" y="525" type="curve" smooth="yes"/>
      <point x="277" y="525"/>
      <point x="312" y="508"/>
      <point x="343" y="474" type="curve"/>
      <point x="344" y="475" type="line"/>
      <point x="314" y="509"/>
      <point x="278" y="527"/>
    </contour>
  </outline>
</glyph>
<glyph name="t" format="2">
  <advance width="265"/>
  <unicode hex="0074"/>
  <anchor x="148" y="0" name="bottom"/>
  <anchor x="120" y="259" name="center"/>
  <anchor x="152" y="649" name="top"/>
  <anchor x="212" y="730" name="topright"/>
  <outline>
    <contour>
      <point x="153" y="651" type="line"/>
      <point x="151" y="651" type="line"/>
      <point x="132" y="516" type="line"/>
      <point x="75" y="103" type="line" smooth="yes"/>
      <point x="64" y="30"/>
      <point x="92" y="-9"/>
      <point x="146" y="-9" type="curve" smooth="yes"/>
      <point x="177" y="-9"/>
      <point x="202" y="4"/>
      <point x="225" y="19" type="curve"/>
      <point x="224" y="21" type="line"/>
      <point x="201" y="5"/>
      <point x="176" y="-7"/>
      <point x="146" y="-7" type="curve" smooth="yes"/>
      <point x="93" y="-7"/>
      <point x="67" y="31"/>
      <point x="77" y="103" type="curve" smooth="yes"/>
    </contour>
    <contour>
      <point x="254" y="517" type="line"/>
      <point x="61" y="517" type="line"/>
      <point x="61" y="515" type="line"/>
      <point x="254" y="515" type="line"/>
    </contour>
  </outline>
</glyph>
<glyph name="u" format="2">
  <advance width="472"/>
  <unicode hex="0075"/>
  <anchor x="200" y="0" name="bottom"/>
  <anchor x="341" y="0" name="bottomright"/>
  <anchor x="342" y="0" name="ogonek"/>
  <anchor x="271" y="517" name="top"/>
  <anchor x="414" y="517" name="topright"/>
  <outline>
    <contour>
      <point x="178" y="-9" type="curve" smooth="yes"/>
      <point x="249" y="-9"/>
      <point x="311" y="54"/>
      <point x="355" y="159" type="curve"/>
      <point x="332" y="0" type="line"/>
      <point x="334" y="0" type="line"/>
      <point x="406" y="517" type="line"/>
      <point x="404" y="517" type="line"/>
      <point x="355" y="163" type="line"/>
      <point x="311" y="57"/>
      <point x="249" y="-7"/>
      <point x="178" y="-7" type="curve" smooth="yes"/>
      <point x="107" y="-7"/>
      <point x="72" y="48"/>
      <point x="85" y="140" type="curve" smooth="yes"/>
      <point x="137" y="517" type="line"/>
      <point x="135" y="517" type="line"/>
      <point x="83" y="140" type="line" smooth="yes"/>
      <point x="70" y="46"/>
      <point x="106" y="-9"/>
    </contour>
  </outline>
</glyph>
<glyph name="v" format="2">
  <advance width="364"/>
  <unicode hex="0076"/>
  <anchor x="150" y="0" name="bottom"/>
  <anchor x="218" y="517" name="top"/>
  <outline>
    <contour>
      <point x="372" y="517" type="line"/>
      <point x="370" y="517" type="line"/>
      <point x="150" y="2" type="line"/>
      <point x="66" y="517" type="line"/>
      <point x="64" y="517" type="line"/>
      <point x="149" y="0" type="line"/>
      <point x="151" y="0" type="line"/>
    </contour>
  </outline>
</glyph>
<glyph name="w" format="2">
  <advance width="556"/>
  <unicode hex="0077"/>
  <anchor x="242" y="0" name="bottom"/>
  <anchor x="314" y="517" name="top"/>
  <outline>
    <contour>
      <point x="557" y="517" type="line"/>
      <point x="555" y="517" type="line"/>
      <point x="368" y="2" type="line"/>
      <point x="315" y="517" type="line"/>
      <point x="313" y="517" type="line"/>
      <point x="116" y="2" type="line"/>
      <point x="73" y="517" type="line"/>
      <point x="71" y="517" type="line"/>
      <point x="114" y="0" type="line"/>
      <point x="117" y="0" type="line"/>
      <point x="314" y="515" type="line"/>
      <point x="367" y="0" type="line"/>
      <point x="369" y="0" type="line"/>
    </contour>
  </outline>
</glyph>
<glyph name="x" format="2">
  <advance width="357"/>
  <unicode hex="0078"/>
  <anchor x="137" y="0" name="bottom"/>
  <anchor x="302" y="0" name="bottomright"/>
  <anchor x="210" y="517" name="top"/>
  <outline>
    <contour>
      <point x="85" y="517" type="line"/>
      <point x="83" y="517" type="line"/>
      <point x="179" y="278" type="line"/>
      <point x="180" y="277" type="line"/>
      <point x="294" y="0" type="line"/>
      <point x="296" y="0" type="line"/>
      <point x="181" y="278" type="line"/>
      <point x="180" y="279" type="line"/>
    </contour>
    <contour>
      <point x="346" y="517" type="line"/>
      <point x="344" y="517" type="line"/>
      <point x="180" y="279" type="line"/>
      <point x="179" y="278" type="line"/>
      <point x="-11" y="0" type="line"/>
      <point x="-9" y="0" type="line"/>
      <point x="180" y="277" type="line"/>
      <point x="181" y="278" type="line"/>
    </contour>
  </outline>
</glyph>
<glyph name="y" format="2">
  <advance width="363"/>
  <unicode hex="0079"/>
  <anchor x="120" y="-188" name="bottom"/>
  <anchor x="217" y="517" name="top"/>
  <outline>
    <contour>
      <point x="371" y="517" type="line"/>
      <point x="369" y="517" type="line"/>
      <point x="151" y="1" type="line"/>
      <point x="66" y="517" type="line"/>
      <point x="64" y="517" type="line"/>
      <point x="149" y="0" type="line"/>
      <point x="151" y="0" type="line"/>
      <point x="103" y="-112"/>
      <point x="78" y="-157"/>
      <point x="-10" y="-187" type="curve"/>
      <point x="-10" y="-189" type="line"/>
      <point x="79" y="-159"/>
      <point x="105" y="-112"/>
      <point x="152" y="0" type="curve" smooth="yes"/>
    </contour>
  </outline>
</glyph>
<glyph name="z" format="2">
  <advance width="337"/>
  <unicode hex="007A"/>
  <anchor x="126" y="0" name="bottom"/>
  <anchor x="213" y="517" name="top"/>
  <outline>
    <contour>
      <point x="340" y="517" type="line"/>
      <point x="90" y="517" type="line"/>
      <point x="90" y="515" type="line"/>
      <point x="337" y="515" type="line"/>
      <point x="-7" y="2" type="line"/>
      <point x="-7" y="0" type="line"/>
      <point x="259" y="0" type="line"/>
      <point x="259" y="2" type="line"/>
      <point x="-4" y="2" type="line"/>
      <point x="340" y="515" type="line"/>
    </contour>
  </outline>
</glyph>
<glyph name="braceleft" format="2">
  <advance width="268"/>
  <unicode hex="007B"/>
  <outline>
    <contour>
      <point x="267" y="808" type="line"/>
      <point x="226" y="808"/>
      <point x="197" y="781"/>
      <point x="188" y="714" type="curve" smooth="yes"/>
      <point x="148" y="427" type="line" smooth="yes"/>
      <point x="141" y="375"/>
      <point x="111" y="350"/>
      <point x="75" y="350" type="curve"/>
      <point x="75" y="348" type="line"/>
      <point x="112" y="348"/>
      <point x="132" y="322"/>
      <point x="125" y="271" type="curve" smooth="yes"/>
      <point x="85" y="-16" type="line" smooth="yes"/>
      <point x="76" y="-83"/>
      <point x="97" y="-110"/>
      <point x="138" y="-110" type="curve"/>
      <point x="138" y="-108" type="line"/>
      <point x="98" y="-108"/>
      <point x="78" y="-82"/>
      <point x="87" y="-16" type="curve" smooth="yes"/>
      <point x="127" y="271" type="line" smooth="yes"/>
      <point x="134" y="323"/>
      <point x="112" y="349"/>
      <point x="77" y="349" type="curve"/>
      <point x="112" y="349"/>
      <point x="143" y="374"/>
      <point x="150" y="427" type="curve" smooth="yes"/>
      <point x="190" y="713" type="line" smooth="yes"/>
      <point x="199" y="780"/>
      <point x="227" y="806"/>
      <point x="267" y="806" type="curve"/>
    </contour>
  </outline>
</glyph>
<glyph name="bar" format="2">
  <advance width="357"/>
  <unicode hex="007C"/>
  <outline>
    <contour>
      <point x="255" y="800" type="line"/>
      <point x="253" y="800" type="line"/>
      <point x="128" y="-97" type="line"/>
      <point x="130" y="-97" type="line"/>
    </contour>
  </outline>
</glyph>
<glyph name="braceright" format="2">
  <advance width="267"/>
  <unicode hex="007D"/>
  <outline>
    <contour>
      <point x="26" y="-110" type="line"/>
      <point x="67" y="-110"/>
      <point x="96" y="-83"/>
      <point x="105" y="-16" type="curve" smooth="yes"/>
      <point x="145" y="271" type="line" smooth="yes"/>
      <point x="152" y="323"/>
      <point x="182" y="348"/>
      <point x="218" y="348" type="curve"/>
      <point x="218" y="350" type="line"/>
      <point x="181" y="350"/>
      <point x="161" y="376"/>
      <point x="168" y="427" type="curve" smooth="yes"/>
      <point x="208" y="714" type="line" smooth="yes"/>
      <point x="217" y="781"/>
      <point x="196" y="808"/>
      <point x="155" y="808" type="curve"/>
      <point x="155" y="806" type="line"/>
      <point x="195" y="806"/>
      <point x="215" y="780"/>
      <point x="206" y="714" type="curve" smooth="yes"/>
      <point x="166" y="427" type="line" smooth="yes"/>
      <point x="159" y="375"/>
      <point x="181" y="349"/>
      <point x="216" y="349" type="curve"/>
      <point x="181" y="349"/>
      <point x="150" y="324"/>
      <point x="143" y="271" type="curve" smooth="yes"/>
      <point x="103" y="-15" type="line" smooth="yes"/>
      <point x="94" y="-82"/>
      <point x="66" y="-108"/>
      <point x="26" y="-108" type="curve"/>
    </contour>
  </outline>
</glyph>
<glyph name="asciitilde" format="2">
  <advance width="387"/>
  <unicode hex="007E"/>
  <outline>
    <contour>
      <point x="256" y="291" type="curve" smooth="yes"/>
      <point x="284" y="291"/>
      <point x="305" y="313"/>
      <point x="321" y="336" type="curve"/>
      <point x="319" y="337" type="line"/>
      <point x="303" y="314"/>
      <point x="283" y="293"/>
      <point x="256" y="293" type="curve" smooth="yes"/>
      <point x="218" y="293"/>
      <point x="189" y="348"/>
      <point x="148" y="348" type="curve" smooth="yes"/>
      <point x="120" y="348"/>
      <point x="98" y="325"/>
      <point x="83" y="303" type="curve"/>
      <point x="85" y="302" type="line"/>
      <point x="100" y="325"/>
      <point x="121" y="346"/>
      <point x="148" y="346" type="curve" smooth="yes"/>
      <point x="188" y="346"/>
      <point x="217" y="291"/>
    </contour>
  </outline>
</glyph>
<glyph name="exclamdown" format="2">
  <advance width="210"/>
  <unicode hex="00A1"/>
  <outline>
    <contour>
      <point x="106" y="254" type="line"/>
      <point x="104" y="254" type="line"/>
      <point x="41" y="-188" type="line"/>
      <point x="43" y="-188" type="line"/>
    </contour>
    <component base="period" xOffset="110" yOffset="428"/>
  </outline>
</glyph>
<glyph name="cent" format="2">
  <advance width="386"/>
  <unicode hex="00A2"/>
  <anchor x="189" y="-1" name="bottom"/>
  <anchor x="266" y="517" name="top"/>
  <outline>
    <contour>
      <point x="292" y="672" type="line"/>
      <point x="290" y="672" type="line"/>
      <point x="270" y="526" type="line"/>
      <point x="272" y="526" type="line"/>
    </contour>
    <contour>
      <point x="191" y="-8" type="line"/>
      <point x="172" y="-144" type="line"/>
      <point x="174" y="-144" type="line"/>
      <point x="193" y="-8" type="line"/>
    </contour>
    <component base="c"/>
  </outline>
</glyph>
<glyph name="sterling" format="2">
  <advance width="404"/>
  <unicode hex="00A3"/>
  <outline>
    <contour>
      <point x="112" y="118" type="curve" smooth="yes"/>
      <point x="166" y="506" type="line" smooth="yes"/>
      <point x="179" y="597"/>
      <point x="226" y="668"/>
      <point x="306" y="668" type="curve" smooth="yes"/>
      <point x="353" y="668"/>
      <point x="384" y="646"/>
      <point x="404" y="608" type="curve"/>
      <point x="406" y="609" type="line"/>
      <point x="385" y="648"/>
      <point x="354" y="670"/>
      <point x="306" y="670" type="curve" smooth="yes"/>
      <point x="225" y="670"/>
      <point x="177" y="598"/>
      <point x="164" y="506" type="curve" smooth="yes"/>
      <point x="110" y="118" type="line" smooth="yes"/>
      <point x="101" y="51"/>
      <point x="76" y="23"/>
      <point x="28" y="2" type="curve"/>
      <point x="28" y="0" type="line"/>
      <point x="318" y="0" type="line"/>
      <point x="318" y="2" type="line"/>
      <point x="33" y="2" type="line"/>
      <point x="79" y="23"/>
      <point x="103" y="52"/>
    </contour>
    <contour>
      <point x="96" y="354" type="line"/>
      <point x="316" y="354" type="line"/>
      <point x="316" y="356" type="line"/>
      <point x="96" y="356" type="line"/>
    </contour>
  </outline>
</glyph>
<glyph name="currency" format="2">
  <advance width="460"/>
  <unicode hex="00A4"/>
  <outline>
    <contour>
      <point x="241" y="510" type="curve"/>
      <point x="164" y="510"/>
      <point x="106" y="446"/>
      <point x="106" y="339" type="curve"/>
      <point x="106" y="231"/>
      <point x="166" y="170"/>
      <point x="241" y="170" type="curve"/>
      <point x="317" y="170"/>
      <point x="377" y="231"/>
      <point x="377" y="339" type="curve"/>
      <point x="377" y="446"/>
      <point x="320" y="510"/>
    </contour>
    <contour>
      <point x="149" y="212" type="line"/>
      <point x="86" y="136" type="line"/>
      <point x="88" y="135" type="line"/>
      <point x="150" y="210" type="line"/>
    </contour>
    <contour>
      <point x="334" y="212" type="line"/>
      <point x="333" y="210" type="line"/>
      <point x="396" y="135" type="line"/>
      <point x="398" y="136" type="line"/>
    </contour>
    <contour>
      <point x="88" y="541" type="line"/>
      <point x="86" y="540" type="line"/>
      <point x="146" y="465" type="line"/>
      <point x="148" y="466" type="line"/>
    </contour>
    <contour>
      <point x="396" y="541" type="line"/>
      <point x="336" y="465" type="line"/>
      <point x="338" y="464" type="line"/>
      <point x="398" y="540" type="line"/>
    </contour>
    <contour>
      <point x="241" y="508" type="curve"/>
      <point x="320" y="508"/>
      <point x="375" y="444"/>
      <point x="375" y="339" type="curve" smooth="yes"/>
      <point x="375" y="230"/>
      <point x="315" y="172"/>
      <point x="241" y="172" type="curve"/>
      <point x="168" y="172"/>
      <point x="108" y="230"/>
      <point x="108" y="339" type="curve" smooth="yes"/>
      <point x="108" y="445"/>
      <point x="164" y="508"/>
    </contour>
  </outline>
</glyph>
<glyph name="yen" format="2">
  <advance width="384"/>
  <unicode hex="00A5"/>
  <outline>
    <contour>
      <point x="420" y="660" type="line"/>
      <point x="417" y="660" type="line"/>
      <point x="200" y="321" type="line"/>
      <point x="79" y="660" type="line"/>
      <point x="76" y="660" type="line"/>
      <point x="199" y="319" type="line"/>
      <point x="155" y="0" type="line"/>
      <point x="157" y="0" type="line"/>
      <point x="201" y="319" type="line"/>
    </contour>
    <contour>
      <point x="290" y="186" type="line"/>
      <point x="75" y="186" type="line"/>
      <point x="75" y="184" type="line"/>
      <point x="290" y="184" type="line"/>
    </contour>
    <contour>
      <point x="309" y="319" type="line"/>
      <point x="94" y="319" type="line"/>
      <point x="94" y="317" type="line"/>
      <point x="309" y="317" type="line"/>
    </contour>
  </outline>
</glyph>
<glyph name="brokenbar" format="2">
  <advance width="358"/>
  <unicode hex="00A6"/>
  <outline>
    <contour>
      <point x="256" y="800" type="line"/>
      <point x="254" y="800" type="line"/>
      <point x="203" y="443" type="line"/>
      <point x="205" y="443" type="line"/>
    </contour>
    <contour>
      <point x="180" y="262" type="line"/>
      <point x="178" y="262" type="line"/>
      <point x="129" y="-97" type="line"/>
      <point x="131" y="-97" type="line"/>
    </contour>
  </outline>
</glyph>
<glyph name="section" format="2">
  <advance width="467"/>
  <unicode hex="00A7"/>
  <outline>
    <contour>
      <point x="307" y="670" type="curve"/>
      <point x="223" y="670"/>
      <point x="176" y="608"/>
      <point x="176" y="543" type="curve" smooth="yes"/>
      <point x="176" y="489"/>
      <point x="202" y="459"/>
      <point x="276" y="424" type="curve" smooth="yes"/>
      <point x="342" y="393"/>
      <point x="366" y="358"/>
      <point x="366" y="306" type="curve" smooth="yes"/>
      <point x="366" y="244"/>
      <point x="344" y="203"/>
      <point x="271" y="155" type="curve"/>
      <point x="272" y="153" type="line"/>
      <point x="345" y="201"/>
      <point x="368" y="243"/>
      <point x="368" y="306" type="curve" smooth="yes"/>
      <point x="368" y="359"/>
      <point x="343" y="395"/>
      <point x="277" y="426" type="curve" smooth="yes"/>
      <point x="203" y="461"/>
      <point x="178" y="490"/>
      <point x="178" y="543" type="curve" smooth="yes"/>
      <point x="178" y="607"/>
      <point x="224" y="668"/>
      <point x="307" y="668" type="curve"/>
      <point x="352" y="668"/>
      <point x="385" y="653"/>
      <point x="417" y="628" type="curve"/>
      <point x="418" y="630" type="line"/>
      <point x="385" y="655"/>
      <point x="352" y="670"/>
    </contour>
    <contour>
      <point x="221" y="457" type="line"/>
      <point x="137" y="401"/>
      <point x="115" y="356"/>
      <point x="115" y="303" type="curve" smooth="yes"/>
      <point x="115" y="247"/>
      <point x="145" y="217"/>
      <point x="213" y="186" type="curve" smooth="yes"/>
      <point x="284" y="154"/>
      <point x="308" y="126"/>
      <point x="308" y="73" type="curve" smooth="yes"/>
      <point x="308" y="10"/>
      <point x="262" y="-57"/>
      <point x="177" y="-57" type="curve"/>
      <point x="130" y="-57"/>
      <point x="92" y="-41"/>
      <point x="63" y="-16" type="curve"/>
      <point x="62" y="-18" type="line"/>
      <point x="92" y="-43"/>
      <point x="130" y="-59"/>
      <point x="177" y="-59" type="curve"/>
      <point x="263" y="-59"/>
      <point x="310" y="9"/>
      <point x="310" y="73" type="curve" smooth="yes"/>
      <point x="310" y="127"/>
      <point x="284" y="156"/>
      <point x="214" y="188" type="curve" smooth="yes"/>
      <point x="147" y="218"/>
      <point x="117" y="248"/>
      <point x="117" y="303" type="curve" smooth="yes"/>
      <point x="117" y="355"/>
      <point x="139" y="400"/>
      <point x="222" y="455" type="curve"/>
    </contour>
  </outline>
</glyph>
<glyph name="copyright" format="2">
  <advance width="657"/>
  <unicode hex="00A9"/>
  <outline>
    <contour>
      <point x="353" y="711" type="curve"/>
      <point x="226" y="711"/>
      <point x="134" y="611"/>
      <point x="134" y="435" type="curve" smooth="yes"/>
      <point x="134" y="256"/>
      <point x="226" y="159"/>
      <point x="353" y="159" type="curve"/>
      <point x="480" y="159"/>
      <point x="572" y="259"/>
      <point x="572" y="435" type="curve" smooth="yes"/>
      <point x="572" y="614"/>
      <point x="480" y="711"/>
    </contour>
    <contour>
      <point x="351" y="602" type="curve"/>
      <point x="305" y="602"/>
      <point x="248" y="558"/>
      <point x="248" y="437" type="curve" smooth="yes"/>
      <point x="248" y="323"/>
      <point x="294" y="271"/>
      <point x="351" y="271" type="curve"/>
      <point x="387" y="271"/>
      <point x="409" y="285"/>
      <point x="424" y="301" type="curve"/>
      <point x="423" y="303" type="line"/>
      <point x="407" y="287"/>
      <point x="387" y="273"/>
      <point x="351" y="273" type="curve"/>
      <point x="295" y="273"/>
      <point x="250" y="324"/>
      <point x="250" y="437" type="curve" smooth="yes"/>
      <point x="250" y="557"/>
      <point x="306" y="600"/>
      <point x="351" y="600" type="curve"/>
      <point x="382" y="600"/>
      <point x="400" y="588"/>
      <point x="414" y="574" type="curve"/>
      <point x="415" y="576" type="line"/>
      <point x="401" y="590"/>
      <point x="382" y="602"/>
    </contour>
    <contour>
      <point x="353" y="709" type="curve"/>
      <point x="479" y="709"/>
      <point x="570" y="613"/>
      <point x="570" y="435" type="curve" smooth="yes"/>
      <point x="570" y="260"/>
      <point x="479" y="161"/>
      <point x="353" y="161" type="curve"/>
      <point x="227" y="161"/>
      <point x="136" y="257"/>
      <point x="136" y="435" type="curve" smooth="yes"/>
      <point x="136" y="610"/>
      <point x="227" y="709"/>
    </contour>
  </outline>
</glyph>
<glyph name="ordfeminine" format="2">
  <advance width="500"/>
  <unicode hex="00AA"/>
  <outline>
    <contour>
      <point x="267" y="680" type="curve" smooth="yes"/>
      <point x="236" y="680"/>
      <point x="204" y="672"/>
      <point x="167" y="655" type="curve"/>
      <point x="167" y="653" type="line"/>
      <point x="205" y="670"/>
      <point x="237" y="678"/>
      <point x="267" y="678" type="curve" smooth="yes"/>
      <point x="325" y="678"/>
      <point x="344" y="647"/>
      <point x="344" y="597" type="curve" smooth="yes"/>
      <point x="344" y="585"/>
      <point x="343" y="575"/>
      <point x="342" y="564" type="curve"/>
      <point x="335" y="513" type="line"/>
      <point x="254" y="513" type="line" smooth="yes"/>
      <point x="164" y="513"/>
      <point x="104" y="460"/>
      <point x="104" y="370" type="curve" smooth="yes"/>
      <point x="104" y="316"/>
      <point x="133" y="278"/>
      <point x="189" y="278" type="curve" smooth="yes"/>
      <point x="244" y="278"/>
      <point x="283" y="308"/>
      <point x="314" y="363" type="curve"/>
      <point x="309" y="328"/>
      <point x="302" y="290"/>
      <point x="338" y="278" type="curve"/>
      <point x="339" y="280" type="line"/>
      <point x="304" y="292"/>
      <point x="311" y="326"/>
      <point x="316" y="368" type="curve" smooth="yes"/>
      <point x="343" y="564" type="line"/>
      <point x="345" y="575"/>
      <point x="346" y="586"/>
      <point x="346" y="597" type="curve" smooth="yes"/>
      <point x="346" y="649"/>
      <point x="324" y="680"/>
    </contour>
    <contour>
      <point x="335" y="511" type="line"/>
      <point x="315" y="368" type="line"/>
      <point x="283" y="312"/>
      <point x="247" y="280"/>
      <point x="189" y="280" type="curve" smooth="yes"/>
      <point x="134" y="280"/>
      <point x="106" y="317"/>
      <point x="106" y="370" type="curve" smooth="yes"/>
      <point x="106" y="459"/>
      <point x="165" y="511"/>
      <point x="254" y="511" type="curve" smooth="yes"/>
    </contour>
    <component base="minus" xOffset="-39" yOffset="-330"/>
  </outline>
</glyph>
<glyph name="logicalnot" format="2">
  <advance width="414"/>
  <unicode hex="00AC"/>
  <outline>
    <contour>
      <point x="347" y="322" type="line"/>
      <point x="86" y="322" type="line"/>
      <point x="85" y="320" type="line"/>
      <point x="344" y="320" type="line"/>
      <point x="329" y="215" type="line"/>
      <point x="331" y="215" type="line"/>
    </contour>
  </outline>
</glyph>
<glyph name="registered" format="2">
  <advance width="518"/>
  <unicode hex="00AE"/>
  <outline>
    <contour>
      <point x="293" y="709" type="curve"/>
      <point x="181" y="709"/>
      <point x="123" y="625"/>
      <point x="123" y="499" type="curve"/>
      <point x="123" y="373"/>
      <point x="189" y="294"/>
      <point x="293" y="294" type="curve"/>
      <point x="405" y="294"/>
      <point x="463" y="378"/>
      <point x="463" y="504" type="curve"/>
      <point x="463" y="630"/>
      <point x="397" y="709"/>
    </contour>
    <contour>
      <point x="305" y="496" type="line"/>
      <point x="303" y="496" type="line"/>
      <point x="364" y="371" type="line"/>
      <point x="366" y="371" type="line"/>
    </contour>
    <contour>
      <point x="293" y="707" type="curve"/>
      <point x="396" y="707"/>
      <point x="461" y="629"/>
      <point x="461" y="504" type="curve"/>
      <point x="461" y="379"/>
      <point x="404" y="296"/>
      <point x="293" y="296" type="curve"/>
      <point x="190" y="296"/>
      <point x="125" y="374"/>
      <point x="125" y="499" type="curve"/>
      <point x="125" y="624"/>
      <point x="182" y="707"/>
    </contour>
    <contour>
      <point x="284" y="639" type="curve"/>
      <point x="238" y="639" type="line"/>
      <point x="238" y="372" type="line"/>
      <point x="240" y="372" type="line"/>
      <point x="240" y="637" type="line"/>
      <point x="284" y="637" type="line"/>
      <point x="330" y="637"/>
      <point x="357" y="614"/>
      <point x="357" y="566" type="curve"/>
      <point x="357" y="519"/>
      <point x="331" y="497"/>
      <point x="299" y="497" type="curve"/>
      <point x="239" y="497" type="line"/>
      <point x="239" y="495" type="line"/>
      <point x="303" y="495" type="line"/>
      <point x="304" y="495" type="line"/>
      <point x="332" y="497"/>
      <point x="359" y="518"/>
      <point x="359" y="566" type="curve"/>
      <point x="359" y="616"/>
      <point x="330" y="639"/>
    </contour>
  </outline>
</glyph>
<glyph name="degree" format="2">
  <advance width="428"/>
  <unicode hex="00B0"/>
  <outline>
    <contour>
      <point x="208" y="421" type="curve"/>
      <point x="285" y="421"/>
      <point x="335" y="501"/>
      <point x="335" y="584" type="curve" smooth="yes"/>
      <point x="335" y="652"/>
      <point x="302" y="690"/>
      <point x="250" y="690" type="curve"/>
      <point x="173" y="690"/>
      <point x="123" y="610"/>
      <point x="123" y="527" type="curve" smooth="yes"/>
      <point x="123" y="460"/>
      <point x="156" y="421"/>
    </contour>
    <contour>
      <point x="208" y="423" type="curve"/>
      <point x="157" y="423"/>
      <point x="125" y="461"/>
      <point x="125" y="527" type="curve" smooth="yes"/>
      <point x="125" y="609"/>
      <point x="174" y="688"/>
      <point x="250" y="688" type="curve"/>
      <point x="301" y="688"/>
      <point x="333" y="651"/>
      <point x="333" y="584" type="curve" smooth="yes"/>
      <point x="333" y="502"/>
      <point x="284" y="423"/>
    </contour>
  </outline>
</glyph>
<glyph name="paragraph" format="2">
  <advance width="560"/>
  <unicode hex="00B6"/>
  <outline>
    <contour>
      <point x="470" y="680" type="line"/>
      <point x="346" y="680" type="line"/>
      <point x="345" y="678" type="line"/>
      <point x="223" y="-190" type="line"/>
      <point x="225" y="-190" type="line"/>
      <point x="347" y="678" type="line"/>
      <point x="468" y="678" type="line"/>
      <point x="346" y="-190" type="line"/>
      <point x="348" y="-190" type="line"/>
    </contour>
    <contour>
      <point x="346" y="680" type="line"/>
      <point x="221" y="680"/>
      <point x="143" y="582"/>
      <point x="143" y="462" type="curve" smooth="yes"/>
      <point x="143" y="378"/>
      <point x="187" y="312"/>
      <point x="295" y="312" type="curve"/>
    </contour>
  </outline>
</glyph>
<glyph name="ordmasculine" format="2">
  <advance width="423"/>
  <unicode hex="00BA"/>
  <outline>
    <contour>
      <point x="274" y="680" type="curve" smooth="yes"/>
      <point x="150" y="680"/>
      <point x="105" y="520"/>
      <point x="105" y="419" type="curve" smooth="yes"/>
      <point x="105" y="329"/>
      <point x="143" y="278"/>
      <point x="210" y="278" type="curve" smooth="yes"/>
      <point x="337" y="278"/>
      <point x="379" y="447"/>
      <point x="379" y="540" type="curve" smooth="yes"/>
      <point x="379" y="629"/>
      <point x="340" y="680"/>
    </contour>
    <contour>
      <point x="274" y="678" type="curve" smooth="yes"/>
      <point x="339" y="678"/>
      <point x="377" y="628"/>
      <point x="377" y="540" type="curve" smooth="yes"/>
      <point x="377" y="448"/>
      <point x="336" y="280"/>
      <point x="210" y="280" type="curve" smooth="yes"/>
      <point x="144" y="280"/>
      <point x="107" y="331"/>
      <point x="107" y="419" type="curve" smooth="yes"/>
      <point x="107" y="519"/>
      <point x="151" y="678"/>
    </contour>
    <component base="minus" xOffset="-37" yOffset="-330"/>
  </outline>
</glyph>
<glyph name="questiondown" format="2">
  <advance width="448"/>
  <unicode hex="00BF"/>
  <outline>
    <contour>
      <point x="122" y="-194" type="curve"/>
      <point x="175" y="-194"/>
      <point x="214" y="-168"/>
      <point x="260" y="-116" type="curve"/>
      <point x="258" y="-115" type="line"/>
      <point x="212" y="-167"/>
      <point x="175" y="-192"/>
      <point x="122" y="-192" type="curve"/>
      <point x="52" y="-192"/>
      <point x="22" y="-144"/>
      <point x="22" y="-83" type="curve" smooth="yes"/>
      <point x="22" y="96"/>
      <point x="212" y="79"/>
      <point x="214" y="229" type="curve" smooth="yes"/>
      <point x="214" y="248"/>
      <point x="211" y="268"/>
      <point x="207" y="287" type="curve"/>
      <point x="205" y="287" type="line"/>
      <point x="209" y="268"/>
      <point x="212" y="248"/>
      <point x="212" y="229" type="curve" smooth="yes"/>
      <point x="210" y="80"/>
      <point x="20" y="97"/>
      <point x="20" y="-83" type="curve" smooth="yes"/>
      <point x="20" y="-145"/>
      <point x="51" y="-194"/>
    </contour>
    <component base="period" xScale="-1" yScale="-1" xOffset="240" yOffset="497"/>
  </outline>
</glyph>
<glyph name="AE" format="2">
  <advance width="621"/>
  <unicode hex="00C6"/>
  <anchor x="278" y="0" name="bottom"/>
  <anchor x="441" y="680" name="top"/>
  <outline>
    <contour>
      <point x="595" y="680" type="line"/>
      <point x="299" y="680" type="line"/>
      <point x="-12" y="0" type="line"/>
      <point x="-10" y="0" type="line"/>
      <point x="300" y="678" type="line"/>
      <point x="351" y="0" type="line"/>
      <point x="545" y="0" type="line"/>
      <point x="545" y="2" type="line"/>
      <point x="353" y="2" type="line"/>
      <point x="302" y="678" type="line"/>
      <point x="595" y="678" type="line"/>
    </contour>
    <contour>
      <point x="336" y="207" type="line"/>
      <point x="84" y="207" type="line"/>
      <point x="83" y="205" type="line"/>
      <point x="336" y="205" type="line"/>
    </contour>
    <contour>
      <point x="543" y="362" type="line"/>
      <point x="325" y="362" type="line"/>
      <point x="325" y="360" type="line"/>
      <point x="543" y="360" type="line"/>
    </contour>
  </outline>
</glyph>
<glyph name="Eth" format="2">
  <advance width="522"/>
  <unicode hex="00D0"/>
  <anchor x="203" y="0" name="bottom"/>
  <anchor x="280" y="340" name="center"/>
  <anchor x="323" y="680" name="top"/>
  <outline>
    <contour>
      <point x="286" y="354" type="line"/>
      <point x="123" y="354" type="line"/>
      <point x="46" y="354" type="line"/>
      <point x="46" y="352" type="line"/>
      <point x="286" y="352" type="line"/>
    </contour>
    <component base="D" xOffset="3"/>
  </outline>
</glyph>
<glyph name="multiply" format="2">
  <advance width="403"/>
  <unicode hex="00D7"/>
  <outline>
    <contour>
      <point x="335" y="444" type="line"/>
      <point x="209" y="309" type="line"/>
      <point x="119" y="444" type="line"/>
      <point x="117" y="443" type="line"/>
      <point x="207" y="308" type="line"/>
      <point x="80" y="172" type="line"/>
      <point x="82" y="171" type="line"/>
      <point x="209" y="307" type="line"/>
      <point x="298" y="171" type="line"/>
      <point x="300" y="172" type="line"/>
      <point x="211" y="308" type="line"/>
      <point x="337" y="443" type="line"/>
    </contour>
  </outline>
</glyph>
<glyph name="Oslash" format="2">
  <advance width="570"/>
  <unicode hex="00D8"/>
  <anchor x="252" y="0" name="bottom"/>
  <anchor x="348" y="680" name="top"/>
  <outline>
    <contour>
      <point x="469" y="787" type="line"/>
      <point x="426" y="674" type="line"/>
      <point x="425" y="673" type="line"/>
      <point x="171" y="6" type="line"/>
      <point x="171" y="5" type="line"/>
      <point x="130" y="-102" type="line"/>
      <point x="132" y="-103" type="line"/>
      <point x="173" y="4" type="line"/>
      <point x="173" y="5" type="line"/>
      <point x="427" y="672" type="line"/>
      <point x="428" y="673" type="line"/>
      <point x="471" y="786" type="line"/>
    </contour>
    <contour>
      <point x="353" y="690" type="curve" smooth="yes"/>
      <point x="150" y="690"/>
      <point x="72" y="402"/>
      <point x="72" y="222" type="curve" smooth="yes"/>
      <point x="72" y="73"/>
      <point x="130" y="-9"/>
      <point x="238" y="-9" type="curve" smooth="yes"/>
      <point x="452" y="-9"/>
      <point x="521" y="281"/>
      <point x="521" y="458" type="curve" smooth="yes"/>
      <point x="521" y="609"/>
      <point x="461" y="690"/>
    </contour>
    <contour>
      <point x="353" y="688" type="curve" smooth="yes"/>
      <point x="460" y="688"/>
      <point x="519" y="608"/>
      <point x="519" y="458" type="curve" smooth="yes"/>
      <point x="519" y="282"/>
      <point x="451" y="-7"/>
      <point x="238" y="-7" type="curve" smooth="yes"/>
      <point x="131" y="-7"/>
      <point x="74" y="74"/>
      <point x="74" y="222" type="curve" smooth="yes"/>
      <point x="74" y="401"/>
      <point x="151" y="688"/>
    </contour>
  </outline>
</glyph>
<glyph name="Thorn" format="2">
  <advance width="446"/>
  <unicode hex="00DE"/>
  <anchor x="190" y="0" name="bottom"/>
  <anchor x="285" y="680" name="top"/>
  <outline>
    <contour>
      <point x="246" y="550" type="curve" smooth="yes"/>
      <point x="148" y="550" type="line"/>
      <point x="148" y="548" type="line"/>
      <point x="246" y="548" type="line" smooth="yes"/>
      <point x="357" y="548"/>
      <point x="414" y="502"/>
      <point x="414" y="401" type="curve" smooth="yes"/>
      <point x="414" y="289"/>
      <point x="363" y="156"/>
      <point x="181" y="156" type="curve" smooth="yes"/>
      <point x="93" y="156" type="line"/>
      <point x="93" y="154" type="line"/>
      <point x="180" y="154" type="line" smooth="yes"/>
      <point x="364" y="154"/>
      <point x="416" y="288"/>
      <point x="416" y="401" type="curve" smooth="yes"/>
      <point x="416" y="503"/>
      <point x="358" y="550"/>
    </contour>
    <contour>
      <point x="167" y="680" type="line"/>
      <point x="165" y="680" type="line"/>
      <point x="70" y="0" type="line"/>
      <point x="72" y="0" type="line"/>
    </contour>
  </outline>
</glyph>
<glyph name="germandbls" format="2">
  <advance width="472"/>
  <unicode hex="00DF"/>
  <outline>
    <contour>
      <point x="-37" y="-191" type="line"/>
      <point x="25" y="-154"/>
      <point x="54" y="-120"/>
      <point x="69" y="-9" type="curve" smooth="yes"/>
      <point x="146" y="541" type="line" smooth="yes"/>
      <point x="163" y="662"/>
      <point x="228" y="731"/>
      <point x="307" y="731" type="curve" smooth="yes"/>
      <point x="368" y="731"/>
      <point x="402" y="689"/>
      <point x="402" y="634" type="curve" smooth="yes"/>
      <point x="402" y="500"/>
      <point x="275" y="497"/>
      <point x="275" y="409" type="curve" smooth="yes"/>
      <point x="275" y="330"/>
      <point x="399" y="308"/>
      <point x="399" y="156" type="curve" smooth="yes"/>
      <point x="399" y="92"/>
      <point x="365" y="-8"/>
      <point x="267" y="-8" type="curve" smooth="yes"/>
      <point x="231" y="-8"/>
      <point x="198" y="6"/>
      <point x="181" y="20" type="curve"/>
      <point x="181" y="18" type="line"/>
      <point x="197" y="5"/>
      <point x="230" y="-10"/>
      <point x="267" y="-10" type="curve" smooth="yes"/>
      <point x="366" y="-10"/>
      <point x="401" y="91"/>
      <point x="401" y="157" type="curve" smooth="yes"/>
      <point x="401" y="309"/>
      <point x="277" y="331"/>
      <point x="277" y="409" type="curve" smooth="yes"/>
      <point x="277" y="496"/>
      <point x="404" y="499"/>
      <point x="404" y="634" type="curve" smooth="yes"/>
      <point x="404" y="691"/>
      <point x="369" y="733"/>
      <point x="308" y="733" type="curve" smooth="yes"/>
      <point x="227" y="733"/>
      <point x="161" y="663"/>
      <point x="144" y="541" type="curve" smooth="yes"/>
      <point x="67" y="-9" type="line" smooth="yes"/>
      <point x="52" y="-119"/>
      <point x="24" y="-153"/>
      <point x="-38" y="-190" type="curve"/>
    </contour>
  </outline>
</glyph>
<glyph name="ae" format="2">
  <advance width="675"/>
  <unicode hex="00E6"/>
  <anchor x="295" y="0" name="bottom"/>
  <anchor x="371" y="517" name="top"/>
  <outline>
    <contour>
      <point x="240" y="527" type="curve" smooth="yes"/>
      <point x="199" y="527"/>
      <point x="162" y="516"/>
      <point x="114" y="493" type="curve"/>
      <point x="114" y="491" type="line"/>
      <point x="163" y="514"/>
      <point x="199" y="525"/>
      <point x="240" y="525" type="curve" smooth="yes"/>
      <point x="300" y="525"/>
      <point x="349" y="482"/>
      <point x="351" y="380" type="curve"/>
      <point x="340" y="353"/>
      <point x="331" y="324"/>
      <point x="325" y="295" type="curve"/>
      <point x="221" y="295" type="line" smooth="yes"/>
      <point x="86" y="295"/>
      <point x="33" y="211"/>
      <point x="33" y="114" type="curve" smooth="yes"/>
      <point x="33" y="43"/>
      <point x="68" y="-9"/>
      <point x="137" y="-9" type="curve" smooth="yes"/>
      <point x="208" y="-9"/>
      <point x="256" y="31"/>
      <point x="313" y="121" type="curve"/>
      <point x="325" y="30"/>
      <point x="367" y="-9"/>
      <point x="434" y="-9" type="curve" smooth="yes"/>
      <point x="487" y="-9"/>
      <point x="525" y="12"/>
      <point x="570" y="50" type="curve"/>
      <point x="569" y="52" type="line"/>
      <point x="525" y="14"/>
      <point x="487" y="-7"/>
      <point x="434" y="-7" type="curve" smooth="yes"/>
      <point x="327" y="-7"/>
      <point x="305" y="97"/>
      <point x="315" y="218" type="curve"/>
      <point x="492" y="228"/>
      <point x="645" y="284"/>
      <point x="645" y="422" type="curve" smooth="yes"/>
      <point x="645" y="490"/>
      <point x="598" y="527"/>
      <point x="535" y="527" type="curve" smooth="yes"/>
      <point x="446" y="527"/>
      <point x="388" y="464"/>
      <point x="353" y="384" type="curve"/>
      <point x="348" y="486"/>
      <point x="301" y="527"/>
    </contour>
    <contour>
      <point x="324" y="293" type="line"/>
      <point x="313" y="243"/>
      <point x="308" y="182"/>
      <point x="313" y="124" type="curve"/>
      <point x="257" y="37"/>
      <point x="209" y="-7"/>
      <point x="137" y="-7" type="curve" smooth="yes"/>
      <point x="69" y="-7"/>
      <point x="35" y="44"/>
      <point x="35" y="114" type="curve" smooth="yes"/>
      <point x="35" y="210"/>
      <point x="87" y="293"/>
      <point x="221" y="293" type="curve" smooth="yes"/>
    </contour>
    <contour>
      <point x="535" y="525" type="curve" smooth="yes"/>
      <point x="597" y="525"/>
      <point x="643" y="489"/>
      <point x="643" y="422" type="curve" smooth="yes"/>
      <point x="643" y="287"/>
      <point x="494" y="230"/>
      <point x="315" y="220" type="curve"/>
      <point x="328" y="358"/>
      <point x="390" y="525"/>
    </contour>
  </outline>
</glyph>
<glyph name="eth" format="2">
  <advance width="458"/>
  <unicode hex="00F0"/>
  <anchor x="170" y="0" name="bottom"/>
  <anchor x="319" y="727" name="top"/>
  <outline>
    <contour>
      <point x="208" y="734" type="curve"/>
      <point x="207" y="732" type="line"/>
      <point x="246" y="720"/>
      <point x="285" y="698"/>
      <point x="314" y="669" type="curve"/>
      <point x="400" y="583"/>
      <point x="401" y="452"/>
      <point x="388" y="337" type="curve"/>
      <point x="387" y="334" type="line"/>
      <point x="367" y="176"/>
      <point x="300" y="-7"/>
      <point x="173" y="-7" type="curve" smooth="yes"/>
      <point x="95" y="-7"/>
      <point x="55" y="57"/>
      <point x="55" y="155" type="curve" smooth="yes"/>
      <point x="55" y="261"/>
      <point x="111" y="455"/>
      <point x="250" y="455" type="curve" smooth="yes"/>
      <point x="316" y="455"/>
      <point x="359" y="406"/>
      <point x="387" y="333" type="curve"/>
      <point x="388" y="337" type="line"/>
      <point x="361" y="408"/>
      <point x="315" y="457"/>
      <point x="250" y="457" type="curve" smooth="yes"/>
      <point x="110" y="457"/>
      <point x="53" y="262"/>
      <point x="53" y="155" type="curve" smooth="yes"/>
      <point x="53" y="56"/>
      <point x="94" y="-9"/>
      <point x="173" y="-9" type="curve" smooth="yes"/>
      <point x="327" y="-9"/>
      <point x="396" y="257"/>
      <point x="396" y="439" type="curve" smooth="yes"/>
      <point x="396" y="541"/>
      <point x="368" y="619"/>
      <point x="316" y="670" type="curve"/>
      <point x="286" y="700"/>
      <point x="247" y="722"/>
    </contour>
    <contour>
      <point x="378" y="737" type="line"/>
      <point x="314" y="670" type="line"/>
      <point x="314" y="670" type="line"/>
      <point x="225" y="577" type="line"/>
      <point x="227" y="576" type="line"/>
      <point x="316" y="669" type="line"/>
      <point x="316" y="669" type="line"/>
      <point x="380" y="736" type="line"/>
    </contour>
  </outline>
</glyph>
<glyph name="oslash" format="2">
  <advance width="459"/>
  <unicode hex="00F8"/>
  <anchor x="192" y="0" name="bottom"/>
  <anchor x="266" y="517" name="top"/>
  <outline>
    <contour>
      <point x="185" y="-9" type="curve" smooth="yes"/>
      <point x="345" y="-9"/>
      <point x="402" y="208"/>
      <point x="402" y="350" type="curve" smooth="yes"/>
      <point x="402" y="462"/>
      <point x="357" y="527"/>
      <point x="275" y="527" type="curve" smooth="yes"/>
      <point x="117" y="527"/>
      <point x="57" y="316"/>
      <point x="57" y="170" type="curve" smooth="yes"/>
      <point x="57" y="58"/>
      <point x="102" y="-9"/>
    </contour>
    <contour>
      <point x="185" y="-7" type="curve" smooth="yes"/>
      <point x="103" y="-7"/>
      <point x="59" y="59"/>
      <point x="59" y="170" type="curve" smooth="yes"/>
      <point x="59" y="315"/>
      <point x="118" y="525"/>
      <point x="275" y="525" type="curve" smooth="yes"/>
      <point x="356" y="525"/>
      <point x="400" y="461"/>
      <point x="400" y="350" type="curve" smooth="yes"/>
      <point x="400" y="209"/>
      <point x="344" y="-7"/>
    </contour>
    <contour>
      <point x="126" y="9" type="line"/>
      <point x="76" y="-112" type="line"/>
      <point x="78" y="-112" type="line"/>
      <point x="128" y="8" type="line"/>
      <point x="128" y="9" type="line"/>
      <point x="333" y="509" type="line"/>
      <point x="333" y="510" type="line"/>
      <point x="382" y="630" type="line"/>
      <point x="380" y="630" type="line"/>
      <point x="331" y="511" type="line"/>
      <point x="331" y="510" type="line"/>
      <point x="126" y="10" type="line"/>
    </contour>
  </outline>
</glyph>
<glyph name="thorn" format="2">
  <advance width="469"/>
  <unicode hex="00FE"/>
  <anchor x="297" y="727" name="top"/>
  <outline>
    <contour>
      <point x="294" y="527" type="curve" smooth="yes"/>
      <point x="230" y="527"/>
      <point x="177" y="483"/>
      <point x="127" y="422" type="curve"/>
      <point x="170" y="730" type="line"/>
      <point x="168" y="730" type="line"/>
      <point x="39" y="-190" type="line"/>
      <point x="41" y="-189" type="line"/>
      <point x="71" y="26" type="line"/>
      <point x="102" y="6"/>
      <point x="144" y="-9"/>
      <point x="190" y="-9" type="curve" smooth="yes"/>
      <point x="345" y="-9"/>
      <point x="409" y="210"/>
      <point x="409" y="362" type="curve" smooth="yes"/>
      <point x="409" y="468"/>
      <point x="373" y="527"/>
    </contour>
    <contour>
      <point x="190" y="-7" type="curve" smooth="yes"/>
      <point x="146" y="-7"/>
      <point x="104" y="7"/>
      <point x="72" y="28" type="curve"/>
      <point x="127" y="419" type="line"/>
      <point x="179" y="484"/>
      <point x="233" y="525"/>
      <point x="294" y="525" type="curve" smooth="yes"/>
      <point x="372" y="525"/>
      <point x="407" y="467"/>
      <point x="407" y="362" type="curve" smooth="yes"/>
      <point x="407" y="212"/>
      <point x="344" y="-7"/>
    </contour>
  </outline>
</glyph>
<glyph name="dcroat" format="2">
  <advance width="462"/>
  <unicode hex="0111"/>
  <anchor x="189" y="0" name="bottom"/>
  <anchor x="234" y="259" name="center"/>
  <anchor x="308" y="727" name="top"/>
  <anchor x="486" y="727" name="topright"/>
  <outline>
    <contour>
      <point x="475" y="640" type="line"/>
      <point x="264" y="640" type="line"/>
      <point x="264" y="638" type="line"/>
      <point x="413" y="638" type="line"/>
      <point x="475" y="638" type="line"/>
    </contour>
    <component base="d"/>
  </outline>
</glyph>
<glyph name="Hbar" format="2">
  <advance width="536"/>
  <unicode hex="0126"/>
  <anchor x="242" y="0" name="bottom"/>
  <anchor x="402" y="0" name="bottomright"/>
  <anchor x="279" y="340" name="center"/>
  <anchor x="326" y="680" name="top"/>
  <anchor x="124" y="680" name="topleft"/>
  <outline>
    <contour>
      <point x="512" y="528" type="line"/>
      <point x="468" y="528" type="line"/>
      <point x="100" y="528" type="line"/>
      <point x="100" y="526" type="line"/>
      <point x="144" y="526" type="line"/>
      <point x="512" y="526" type="line"/>
    </contour>
    <component base="H"/>
  </outline>
</glyph>
<glyph name="hbar" format="2">
  <advance width="476"/>
  <unicode hex="0127"/>
  <anchor x="204" y="0" name="bottom"/>
  <anchor x="230" y="259" name="center"/>
  <anchor x="275" y="727" name="top"/>
  <outline>
    <contour>
      <point x="314" y="640" type="line"/>
      <point x="94" y="640" type="line"/>
      <point x="94" y="638" type="line"/>
      <point x="155" y="638" type="line"/>
      <point x="314" y="638" type="line"/>
    </contour>
    <component base="h"/>
  </outline>
</glyph>
<glyph name="dotlessi" format="2">
  <advance width="206"/>
  <unicode hex="0131"/>
  <anchor x="67" y="0" name="bottom"/>
  <anchor x="76" y="0" name="ogonek"/>
  <anchor x="139" y="517" name="top"/>
  <outline>
    <contour>
      <point x="140" y="517" type="line"/>
      <point x="138" y="517" type="line"/>
      <point x="66" y="0" type="line"/>
      <point x="68" y="0" type="line"/>
    </contour>
  </outline>
</glyph>
<glyph name="kgreenlandic" format="2">
  <advance width="366"/>
  <unicode hex="0138"/>
  <anchor x="153" y="0" name="bottom"/>
  <anchor x="226" y="517" name="top"/>
  <outline>
    <contour>
      <point x="366" y="517" type="line"/>
      <point x="363" y="517" type="line"/>
      <point x="117" y="273" type="line"/>
      <point x="313" y="0" type="line"/>
      <point x="316" y="0" type="line"/>
      <point x="120" y="273" type="line"/>
    </contour>
    <contour>
      <point x="147" y="517" type="line"/>
      <point x="145" y="517" type="line"/>
      <point x="73" y="0" type="line"/>
      <point x="75" y="0" type="line"/>
    </contour>
  </outline>
</glyph>
<glyph name="Lslash" format="2">
  <advance width="373"/>
  <unicode hex="0141"/>
  <anchor x="204" y="0" name="bottom"/>
  <anchor x="315" y="355" name="center"/>
  <anchor x="181" y="680" name="top"/>
  <anchor x="231" y="680" name="topright"/>
  <outline>
    <contour>
      <point x="130" y="324" type="line"/>
      <point x="322" y="454" type="line"/>
      <point x="321" y="456" type="line"/>
      <point x="59" y="278" type="line"/>
      <point x="60" y="276" type="line"/>
    </contour>
    <component base="L" xOffset="15"/>
  </outline>
</glyph>
<glyph name="lslash" format="2">
  <advance width="226"/>
  <unicode hex="0142"/>
  <anchor x="105" y="0" name="bottom"/>
  <anchor x="225" y="375" name="center"/>
  <anchor x="164" y="730" name="top"/>
  <anchor x="205" y="727" name="topright"/>
  <outline>
    <contour>
      <point x="224" y="444" type="line"/>
      <point x="58" y="329" type="line"/>
      <point x="59" y="327" type="line"/>
      <point x="225" y="442" type="line"/>
    </contour>
    <component base="l"/>
  </outline>
</glyph>
<glyph name="napostrophe" format="2">
  <advance width="522"/>
  <unicode hex="0149"/>
  <anchor x="250" y="0" name="bottom"/>
  <anchor x="323" y="517" name="top"/>
  <anchor x="176" y="517" name="topleft"/>
  <outline>
    <contour>
      <point x="151" y="733" type="curve" smooth="yes"/>
      <point x="148" y="733"/>
      <point x="146" y="731"/>
      <point x="146" y="728" type="curve" smooth="yes"/>
      <point x="146" y="725"/>
      <point x="148" y="723"/>
      <point x="151" y="723" type="curve"/>
      <point x="115" y="601" type="line"/>
      <point x="116" y="601" type="line"/>
      <point x="154" y="720" type="line" smooth="yes"/>
      <point x="155" y="723"/>
      <point x="156" y="726"/>
      <point x="156" y="728" type="curve" smooth="yes"/>
      <point x="156" y="731"/>
      <point x="154" y="733"/>
    </contour>
    <component base="n" xOffset="46"/>
  </outline>
</glyph>
<glyph name="OE" format="2">
  <advance width="685"/>
  <unicode hex="0152"/>
  <anchor x="306" y="0" name="bottom"/>
  <anchor x="402" y="680" name="top"/>
  <outline>
    <contour>
      <point x="334" y="690" type="curve" smooth="yes"/>
      <point x="150" y="690"/>
      <point x="72" y="402"/>
      <point x="72" y="222" type="curve" smooth="yes"/>
      <point x="72" y="73"/>
      <point x="129" y="-9"/>
      <point x="226" y="-9" type="curve" smooth="yes"/>
      <point x="246" y="-9"/>
      <point x="266" y="-6"/>
      <point x="284" y="1" type="curve"/>
      <point x="435" y="51"/>
      <point x="490" y="300"/>
      <point x="490" y="458" type="curve" smooth="yes"/>
      <point x="490" y="577"/>
      <point x="453" y="652"/>
      <point x="391" y="679" type="curve"/>
      <point x="375" y="686"/>
      <point x="356" y="690"/>
    </contour>
    <contour>
      <point x="333" y="688" type="curve" smooth="yes"/>
      <point x="429" y="688"/>
      <point x="488" y="608"/>
      <point x="488" y="458" type="curve" smooth="yes"/>
      <point x="488" y="282"/>
      <point x="420" y="-7"/>
      <point x="226" y="-7" type="curve" smooth="yes"/>
      <point x="130" y="-7"/>
      <point x="74" y="74"/>
      <point x="74" y="222" type="curve" smooth="yes"/>
      <point x="74" y="401"/>
      <point x="150" y="688"/>
    </contour>
    <contour>
      <point x="609" y="2" type="line"/>
      <point x="284" y="2" type="line"/>
      <point x="279" y="0" type="line"/>
      <point x="609" y="0" type="line"/>
    </contour>
    <contour>
      <point x="617" y="362" type="line"/>
      <point x="483" y="362" type="line"/>
      <point x="483" y="360" type="line"/>
      <point x="616" y="360" type="line"/>
    </contour>
    <contour>
      <point x="696" y="680" type="line"/>
      <point x="388" y="680" type="line"/>
      <point x="392" y="678" type="line"/>
      <point x="696" y="678" type="line"/>
    </contour>
  </outline>
</glyph>
<glyph name="oe" format="2">
  <advance width="751"/>
  <unicode hex="0153"/>
  <anchor x="370" y="0" name="bottom"/>
  <anchor x="422" y="517" name="top"/>
  <outline>
    <contour>
      <point x="275" y="527" type="curve" smooth="yes"/>
      <point x="117" y="527"/>
      <point x="57" y="316"/>
      <point x="57" y="170" type="curve" smooth="yes"/>
      <point x="57" y="58"/>
      <point x="102" y="-9"/>
      <point x="185" y="-9" type="curve" smooth="yes"/>
      <point x="345" y="-9"/>
      <point x="402" y="208"/>
      <point x="402" y="350" type="curve" smooth="yes"/>
      <point x="402" y="462"/>
      <point x="357" y="527"/>
    </contour>
    <contour>
      <point x="275" y="525" type="curve" smooth="yes"/>
      <point x="356" y="525"/>
      <point x="400" y="461"/>
      <point x="400" y="350" type="curve" smooth="yes"/>
      <point x="400" y="209"/>
      <point x="344" y="-7"/>
      <point x="185" y="-7" type="curve" smooth="yes"/>
      <point x="103" y="-7"/>
      <point x="59" y="59"/>
      <point x="59" y="170" type="curve" smooth="yes"/>
      <point x="59" y="315"/>
      <point x="118" y="525"/>
    </contour>
    <contour>
      <point x="611" y="527" type="curve"/>
      <point x="445" y="527"/>
      <point x="386" y="309"/>
      <point x="386" y="165" type="curve" smooth="yes"/>
      <point x="386" y="51"/>
      <point x="432" y="-9"/>
      <point x="510" y="-9" type="curve"/>
      <point x="563" y="-9"/>
      <point x="601" y="12"/>
      <point x="646" y="50" type="curve"/>
      <point x="645" y="52" type="line"/>
      <point x="601" y="14"/>
      <point x="563" y="-7"/>
      <point x="510" y="-7" type="curve"/>
      <point x="433" y="-7"/>
      <point x="388" y="53"/>
      <point x="388" y="165" type="curve" smooth="yes"/>
      <point x="388" y="308"/>
      <point x="446" y="525"/>
      <point x="611" y="525" type="curve"/>
      <point x="673" y="525"/>
      <point x="719" y="489"/>
      <point x="719" y="422" type="curve" smooth="yes"/>
      <point x="719" y="287"/>
      <point x="570" y="230"/>
      <point x="390" y="220" type="curve"/>
      <point x="390" y="218" type="line"/>
      <point x="568" y="228"/>
      <point x="721" y="284"/>
      <point x="721" y="422" type="curve" smooth="yes"/>
      <point x="721" y="490"/>
      <point x="674" y="527"/>
    </contour>
  </outline>
</glyph>
<glyph name="Tbar" format="2">
  <advance width="385"/>
  <unicode hex="0166"/>
  <anchor x="156" y="0" name="bottom"/>
  <anchor x="165" y="0" name="bottomright"/>
  <anchor x="204" y="340" name="center"/>
  <anchor x="251" y="680" name="top"/>
  <outline>
    <contour>
      <point x="311" y="376" type="line"/>
      <point x="210" y="376" type="line"/>
      <point x="107" y="376" type="line"/>
      <point x="107" y="374" type="line"/>
      <point x="208" y="374" type="line"/>
      <point x="311" y="374" type="line"/>
    </contour>
    <component base="T"/>
  </outline>
</glyph>
<glyph name="tbar" format="2">
  <advance width="265"/>
  <unicode hex="0167"/>
  <anchor x="148" y="0" name="bottom"/>
  <anchor x="120" y="259" name="center"/>
  <anchor x="152" y="649" name="top"/>
  <anchor x="212" y="730" name="topright"/>
  <outline>
    <contour>
      <point x="229" y="335" type="line"/>
      <point x="107" y="335" type="line"/>
      <point x="36" y="335" type="line"/>
      <point x="36" y="333" type="line"/>
      <point x="229" y="333" type="line"/>
    </contour>
    <component base="t"/>
  </outline>
</glyph>
<glyph name="bstroke" format="2">
  <advance width="562"/>
  <unicode hex="0180"/>
  <anchor x="193" y="0" name="bottom"/>
  <anchor x="324" y="727" name="top"/>
  <outline>
    <contour>
      <point x="322" y="640" type="line"/>
      <point x="102" y="640" type="line"/>
      <point x="102" y="638" type="line"/>
      <point x="163" y="638" type="line"/>
      <point x="322" y="638" type="line"/>
    </contour>
    <component base="b"/>
  </outline>
</glyph>
<glyph name="Tonesix" format="2">
  <advance width="450"/>
  <unicode hex="0184"/>
  <anchor x="195" y="0" name="bottom"/>
  <anchor x="291" y="680" name="top"/>
  <outline>
    <contour>
      <point x="77" y="0" type="line"/>
      <point x="200" y="0" type="line" smooth="yes"/>
      <point x="355" y="0"/>
      <point x="404" y="143"/>
      <point x="404" y="246" type="curve" smooth="yes"/>
      <point x="404" y="346"/>
      <point x="351" y="399"/>
      <point x="252" y="399" type="curve" smooth="yes"/>
      <point x="134" y="399" type="line"/>
      <point x="134" y="397" type="line"/>
      <point x="252" y="397" type="line" smooth="yes"/>
      <point x="350" y="397"/>
      <point x="402" y="344"/>
      <point x="402" y="246" type="curve" smooth="yes"/>
      <point x="402" y="152"/>
      <point x="359" y="2"/>
      <point x="200" y="2" type="curve" smooth="yes"/>
      <point x="79" y="2" type="line"/>
      <point x="174" y="680" type="line"/>
      <point x="173" y="680" type="line"/>
      <point x="165" y="628" type="line"/>
    </contour>
    <contour>
      <point x="165" y="628" type="line"/>
      <point x="173" y="680" type="line"/>
      <point x="167" y="659"/>
      <point x="162" y="647"/>
      <point x="153" y="633" type="curve"/>
    </contour>
  </outline>
</glyph>
<glyph name="tonesix" format="2">
  <advance width="403"/>
  <unicode hex="0185"/>
  <anchor x="172" y="0" name="bottom"/>
  <anchor x="245" y="517" name="top"/>
  <outline>
    <contour>
      <point x="139" y="475" type="line"/>
      <point x="146" y="517" type="line"/>
      <point x="141" y="502"/>
      <point x="135" y="490"/>
      <point x="127" y="480" type="curve"/>
    </contour>
    <contour>
      <point x="222" y="328" type="curve" smooth="yes"/>
      <point x="120" y="328" type="line"/>
      <point x="147" y="517" type="line"/>
      <point x="146" y="517" type="line"/>
      <point x="139" y="475" type="line"/>
      <point x="75" y="15" type="line"/>
      <point x="111" y="-2"/>
      <point x="145" y="-10"/>
      <point x="181" y="-9" type="curve" smooth="yes"/>
      <point x="315" y="-5"/>
      <point x="355" y="109"/>
      <point x="355" y="199" type="curve" smooth="yes"/>
      <point x="355" y="275"/>
      <point x="318" y="328"/>
    </contour>
    <contour>
      <point x="181" y="-7" type="curve" smooth="yes"/>
      <point x="146" y="-8"/>
      <point x="112" y="0"/>
      <point x="77" y="16" type="curve"/>
      <point x="120" y="326" type="line"/>
      <point x="222" y="326" type="line" smooth="yes"/>
      <point x="317" y="326"/>
      <point x="353" y="274"/>
      <point x="353" y="199" type="curve" smooth="yes"/>
      <point x="353" y="110"/>
      <point x="314" y="-3"/>
    </contour>
  </outline>
</glyph>
<glyph name="Oopen" format="2">
  <advance width="435"/>
  <unicode hex="0186"/>
  <anchor x="147" y="0" name="bottom"/>
  <anchor x="242" y="680" name="top"/>
  <outline>
    <contour>
      <point x="233" y="690" type="curve" smooth="yes"/>
      <point x="168" y="690"/>
      <point x="129" y="664"/>
      <point x="88" y="633" type="curve"/>
      <point x="88" y="631" type="line"/>
      <point x="130" y="662"/>
      <point x="169" y="688"/>
      <point x="233" y="688" type="curve" smooth="yes"/>
      <point x="329" y="688"/>
      <point x="389" y="610"/>
      <point x="389" y="451" type="curve" smooth="yes"/>
      <point x="389" y="225"/>
      <point x="298" y="-7"/>
      <point x="131" y="-7" type="curve" smooth="yes"/>
      <point x="62" y="-7"/>
      <point x="27" y="22"/>
      <point x="0" y="52" type="curve"/>
      <point x="-1" y="50" type="line"/>
      <point x="25" y="20"/>
      <point x="61" y="-9"/>
      <point x="131" y="-9" type="curve" smooth="yes"/>
      <point x="299" y="-9"/>
      <point x="391" y="223"/>
      <point x="391" y="451" type="curve" smooth="yes"/>
      <point x="391" y="611"/>
      <point x="330" y="690"/>
    </contour>
  </outline>
</glyph>
<glyph name="Chook" format="2">
  <advance width="434"/>
  <unicode hex="0187"/>
  <anchor x="188" y="0" name="bottom"/>
  <anchor x="283" y="680" name="top"/>
  <outline>
    <contour>
      <point x="463" y="633" type="line"/>
      <point x="465" y="633" type="line"/>
      <point x="476" y="708" type="line" smooth="yes"/>
      <point x="485" y="769"/>
      <point x="516" y="801"/>
      <point x="556" y="801" type="curve" smooth="yes"/>
      <point x="586" y="801"/>
      <point x="603" y="789"/>
      <point x="616" y="773" type="curve"/>
      <point x="617" y="775" type="line"/>
      <point x="605" y="790"/>
      <point x="587" y="803"/>
      <point x="556" y="803" type="curve" smooth="yes"/>
      <point x="515" y="803"/>
      <point x="483" y="770"/>
      <point x="474" y="708" type="curve" smooth="yes"/>
    </contour>
    <contour>
      <point x="348" y="690" type="curve" smooth="yes"/>
      <point x="147" y="690"/>
      <point x="81" y="415"/>
      <point x="81" y="240" type="curve" smooth="yes"/>
      <point x="81" y="79"/>
      <point x="145" y="-9"/>
      <point x="250" y="-9" type="curve" smooth="yes"/>
      <point x="317" y="-9"/>
      <point x="361" y="23"/>
      <point x="391" y="50" type="curve"/>
      <point x="390" y="52" type="line"/>
      <point x="360" y="25"/>
      <point x="317" y="-7"/>
      <point x="250" y="-7" type="curve" smooth="yes"/>
      <point x="147" y="-7"/>
      <point x="83" y="80"/>
      <point x="83" y="240" type="curve" smooth="yes"/>
      <point x="83" y="410"/>
      <point x="147" y="688"/>
      <point x="348" y="688" type="curve" smooth="yes"/>
      <point x="405" y="688"/>
      <point x="439" y="661"/>
      <point x="464" y="631" type="curve"/>
      <point x="465" y="633" type="line"/>
      <point x="465" y="633"/>
      <point x="465" y="632"/>
      <point x="464" y="633" type="curve" smooth="yes"/>
      <point x="439" y="660"/>
      <point x="406" y="690"/>
    </contour>
  </outline>
</glyph>
<glyph name="chook" format="2">
  <advance width="385"/>
  <unicode hex="0188"/>
  <anchor x="163" y="0" name="bottom"/>
  <anchor x="265" y="727" name="top"/>
  <outline>
    <contour>
      <point x="275" y="527" type="curve" smooth="yes"/>
      <point x="140" y="527"/>
      <point x="67" y="356"/>
      <point x="67" y="184" type="curve" smooth="yes"/>
      <point x="67" y="59"/>
      <point x="119" y="-9"/>
      <point x="199" y="-9" type="curve" smooth="yes"/>
      <point x="249" y="-9"/>
      <point x="284" y="13"/>
      <point x="316" y="44" type="curve"/>
      <point x="315" y="45" type="line"/>
      <point x="282" y="14"/>
      <point x="247" y="-7"/>
      <point x="199" y="-7" type="curve" smooth="yes"/>
      <point x="121" y="-7"/>
      <point x="69" y="60"/>
      <point x="69" y="184" type="curve" smooth="yes"/>
      <point x="69" y="355"/>
      <point x="141" y="525"/>
      <point x="275" y="525" type="curve" smooth="yes"/>
      <point x="317" y="525"/>
      <point x="347" y="508"/>
      <point x="372" y="476" type="curve"/>
      <point x="374" y="477" type="line"/>
      <point x="374" y="477"/>
      <point x="373" y="478"/>
      <point x="373" y="477" type="curve"/>
      <point x="350" y="509"/>
      <point x="318" y="527"/>
    </contour>
    <contour>
      <point x="374" y="477" type="line"/>
      <point x="396" y="638" type="line" smooth="yes"/>
      <point x="404" y="699"/>
      <point x="437" y="731"/>
      <point x="477" y="731" type="curve" smooth="yes"/>
      <point x="507" y="731"/>
      <point x="523" y="719"/>
      <point x="537" y="703" type="curve"/>
      <point x="538" y="705" type="line"/>
      <point x="524" y="720"/>
      <point x="508" y="733"/>
      <point x="477" y="733" type="curve" smooth="yes"/>
      <point x="436" y="733"/>
      <point x="402" y="700"/>
      <point x="394" y="638" type="curve" smooth="yes"/>
      <point x="372" y="477" type="line"/>
    </contour>
  </outline>
</glyph>
<glyph name="Dtopbar" format="2">
  <advance width="462"/>
  <unicode hex="018B"/>
  <anchor x="201" y="0" name="bottom"/>
  <anchor x="297" y="680" name="top"/>
  <outline>
    <contour>
      <point x="419" y="680" type="line"/>
      <point x="325" y="2" type="line"/>
      <point x="199" y="2" type="line" smooth="yes"/>
      <point x="110" y="2"/>
      <point x="58" y="59"/>
      <point x="58" y="157" type="curve" smooth="yes"/>
      <point x="58" y="301"/>
      <point x="138" y="397"/>
      <point x="268" y="397" type="curve" smooth="yes"/>
      <point x="381" y="397" type="line"/>
      <point x="381" y="399" type="line"/>
      <point x="268" y="399" type="line" smooth="yes"/>
      <point x="138" y="399"/>
      <point x="56" y="303"/>
      <point x="56" y="157" type="curve" smooth="yes"/>
      <point x="56" y="58"/>
      <point x="109" y="0"/>
      <point x="198" y="0" type="curve" smooth="yes"/>
      <point x="326" y="0" type="line"/>
      <point x="421" y="680" type="line"/>
    </contour>
    <contour>
      <point x="177" y="680" type="line"/>
      <point x="177" y="678" type="line"/>
      <point x="420" y="678" type="line"/>
      <point x="421" y="680" type="line"/>
    </contour>
  </outline>
</glyph>
<glyph name="dtopbar" format="2">
  <advance width="469"/>
  <unicode hex="018C"/>
  <anchor x="205" y="0" name="bottom"/>
  <anchor x="307" y="727" name="top"/>
  <outline>
    <contour>
      <point x="240" y="725" type="line"/>
      <point x="437" y="725" type="line"/>
      <point x="438" y="727" type="line"/>
      <point x="240" y="727" type="line"/>
    </contour>
    <contour>
      <point x="437" y="727" type="line"/>
      <point x="395" y="424" type="line"/>
      <point x="381" y="473"/>
      <point x="345" y="527"/>
      <point x="274" y="527" type="curve" smooth="yes"/>
      <point x="122" y="527"/>
      <point x="70" y="304"/>
      <point x="70" y="173" type="curve" smooth="yes"/>
      <point x="70" y="58"/>
      <point x="116" y="-9"/>
      <point x="188" y="-9" type="curve" smooth="yes"/>
      <point x="267" y="-9"/>
      <point x="316" y="65"/>
      <point x="356" y="149" type="curve"/>
      <point x="335" y="0" type="line"/>
      <point x="337" y="0" type="line"/>
      <point x="439" y="727" type="line"/>
    </contour>
    <contour>
      <point x="274" y="525" type="curve" smooth="yes"/>
      <point x="343" y="525"/>
      <point x="379" y="474"/>
      <point x="394" y="420" type="curve"/>
      <point x="356" y="152" type="line"/>
      <point x="316" y="68"/>
      <point x="267" y="-7"/>
      <point x="188" y="-7" type="curve" smooth="yes"/>
      <point x="117" y="-7"/>
      <point x="72" y="59"/>
      <point x="72" y="173" type="curve" smooth="yes"/>
      <point x="72" y="303"/>
      <point x="123" y="525"/>
    </contour>
  </outline>
</glyph>
<glyph name="deltaturned" format="2">
  <advance width="456"/>
  <unicode hex="018D"/>
  <anchor x="271" y="517" name="top"/>
  <outline>
    <contour>
      <point x="174" y="-191" type="curve" smooth="yes"/>
      <point x="256" y="-191"/>
      <point x="305" y="-140"/>
      <point x="305" y="-77" type="curve" smooth="yes"/>
      <point x="305" y="-25"/>
      <point x="278" y="1"/>
      <point x="210" y="35" type="curve"/>
      <point x="358" y="88"/>
      <point x="404" y="210"/>
      <point x="404" y="341" type="curve" smooth="yes"/>
      <point x="404" y="456"/>
      <point x="356" y="527"/>
      <point x="270" y="527" type="curve" smooth="yes"/>
      <point x="117" y="527"/>
      <point x="71" y="339"/>
      <point x="71" y="225" type="curve" smooth="yes"/>
      <point x="71" y="128"/>
      <point x="112" y="81"/>
      <point x="207" y="34" type="curve" smooth="yes"/>
      <point x="276" y="0"/>
      <point x="303" y="-26"/>
      <point x="303" y="-77" type="curve" smooth="yes"/>
      <point x="303" y="-139"/>
      <point x="255" y="-189"/>
      <point x="174" y="-189" type="curve" smooth="yes"/>
      <point x="121" y="-189"/>
      <point x="90" y="-172"/>
      <point x="57" y="-142" type="curve"/>
      <point x="55" y="-143" type="line"/>
      <point x="89" y="-174"/>
      <point x="121" y="-191"/>
    </contour>
    <contour>
      <point x="207" y="36" type="curve"/>
      <point x="114" y="83"/>
      <point x="73" y="129"/>
      <point x="73" y="225" type="curve" smooth="yes"/>
      <point x="73" y="338"/>
      <point x="118" y="525"/>
      <point x="270" y="525" type="curve" smooth="yes"/>
      <point x="355" y="525"/>
      <point x="402" y="455"/>
      <point x="402" y="341" type="curve" smooth="yes"/>
      <point x="402" y="217"/>
      <point x="362" y="91"/>
    </contour>
  </outline>
</glyph>
<glyph name="Ereversed" format="2">
  <advance width="406"/>
  <unicode hex="018E"/>
  <outline>
    <contour>
      <point x="111" y="680" type="line"/>
      <point x="111" y="678" type="line"/>
      <point x="362" y="678" type="line"/>
      <point x="318" y="362" type="line"/>
      <point x="105" y="362" type="line"/>
      <point x="105" y="360" type="line"/>
      <point x="318" y="360" type="line"/>
      <point x="268" y="2" type="line"/>
      <point x="11" y="2" type="line"/>
      <point x="11" y="0" type="line"/>
      <point x="270" y="0" type="line"/>
      <point x="364" y="680" type="line"/>
    </contour>
  </outline>
</glyph>
<glyph name="Eopen" format="2">
  <advance width="417"/>
  <unicode hex="0190"/>
  <anchor x="187" y="0" name="bottom"/>
  <anchor x="282" y="680" name="top"/>
  <outline>
    <contour>
      <point x="281" y="690" type="curve" smooth="yes"/>
      <point x="185" y="690"/>
      <point x="114" y="613"/>
      <point x="114" y="501" type="curve" smooth="yes"/>
      <point x="114" y="417"/>
      <point x="164" y="377"/>
      <point x="222" y="372" type="curve"/>
      <point x="123" y="368"/>
      <point x="48" y="291"/>
      <point x="48" y="151" type="curve" smooth="yes"/>
      <point x="48" y="50"/>
      <point x="103" y="-9"/>
      <point x="189" y="-9" type="curve"/>
      <point x="260" y="-9"/>
      <point x="312" y="23"/>
      <point x="366" y="84" type="curve"/>
      <point x="364" y="85" type="line"/>
      <point x="311" y="25"/>
      <point x="259" y="-7"/>
      <point x="189" y="-7" type="curve"/>
      <point x="102" y="-7"/>
      <point x="47" y="55"/>
      <point x="50" y="158" type="curve" smooth="yes"/>
      <point x="54" y="292"/>
      <point x="128" y="371"/>
      <point x="235" y="371" type="curve" smooth="yes"/>
      <point x="282" y="371" type="line"/>
      <point x="282" y="373" type="line"/>
      <point x="238" y="373" type="line" smooth="yes"/>
      <point x="168" y="373"/>
      <point x="116" y="418"/>
      <point x="116" y="502" type="curve" smooth="yes"/>
      <point x="116" y="609"/>
      <point x="185" y="688"/>
      <point x="280" y="688" type="curve" smooth="yes"/>
      <point x="345" y="688"/>
      <point x="382" y="658"/>
      <point x="416" y="603" type="curve"/>
      <point x="418" y="605" type="line"/>
      <point x="385" y="660"/>
      <point x="346" y="690"/>
    </contour>
  </outline>
</glyph>
<glyph name="florin" format="2">
  <advance width="245"/>
  <unicode hex="0192"/>
  <outline>
    <contour>
      <point x="160" y="618" type="curve" smooth="yes"/>
      <point x="72" y="-9" type="line" smooth="yes"/>
      <point x="57" y="-119"/>
      <point x="29" y="-153"/>
      <point x="-33" y="-190" type="curve"/>
      <point x="-32" y="-191" type="line"/>
      <point x="30" y="-154"/>
      <point x="58" y="-120"/>
      <point x="74" y="-9" type="curve" smooth="yes"/>
      <point x="162" y="618" type="line" smooth="yes"/>
      <point x="173" y="693"/>
      <point x="213" y="732"/>
      <point x="269" y="732" type="curve" smooth="yes"/>
      <point x="307" y="732"/>
      <point x="330" y="720"/>
      <point x="356" y="695" type="curve"/>
      <point x="358" y="696" type="line"/>
      <point x="332" y="721"/>
      <point x="307" y="734"/>
      <point x="269" y="734" type="curve" smooth="yes"/>
      <point x="212" y="734"/>
      <point x="171" y="694"/>
    </contour>
    <contour>
      <point x="70" y="515" type="line"/>
      <point x="271" y="515" type="line"/>
      <point x="271" y="517" type="line"/>
      <point x="70" y="517" type="line"/>
    </contour>
  </outline>
</glyph>
<glyph name="Ghook" format="2">
  <advance width="440"/>
  <unicode hex="0193"/>
  <anchor x="190" y="0" name="bottom"/>
  <anchor x="286" y="680" name="top"/>
  <outline>
    <contour>
      <point x="349" y="690" type="curve" smooth="yes"/>
      <point x="167" y="690"/>
      <point x="81" y="439"/>
      <point x="81" y="243" type="curve" smooth="yes"/>
      <point x="81" y="79"/>
      <point x="148" y="-9"/>
      <point x="260" y="-9" type="curve" smooth="yes"/>
      <point x="317" y="-9"/>
      <point x="366" y="15"/>
      <point x="402" y="39" type="curve"/>
      <point x="445" y="342" type="line"/>
      <point x="320" y="342" type="line"/>
      <point x="320" y="340" type="line"/>
      <point x="443" y="340" type="line"/>
      <point x="400" y="40" type="line"/>
      <point x="365" y="17"/>
      <point x="318" y="-7"/>
      <point x="260" y="-7" type="curve" smooth="yes"/>
      <point x="149" y="-7"/>
      <point x="83" y="80"/>
      <point x="83" y="243" type="curve" smooth="yes"/>
      <point x="83" y="433"/>
      <point x="167" y="688"/>
      <point x="349" y="688" type="curve" smooth="yes"/>
      <point x="399" y="688"/>
      <point x="435" y="669"/>
      <point x="470" y="633" type="curve"/>
      <point x="471" y="635" type="line"/>
      <point x="470" y="635"/>
      <point x="470" y="637"/>
      <point x="470" y="635" type="curve"/>
      <point x="436" y="670"/>
      <point x="400" y="690"/>
    </contour>
    <contour>
      <point x="468" y="635" type="line"/>
      <point x="470" y="635" type="line"/>
      <point x="481" y="708" type="line" smooth="yes"/>
      <point x="490" y="769"/>
      <point x="522" y="801"/>
      <point x="562" y="801" type="curve" smooth="yes"/>
      <point x="592" y="801"/>
      <point x="609" y="789"/>
      <point x="622" y="773" type="curve"/>
      <point x="623" y="775" type="line"/>
      <point x="611" y="790"/>
      <point x="593" y="803"/>
      <point x="562" y="803" type="curve" smooth="yes"/>
      <point x="521" y="803"/>
      <point x="488" y="770"/>
      <point x="479" y="708" type="curve" smooth="yes"/>
    </contour>
  </outline>
</glyph>
<glyph name="Gammaafrican" format="2">
  <advance width="430"/>
  <unicode hex="0194"/>
  <anchor x="281" y="680" name="top"/>
  <outline>
    <contour>
      <point x="162" y="-193" type="curve"/>
      <point x="202" y="-193"/>
      <point x="221" y="-153"/>
      <point x="221" y="-105" type="curve" smooth="yes"/>
      <point x="221" y="-61"/>
      <point x="211" y="-12"/>
      <point x="197" y="58" type="curve"/>
      <point x="196" y="60" type="line"/>
      <point x="97" y="680" type="line"/>
      <point x="95" y="680" type="line"/>
      <point x="195" y="58" type="line"/>
      <point x="196" y="56" type="line"/>
      <point x="209" y="-14"/>
      <point x="219" y="-62"/>
      <point x="219" y="-105" type="curve" smooth="yes"/>
      <point x="219" y="-152"/>
      <point x="201" y="-191"/>
      <point x="162" y="-191" type="curve"/>
      <point x="133" y="-191"/>
      <point x="122" y="-169"/>
      <point x="122" y="-142" type="curve" smooth="yes"/>
      <point x="122" y="-98"/>
      <point x="150" y="-37"/>
      <point x="196" y="56" type="curve"/>
      <point x="197" y="58" type="line"/>
      <point x="467" y="680" type="line"/>
      <point x="465" y="680" type="line"/>
      <point x="196" y="60" type="line"/>
      <point x="195" y="58" type="line"/>
      <point x="148" y="-36"/>
      <point x="120" y="-98"/>
      <point x="120" y="-142" type="curve" smooth="yes"/>
      <point x="120" y="-170"/>
      <point x="132" y="-193"/>
    </contour>
  </outline>
</glyph>
<glyph name="hv" format="2">
  <advance width="732"/>
  <unicode hex="0195"/>
  <anchor x="336" y="0" name="bottom"/>
  <anchor x="438" y="727" name="top"/>
  <outline>
    <contour>
      <point x="670" y="517" type="curve"/>
      <point x="668" y="517" type="line"/>
      <point x="669" y="503"/>
      <point x="669" y="480"/>
      <point x="669" y="463" type="curve" smooth="yes"/>
      <point x="669" y="272"/>
      <point x="637" y="-7"/>
      <point x="466" y="-7" type="curve" smooth="yes"/>
      <point x="378" y="-7"/>
      <point x="359" y="76"/>
      <point x="370" y="154" type="curve" smooth="yes"/>
      <point x="400" y="368" type="line" smooth="yes"/>
      <point x="414" y="467"/>
      <point x="389" y="527"/>
      <point x="313" y="527" type="curve" smooth="yes"/>
      <point x="242" y="527"/>
      <point x="182" y="473"/>
      <point x="122" y="335" type="curve"/>
      <point x="177" y="730" type="line"/>
      <point x="175" y="730" type="line"/>
      <point x="73" y="0" type="line"/>
      <point x="75" y="0" type="line"/>
      <point x="121" y="329" type="line"/>
      <point x="183" y="471"/>
      <point x="242" y="525"/>
      <point x="313" y="525" type="curve" smooth="yes"/>
      <point x="388" y="525"/>
      <point x="412" y="466"/>
      <point x="398" y="368" type="curve" smooth="yes"/>
      <point x="368" y="154" type="line" smooth="yes"/>
      <point x="357" y="75"/>
      <point x="376" y="-9"/>
      <point x="466" y="-9" type="curve" smooth="yes"/>
      <point x="638" y="-9"/>
      <point x="671" y="264"/>
      <point x="671" y="463" type="curve" smooth="yes"/>
      <point x="671" y="480"/>
      <point x="671" y="503"/>
    </contour>
  </outline>
</glyph>
<glyph name="Iotaafrican" format="2">
  <advance width="313"/>
  <unicode hex="0196"/>
  <anchor x="99" y="0" name="bottom"/>
  <anchor x="165" y="680" name="top"/>
  <outline>
    <contour>
      <point x="166" y="680" type="line"/>
      <point x="164" y="680" type="line"/>
      <point x="94" y="183" type="line"/>
      <point x="96" y="183" type="line"/>
    </contour>
    <component base="hookHELPERright.case" xOffset="88" yOffset="183"/>
  </outline>
</glyph>
<glyph name="Khook" format="2">
  <advance width="445"/>
  <unicode hex="0198"/>
  <anchor x="193" y="0" name="bottom"/>
  <anchor x="288" y="680" name="top"/>
  <outline>
    <contour>
      <point x="174" y="680" type="line"/>
      <point x="172" y="680" type="line"/>
      <point x="77" y="1" type="line"/>
      <point x="79" y="1" type="line"/>
    </contour>
    <contour>
      <point x="346" y="619" type="line" smooth="yes"/>
      <point x="393" y="675"/>
      <point x="412" y="688"/>
      <point x="440" y="688" type="curve" smooth="yes"/>
      <point x="464" y="688"/>
      <point x="480" y="675"/>
      <point x="493" y="657" type="curve"/>
      <point x="495" y="658" type="line"/>
      <point x="482" y="676"/>
      <point x="465" y="690"/>
      <point x="440" y="690" type="curve" smooth="yes"/>
      <point x="412" y="690"/>
      <point x="392" y="677"/>
      <point x="345" y="621" type="curve" smooth="yes"/>
      <point x="132" y="366" type="line"/>
      <point x="369" y="0" type="line"/>
      <point x="372" y="0" type="line"/>
      <point x="135" y="366" type="line"/>
    </contour>
  </outline>
</glyph>
<glyph name="khook" format="2">
  <advance width="509"/>
  <unicode hex="0199"/>
  <outline>
    <contour>
      <point x="147" y="516" type="line"/>
      <point x="145" y="516" type="line"/>
      <point x="73" y="0" type="line"/>
      <point x="75" y="0" type="line"/>
      <point x="117" y="302" type="line"/>
      <point x="173" y="446"/>
      <point x="242" y="525"/>
      <point x="314" y="525" type="curve" smooth="yes"/>
      <point x="367" y="525"/>
      <point x="395" y="487"/>
      <point x="395" y="428" type="curve" smooth="yes"/>
      <point x="395" y="337"/>
      <point x="334" y="284"/>
      <point x="235" y="244" type="curve"/>
      <point x="334" y="0" type="line"/>
      <point x="336" y="0" type="line"/>
      <point x="238" y="243" type="line"/>
      <point x="335" y="282"/>
      <point x="397" y="336"/>
      <point x="397" y="429" type="curve" smooth="yes"/>
      <point x="397" y="488"/>
      <point x="368" y="527"/>
      <point x="314" y="527" type="curve" smooth="yes"/>
      <point x="242" y="527"/>
      <point x="173" y="448"/>
      <point x="118" y="308" type="curve"/>
    </contour>
    <component base="hookaboveHELPER" xOffset="67"/>
  </outline>
</glyph>
<glyph name="Mturned" format="2">
  <advance width="753"/>
  <unicode hex="019C"/>
  <anchor x="347" y="0" name="bottom"/>
  <anchor x="442" y="680" name="top"/>
  <outline>
    <contour>
      <point x="187" y="-10" type="curve" smooth="yes"/>
      <point x="257" y="-10"/>
      <point x="310" y="43"/>
      <point x="363" y="131" type="curve"/>
      <point x="362" y="133" type="line"/>
      <point x="308" y="44"/>
      <point x="256" y="-8"/>
      <point x="187" y="-8" type="curve" smooth="yes"/>
      <point x="116" y="-8"/>
      <point x="78" y="51"/>
      <point x="94" y="169" type="curve" smooth="yes"/>
      <point x="165" y="680" type="line"/>
      <point x="163" y="680" type="line"/>
      <point x="92" y="169" type="line" smooth="yes"/>
      <point x="76" y="50"/>
      <point x="115" y="-10"/>
    </contour>
    <contour>
      <point x="460" y="-10" type="curve" smooth="yes"/>
      <point x="530" y="-10"/>
      <point x="583" y="43"/>
      <point x="634" y="127" type="curve"/>
      <point x="634" y="130" type="line"/>
      <point x="581" y="44"/>
      <point x="529" y="-8"/>
      <point x="460" y="-8" type="curve" smooth="yes"/>
      <point x="389" y="-8"/>
      <point x="351" y="51"/>
      <point x="367" y="169" type="curve" smooth="yes"/>
      <point x="438" y="680" type="line"/>
      <point x="436" y="680" type="line"/>
      <point x="365" y="169" type="line" smooth="yes"/>
      <point x="349" y="50"/>
      <point x="388" y="-10"/>
    </contour>
    <contour>
      <point x="615" y="0" type="line"/>
      <point x="617" y="0" type="line"/>
      <point x="711" y="680" type="line"/>
      <point x="709" y="680" type="line"/>
      <point x="633" y="128" type="line"/>
    </contour>
  </outline>
</glyph>
<glyph name="Nhookleft" format="2">
  <advance width="654"/>
  <unicode hex="019D"/>
  <anchor x="227" y="0" name="bottom"/>
  <anchor x="330" y="680" name="top"/>
  <outline>
    <contour>
      <point x="-17" y="-192" type="curve" smooth="yes"/>
      <point x="24" y="-192"/>
      <point x="58" y="-159"/>
      <point x="66" y="-97" type="curve" smooth="yes"/>
      <point x="79" y="0" type="line"/>
      <point x="77" y="0" type="line"/>
      <point x="64" y="-97" type="line" smooth="yes"/>
      <point x="56" y="-158"/>
      <point x="23" y="-190"/>
      <point x="-17" y="-190" type="curve" smooth="yes"/>
      <point x="-47" y="-190"/>
      <point x="-63" y="-178"/>
      <point x="-77" y="-162" type="curve"/>
      <point x="-78" y="-164" type="line"/>
      <point x="-65" y="-179"/>
      <point x="-48" y="-192"/>
    </contour>
    <component base="N"/>
  </outline>
</glyph>
<glyph name="nlegrightlong" format="2">
  <advance width="476"/>
  <unicode hex="019E"/>
  <outline>
    <contour>
      <point x="314" y="527" type="curve" smooth="yes"/>
      <point x="242" y="527"/>
      <point x="182" y="473"/>
      <point x="122" y="335" type="curve"/>
      <point x="147" y="517" type="line"/>
      <point x="145" y="517" type="line"/>
      <point x="73" y="0" type="line"/>
      <point x="75" y="0" type="line"/>
      <point x="121" y="329" type="line"/>
      <point x="183" y="471"/>
      <point x="242" y="525"/>
      <point x="314" y="525" type="curve" smooth="yes"/>
      <point x="387" y="525"/>
      <point x="412" y="466"/>
      <point x="398" y="368" type="curve" smooth="yes"/>
      <point x="318" y="-191" type="line"/>
      <point x="320" y="-191" type="line"/>
      <point x="400" y="368" type="line" smooth="yes"/>
      <point x="414" y="467"/>
      <point x="388" y="527"/>
    </contour>
  </outline>
</glyph>
<glyph name="Oi" format="2">
  <advance width="717"/>
  <unicode hex="01A2"/>
  <anchor x="424" y="680" name="top"/>
  <outline>
    <contour>
      <point x="592" y="690" type="curve" smooth="yes"/>
      <point x="544" y="690"/>
      <point x="507" y="672"/>
      <point x="460" y="644" type="curve"/>
      <point x="462" y="643" type="line"/>
      <point x="507" y="671"/>
      <point x="545" y="688"/>
      <point x="592" y="688" type="curve" smooth="yes"/>
      <point x="648" y="688"/>
      <point x="668" y="641"/>
      <point x="659" y="575" type="curve" smooth="yes"/>
      <point x="552" y="-188" type="line"/>
      <point x="554" y="-188" type="line"/>
      <point x="661" y="575" type="line" smooth="yes"/>
      <point x="670" y="640"/>
      <point x="651" y="690"/>
    </contour>
    <contour>
      <point x="348" y="690" type="curve" smooth="yes"/>
      <point x="150" y="690"/>
      <point x="80" y="405"/>
      <point x="80" y="238" type="curve" smooth="yes"/>
      <point x="80" y="82"/>
      <point x="142" y="-9"/>
      <point x="251" y="-9" type="curve" smooth="yes"/>
      <point x="459" y="-9"/>
      <point x="521" y="276"/>
      <point x="521" y="442" type="curve" smooth="yes"/>
      <point x="521" y="600"/>
      <point x="458" y="690"/>
    </contour>
    <contour>
      <point x="348" y="688" type="curve" smooth="yes"/>
      <point x="457" y="688"/>
      <point x="519" y="599"/>
      <point x="519" y="442" type="curve" smooth="yes"/>
      <point x="519" y="277"/>
      <point x="458" y="-7"/>
      <point x="251" y="-7" type="curve" smooth="yes"/>
      <point x="143" y="-7"/>
      <point x="82" y="83"/>
      <point x="82" y="238" type="curve" smooth="yes"/>
      <point x="82" y="404"/>
      <point x="151" y="688"/>
    </contour>
  </outline>
</glyph>
<glyph name="oi" format="2">
  <advance width="592"/>
  <unicode hex="01A3"/>
  <anchor x="339" y="517" name="top"/>
  <outline>
    <contour>
      <point x="436" y="-191" type="line"/>
      <point x="438" y="-191" type="line"/>
      <point x="523" y="412" type="line" smooth="yes"/>
      <point x="533" y="485"/>
      <point x="511" y="527"/>
      <point x="449" y="527" type="curve" smooth="yes"/>
      <point x="417" y="527"/>
      <point x="386" y="517"/>
      <point x="353" y="498" type="curve"/>
      <point x="355" y="497" type="line"/>
      <point x="388" y="516"/>
      <point x="418" y="525"/>
      <point x="449" y="525" type="curve" smooth="yes"/>
      <point x="510" y="525"/>
      <point x="530" y="484"/>
      <point x="520" y="412" type="curve" smooth="yes"/>
    </contour>
    <contour>
      <point x="274" y="527" type="curve" smooth="yes"/>
      <point x="120" y="527"/>
      <point x="66" y="315"/>
      <point x="66" y="182" type="curve" smooth="yes"/>
      <point x="66" y="62"/>
      <point x="114" y="-9"/>
      <point x="198" y="-9" type="curve" smooth="yes"/>
      <point x="354" y="-9"/>
      <point x="405" y="209"/>
      <point x="405" y="338" type="curve" smooth="yes"/>
      <point x="405" y="458"/>
      <point x="357" y="527"/>
    </contour>
    <contour>
      <point x="274" y="525" type="curve" smooth="yes"/>
      <point x="356" y="525"/>
      <point x="403" y="457"/>
      <point x="403" y="338" type="curve" smooth="yes"/>
      <point x="403" y="210"/>
      <point x="353" y="-7"/>
      <point x="198" y="-7" type="curve" smooth="yes"/>
      <point x="115" y="-7"/>
      <point x="68" y="63"/>
      <point x="68" y="182" type="curve" smooth="yes"/>
      <point x="68" y="314"/>
      <point x="121" y="525"/>
    </contour>
  </outline>
</glyph>
<glyph name="phook" format="2">
  <advance width="567"/>
  <unicode hex="01A5"/>
  <anchor x="305" y="727" name="top"/>
  <outline>
    <contour>
      <point x="47" y="-189" type="line"/>
      <point x="49" y="-189" type="line"/>
      <point x="79" y="26" type="line"/>
      <point x="124" y="2"/>
      <point x="157" y="-9"/>
      <point x="206" y="-9" type="curve" smooth="yes"/>
      <point x="353" y="-9"/>
      <point x="410" y="217"/>
      <point x="410" y="349" type="curve" smooth="yes"/>
      <point x="410" y="463"/>
      <point x="371" y="527"/>
      <point x="295" y="527" type="curve" smooth="yes"/>
      <point x="227" y="527"/>
      <point x="177" y="483"/>
      <point x="134" y="420" type="curve"/>
      <point x="147" y="516" type="line"/>
      <point x="145" y="516" type="line"/>
    </contour>
    <contour>
      <point x="206" y="-7" type="curve" smooth="yes"/>
      <point x="157" y="-7"/>
      <point x="126" y="3"/>
      <point x="79" y="28" type="curve"/>
      <point x="134" y="418" type="line"/>
      <point x="181" y="484"/>
      <point x="228" y="525"/>
      <point x="295" y="525" type="curve" smooth="yes"/>
      <point x="370" y="525"/>
      <point x="408" y="462"/>
      <point x="408" y="349" type="curve" smooth="yes"/>
      <point x="408" y="218"/>
      <point x="352" y="-7"/>
    </contour>
    <component base="hookaboveHELPER" xOffset="67"/>
  </outline>
</glyph>
<glyph name="Yr" format="2">
  <advance width="461"/>
  <unicode hex="01A6"/>
  <anchor x="296" y="680" name="top"/>
  <outline>
    <contour>
      <point x="77" y="0" type="line"/>
      <point x="79" y="0" type="line"/>
      <point x="174" y="680" type="line"/>
      <point x="172" y="680" type="line"/>
    </contour>
    <contour>
      <point x="105" y="194" type="line"/>
      <point x="253" y="194" type="line"/>
      <point x="372" y="197"/>
      <point x="420" y="308"/>
      <point x="420" y="402" type="curve" smooth="yes"/>
      <point x="420" y="486"/>
      <point x="378" y="540"/>
      <point x="265" y="540" type="curve" smooth="yes"/>
      <point x="153" y="540" type="line"/>
      <point x="154" y="538" type="line"/>
      <point x="265" y="538" type="line" smooth="yes"/>
      <point x="377" y="538"/>
      <point x="418" y="485"/>
      <point x="418" y="402" type="curve" smooth="yes"/>
      <point x="418" y="304"/>
      <point x="367" y="196"/>
      <point x="248" y="196" type="curve" smooth="yes"/>
      <point x="105" y="196" type="line"/>
    </contour>
    <contour>
      <point x="363" y="-140" type="line"/>
      <point x="366" y="-140" type="line"/>
      <point x="255" y="195" type="line"/>
      <point x="253" y="195" type="line"/>
    </contour>
  </outline>
</glyph>
<glyph name="Tonetwo" format="2">
  <advance width="442"/>
  <unicode hex="01A7"/>
  <anchor x="191" y="0" name="bottom"/>
  <anchor x="287" y="680" name="top"/>
  <outline>
    <contour>
      <point x="298" y="690" type="curve" smooth="yes"/>
      <point x="232" y="690"/>
      <point x="186" y="663"/>
      <point x="142" y="626" type="curve"/>
      <point x="143" y="624" type="line"/>
      <point x="188" y="662"/>
      <point x="233" y="688"/>
      <point x="298" y="688" type="curve" smooth="yes"/>
      <point x="373" y="688"/>
      <point x="417" y="640"/>
      <point x="417" y="565" type="curve" smooth="yes"/>
      <point x="417" y="454"/>
      <point x="349" y="410"/>
      <point x="243" y="370" type="curve" smooth="yes"/>
      <point x="120" y="324"/>
      <point x="57" y="265"/>
      <point x="57" y="138" type="curve" smooth="yes"/>
      <point x="57" y="49"/>
      <point x="111" y="-9"/>
      <point x="194" y="-9" type="curve" smooth="yes"/>
      <point x="271" y="-9"/>
      <point x="322" y="22"/>
      <point x="369" y="69" type="curve"/>
      <point x="368" y="71" type="line"/>
      <point x="321" y="24"/>
      <point x="271" y="-7"/>
      <point x="194" y="-7" type="curve" smooth="yes"/>
      <point x="112" y="-7"/>
      <point x="59" y="50"/>
      <point x="59" y="138" type="curve" smooth="yes"/>
      <point x="59" y="264"/>
      <point x="121" y="323"/>
      <point x="244" y="368" type="curve" smooth="yes"/>
      <point x="352" y="408"/>
      <point x="419" y="453"/>
      <point x="419" y="565" type="curve" smooth="yes"/>
      <point x="419" y="641"/>
      <point x="375" y="690"/>
    </contour>
  </outline>
</glyph>
<glyph name="eshreversedloop" format="2">
  <advance width="254"/>
  <unicode hex="01AA"/>
  <anchor x="176" y="727" name="top"/>
  <outline>
    <contour>
      <point x="118" y="733" type="curve" smooth="yes"/>
      <point x="67" y="733"/>
      <point x="28" y="676"/>
      <point x="28" y="601" type="curve" smooth="yes"/>
      <point x="28" y="553"/>
      <point x="50" y="526"/>
      <point x="85" y="526" type="curve" smooth="yes"/>
      <point x="112" y="526"/>
      <point x="137" y="539"/>
      <point x="153" y="554" type="curve"/>
      <point x="153" y="556" type="line"/>
      <point x="136" y="540"/>
      <point x="112" y="528"/>
      <point x="85" y="528" type="curve" smooth="yes"/>
      <point x="51" y="528"/>
      <point x="30" y="554"/>
      <point x="30" y="601" type="curve" smooth="yes"/>
      <point x="30" y="675"/>
      <point x="68" y="731"/>
      <point x="118" y="731" type="curve" smooth="yes"/>
      <point x="158" y="731"/>
      <point x="172" y="693"/>
      <point x="165" y="644" type="curve" smooth="yes"/>
      <point x="75" y="0" type="line"/>
      <point x="77" y="0" type="line"/>
      <point x="167" y="644" type="line" smooth="yes"/>
      <point x="174" y="694"/>
      <point x="159" y="733"/>
    </contour>
    <component base="hookHELPERright" xOffset="69"/>
  </outline>
</glyph>
<glyph name="tpalatalhook" format="2">
  <advance width="264"/>
  <unicode hex="01AB"/>
  <anchor x="158" y="649" name="top"/>
  <outline>
    <contour>
      <point x="132" y="-192" type="curve" smooth="yes"/>
      <point x="173" y="-192"/>
      <point x="206" y="-160"/>
      <point x="215" y="-97" type="curve" smooth="yes"/>
      <point x="231" y="19" type="line"/>
      <point x="229" y="19" type="line"/>
      <point x="213" y="-97" type="line" smooth="yes"/>
      <point x="204" y="-159"/>
      <point x="172" y="-190"/>
      <point x="132" y="-190" type="curve" smooth="yes"/>
      <point x="102" y="-190"/>
      <point x="86" y="-178"/>
      <point x="72" y="-162" type="curve"/>
      <point x="71" y="-164" type="line"/>
      <point x="84" y="-179"/>
      <point x="101" y="-192"/>
    </contour>
    <contour>
      <point x="159" y="651" type="line"/>
      <point x="157" y="651" type="line"/>
      <point x="138" y="516" type="line"/>
      <point x="82" y="113" type="line" smooth="yes"/>
      <point x="71" y="35"/>
      <point x="97" y="-9"/>
      <point x="150" y="-9" type="curve" smooth="yes"/>
      <point x="183" y="-9"/>
      <point x="207" y="3"/>
      <point x="230" y="18" type="curve"/>
      <point x="231" y="19" type="line"/>
      <point x="230" y="20" type="line"/>
      <point x="207" y="5"/>
      <point x="183" y="-7"/>
      <point x="150" y="-7" type="curve" smooth="yes"/>
      <point x="98" y="-7"/>
      <point x="73" y="37"/>
      <point x="84" y="113" type="curve" smooth="yes"/>
    </contour>
    <contour>
      <point x="260" y="517" type="line"/>
      <point x="67" y="517" type="line"/>
      <point x="67" y="515" type="line"/>
      <point x="260" y="515" type="line"/>
    </contour>
  </outline>
</glyph>
<glyph name="Thook" format="2">
  <advance width="404"/>
  <unicode hex="01AC"/>
  <anchor x="172" y="0" name="bottom"/>
  <anchor x="268" y="680" name="top"/>
  <outline>
    <contour>
      <point x="180" y="0" type="line"/>
      <point x="182" y="0" type="line"/>
      <point x="277" y="678" type="line"/>
      <point x="453" y="678" type="line"/>
      <point x="453" y="680" type="line"/>
      <point x="205" y="680" type="line"/>
      <point x="205" y="678" type="line"/>
      <point x="275" y="678" type="line"/>
    </contour>
    <contour>
      <point x="90" y="517" type="curve"/>
      <point x="92" y="518" type="line"/>
      <point x="85" y="536"/>
      <point x="79" y="551"/>
      <point x="79" y="577" type="curve" smooth="yes"/>
      <point x="79" y="640"/>
      <point x="111" y="678"/>
      <point x="171" y="678" type="curve" smooth="yes"/>
      <point x="211" y="678" type="line"/>
      <point x="211" y="680" type="line"/>
      <point x="171" y="680" type="line" smooth="yes"/>
      <point x="110" y="680"/>
      <point x="77" y="641"/>
      <point x="77" y="577" type="curve" smooth="yes"/>
      <point x="77" y="550"/>
      <point x="84" y="534"/>
    </contour>
  </outline>
</glyph>
<glyph name="thook" format="2">
  <advance width="264"/>
  <unicode hex="01AD"/>
  <anchor x="102" y="0" name="bottom"/>
  <anchor x="204" y="727" name="top"/>
  <outline>
    <contour>
      <point x="140" y="524" type="line"/>
      <point x="141" y="524" type="line"/>
      <point x="153" y="610" type="line" smooth="yes"/>
      <point x="164" y="687"/>
      <point x="201" y="731"/>
      <point x="254" y="731" type="curve" smooth="yes"/>
      <point x="288" y="731"/>
      <point x="308" y="718"/>
      <point x="326" y="703" type="curve"/>
      <point x="327" y="705" type="line"/>
      <point x="308" y="720"/>
      <point x="288" y="733"/>
      <point x="254" y="733" type="curve" smooth="yes"/>
      <point x="201" y="733"/>
      <point x="163" y="689"/>
      <point x="152" y="611" type="curve" smooth="yes"/>
    </contour>
    <contour>
      <point x="141" y="524" type="line"/>
      <point x="139" y="524" type="line"/>
      <point x="138" y="516" type="line"/>
      <point x="82" y="113" type="line" smooth="yes"/>
      <point x="71" y="35"/>
      <point x="97" y="-9"/>
      <point x="150" y="-9" type="curve" smooth="yes"/>
      <point x="183" y="-9"/>
      <point x="208" y="4"/>
      <point x="231" y="19" type="curve"/>
      <point x="230" y="21" type="line"/>
      <point x="207" y="5"/>
      <point x="183" y="-7"/>
      <point x="150" y="-7" type="curve" smooth="yes"/>
      <point x="98" y="-7"/>
      <point x="73" y="37"/>
      <point x="84" y="113" type="curve" smooth="yes"/>
    </contour>
    <contour>
      <point x="260" y="517" type="line"/>
      <point x="67" y="517" type="line"/>
      <point x="67" y="515" type="line"/>
      <point x="260" y="515" type="line"/>
    </contour>
  </outline>
</glyph>
<glyph name="Upsilonafrican" format="2">
  <advance width="563"/>
  <unicode hex="01B1"/>
  <anchor x="252" y="0" name="bottom"/>
  <anchor x="348" y="680" name="top"/>
  <outline>
    <contour>
      <point x="253" y="-10" type="curve" smooth="yes"/>
      <point x="421" y="-10"/>
      <point x="518" y="194"/>
      <point x="518" y="422" type="curve" smooth="yes"/>
      <point x="518" y="562"/>
      <point x="473" y="640"/>
      <point x="427" y="678" type="curve"/>
      <point x="538" y="678" type="line"/>
      <point x="538" y="680" type="line"/>
      <point x="425" y="680" type="line"/>
      <point x="425" y="677" type="line"/>
      <point x="471" y="638"/>
      <point x="516" y="560"/>
      <point x="516" y="422" type="curve" smooth="yes"/>
      <point x="516" y="195"/>
      <point x="419" y="-8"/>
      <point x="253" y="-8" type="curve" smooth="yes"/>
      <point x="144" y="-8"/>
      <point x="82" y="87"/>
      <point x="82" y="238" type="curve" smooth="yes"/>
      <point x="82" y="418"/>
      <point x="147" y="594"/>
      <point x="274" y="677" type="curve"/>
      <point x="274" y="680" type="line"/>
      <point x="161" y="680" type="line"/>
      <point x="161" y="678" type="line"/>
      <point x="272" y="678" type="line"/>
      <point x="146" y="596"/>
      <point x="80" y="420"/>
      <point x="80" y="238" type="curve" smooth="yes"/>
      <point x="80" y="87"/>
      <point x="143" y="-10"/>
    </contour>
  </outline>
</glyph>
<glyph name="Vhook" format="2">
  <advance width="513"/>
  <unicode hex="01B2"/>
  <anchor x="211" y="0" name="bottom"/>
  <anchor x="306" y="680" name="top"/>
  <outline>
    <contour>
      <point x="436" y="690" type="curve" smooth="yes"/>
      <point x="419" y="690"/>
      <point x="407" y="686"/>
      <point x="394" y="679" type="curve"/>
      <point x="395" y="677" type="line"/>
      <point x="408" y="684"/>
      <point x="419" y="688"/>
      <point x="436" y="688" type="curve" smooth="yes"/>
      <point x="471" y="688"/>
      <point x="483" y="660"/>
      <point x="475" y="607" type="curve" smooth="yes"/>
      <point x="430" y="286" type="line" smooth="yes"/>
      <point x="401" y="79"/>
      <point x="319" y="-7"/>
      <point x="212" y="-7" type="curve" smooth="yes"/>
      <point x="119" y="-7"/>
      <point x="80" y="64"/>
      <point x="96" y="182" type="curve" smooth="yes"/>
      <point x="166" y="680" type="line"/>
      <point x="164" y="680" type="line"/>
      <point x="94" y="182" type="line" smooth="yes"/>
      <point x="77" y="63"/>
      <point x="118" y="-9"/>
      <point x="212" y="-9" type="curve" smooth="yes"/>
      <point x="320" y="-9"/>
      <point x="403" y="78"/>
      <point x="432" y="286" type="curve" smooth="yes"/>
      <point x="477" y="607" type="line" smooth="yes"/>
      <point x="485" y="660"/>
      <point x="473" y="690"/>
    </contour>
  </outline>
</glyph>
<glyph name="Yhook" format="2">
  <advance width="412"/>
  <unicode hex="01B3"/>
  <anchor x="176" y="0" name="bottom"/>
  <anchor x="272" y="680" name="top"/>
  <anchor x="77" y="680" name="topleft"/>
  <outline>
    <contour>
      <point x="392" y="623" type="curve" smooth="yes"/>
      <point x="205" y="273" type="line"/>
      <point x="88" y="680" type="line"/>
      <point x="86" y="680" type="line"/>
      <point x="204" y="271" type="line"/>
      <point x="166" y="0" type="line"/>
      <point x="168" y="0" type="line"/>
      <point x="206" y="271" type="line"/>
      <point x="394" y="622" type="line" smooth="yes"/>
      <point x="417" y="666"/>
      <point x="435" y="688"/>
      <point x="469" y="688" type="curve" smooth="yes"/>
      <point x="496" y="688"/>
      <point x="515" y="671"/>
      <point x="530" y="650" type="curve"/>
      <point x="531" y="652" type="line"/>
      <point x="517" y="672"/>
      <point x="497" y="690"/>
      <point x="469" y="690" type="curve" smooth="yes"/>
      <point x="434" y="690"/>
      <point x="416" y="668"/>
    </contour>
  </outline>
</glyph>
<glyph name="yhook" format="2">
  <advance width="357"/>
  <unicode hex="01B4"/>
  <anchor x="221" y="517" name="top"/>
  <outline>
    <contour>
      <point x="-6" y="-189" type="line"/>
      <point x="83" y="-159"/>
      <point x="109" y="-112"/>
      <point x="156" y="0" type="curve"/>
      <point x="350" y="492" type="line" smooth="yes"/>
      <point x="370" y="541"/>
      <point x="384" y="563"/>
      <point x="417" y="563" type="curve" smooth="yes"/>
      <point x="427" y="563"/>
      <point x="438" y="560"/>
      <point x="447" y="555" type="curve"/>
      <point x="447" y="557" type="line"/>
      <point x="438" y="562"/>
      <point x="427" y="565"/>
      <point x="417" y="565" type="curve" smooth="yes"/>
      <point x="383" y="565"/>
      <point x="368" y="542"/>
      <point x="348" y="493" type="curve" smooth="yes"/>
      <point x="154" y="0" type="line"/>
      <point x="70" y="517" type="line"/>
      <point x="68" y="517" type="line"/>
      <point x="153" y="0" type="line"/>
      <point x="155" y="0" type="line"/>
      <point x="107" y="-112"/>
      <point x="82" y="-157"/>
      <point x="-6" y="-187" type="curve"/>
    </contour>
  </outline>
</glyph>
<glyph name="Zstroke" format="2">
  <advance width="504"/>
  <unicode hex="01B5"/>
  <anchor x="177" y="0" name="bottom"/>
  <anchor x="272" y="680" name="top"/>
  <outline>
    <contour>
      <point x="7" y="0" type="line"/>
      <point x="329" y="0" type="line"/>
      <point x="329" y="2" type="line"/>
      <point x="10" y="2" type="line"/>
      <point x="438" y="678" type="line"/>
      <point x="438" y="680" type="line"/>
      <point x="132" y="680" type="line"/>
      <point x="132" y="678" type="line"/>
      <point x="435" y="678" type="line"/>
      <point x="7" y="2" type="line"/>
    </contour>
    <component base="hyphen" xScale="1.1" xOffset="27" yOffset="30"/>
  </outline>
</glyph>
<glyph name="zstroke" format="2">
  <advance width="336"/>
  <unicode hex="01B6"/>
  <anchor x="138" y="0" name="bottom"/>
  <anchor x="211" y="517" name="top"/>
  <outline>
    <contour>
      <point x="346" y="517" type="line"/>
      <point x="96" y="517" type="line"/>
      <point x="96" y="515" type="line"/>
      <point x="343" y="515" type="line"/>
      <point x="-1" y="2" type="line"/>
      <point x="-1" y="0" type="line"/>
      <point x="265" y="0" type="line"/>
      <point x="265" y="2" type="line"/>
      <point x="2" y="2" type="line"/>
      <point x="346" y="515" type="line"/>
    </contour>
    <component base="hyphen" xOffset="-1" yOffset="-45"/>
  </outline>
</glyph>
<glyph name="Ezh" format="2">
  <advance width="380"/>
  <unicode hex="01B7"/>
  <anchor x="160" y="0" name="bottom"/>
  <outline>
    <contour>
      <point x="147" y="-9" type="curve" smooth="yes"/>
      <point x="252" y="-9"/>
      <point x="320" y="68"/>
      <point x="335" y="179" type="curve" smooth="yes"/>
      <point x="351" y="299"/>
      <point x="301" y="363"/>
      <point x="187" y="363" type="curve"/>
      <point x="131" y="363" type="line"/>
      <point x="129" y="361" type="line"/>
      <point x="187" y="361" type="line" smooth="yes"/>
      <point x="299" y="361"/>
      <point x="349" y="298"/>
      <point x="333" y="179" type="curve" smooth="yes"/>
      <point x="318" y="70"/>
      <point x="251" y="-7"/>
      <point x="147" y="-7" type="curve" smooth="yes"/>
      <point x="75" y="-7"/>
      <point x="37" y="22"/>
      <point x="6" y="70" type="curve"/>
      <point x="4" y="69" type="line"/>
      <point x="35" y="21"/>
      <point x="74" y="-9"/>
    </contour>
    <contour>
      <point x="129" y="363" type="line"/>
      <point x="129" y="361" type="line"/>
      <point x="132" y="363" type="line"/>
      <point x="378" y="678" type="line"/>
      <point x="378" y="680" type="line"/>
      <point x="96" y="680" type="line"/>
      <point x="96" y="678" type="line"/>
      <point x="375" y="678" type="line"/>
    </contour>
  </outline>
</glyph>
<glyph name="Ezhreversed" format="2">
  <advance width="383"/>
  <unicode hex="01B8"/>
  <anchor x="161" y="0" name="bottom"/>
  <anchor x="257" y="680" name="top"/>
  <outline>
    <contour>
      <point x="167" y="-9" type="curve" smooth="yes"/>
      <point x="247" y="-9"/>
      <point x="294" y="21"/>
      <point x="337" y="69" type="curve"/>
      <point x="336" y="70" type="line"/>
      <point x="292" y="22"/>
      <point x="246" y="-7"/>
      <point x="167" y="-7" type="curve" smooth="yes"/>
      <point x="85" y="-7"/>
      <point x="37" y="55"/>
      <point x="37" y="146" type="curve" smooth="yes"/>
      <point x="37" y="278"/>
      <point x="117" y="361"/>
      <point x="237" y="361" type="curve" smooth="yes"/>
      <point x="296" y="361" type="line"/>
      <point x="294" y="363" type="line"/>
      <point x="237" y="363" type="line"/>
      <point x="117" y="363"/>
      <point x="35" y="280"/>
      <point x="35" y="146" type="curve" smooth="yes"/>
      <point x="35" y="54"/>
      <point x="84" y="-9"/>
    </contour>
    <contour>
      <point x="296" y="363" type="line"/>
      <point x="133" y="678" type="line"/>
      <point x="417" y="678" type="line"/>
      <point x="417" y="680" type="line"/>
      <point x="130" y="680" type="line"/>
      <point x="130" y="678" type="line"/>
      <point x="293" y="363" type="line"/>
      <point x="296" y="361" type="line"/>
    </contour>
  </outline>
</glyph>
<glyph name="ezhreversed" format="2">
  <advance width="360"/>
  <unicode hex="01B9"/>
  <anchor x="223" y="517" name="top"/>
  <outline>
    <contour>
      <point x="132" y="-192" type="curve" smooth="yes"/>
      <point x="200" y="-192"/>
      <point x="247" y="-162"/>
      <point x="290" y="-114" type="curve"/>
      <point x="288" y="-113" type="line"/>
      <point x="245" y="-161"/>
      <point x="199" y="-190"/>
      <point x="132" y="-190" type="curve" smooth="yes"/>
      <point x="49" y="-190"/>
      <point x="3" y="-126"/>
      <point x="3" y="-35" type="curve" smooth="yes"/>
      <point x="3" y="98"/>
      <point x="82" y="188"/>
      <point x="205" y="188" type="curve" smooth="yes"/>
      <point x="246" y="188" type="line"/>
      <point x="244" y="190" type="line"/>
      <point x="205" y="190" type="line"/>
      <point x="80" y="190"/>
      <point x="1" y="99"/>
      <point x="1" y="-35" type="curve" smooth="yes"/>
      <point x="1" y="-127"/>
      <point x="48" y="-192"/>
    </contour>
    <contour>
      <point x="246" y="190" type="line"/>
      <point x="103" y="515" type="line"/>
      <point x="365" y="515" type="line"/>
      <point x="365" y="517" type="line"/>
      <point x="100" y="517" type="line"/>
      <point x="100" y="515" type="line"/>
      <point x="243" y="190" type="line"/>
      <point x="246" y="188" type="line"/>
    </contour>
  </outline>
</glyph>
<glyph name="ezhtail" format="2">
  <advance width="363"/>
  <unicode hex="01BA"/>
  <outline>
    <contour>
      <point x="70" y="-190" type="curve"/>
      <point x="71" y="-188" type="line"/>
      <point x="25" y="-171"/>
      <point x="0" y="-144"/>
      <point x="0" y="-105" type="curve" smooth="yes"/>
      <point x="0" y="-55"/>
      <point x="34" y="-21"/>
      <point x="139" y="-7" type="curve" smooth="yes"/>
      <point x="252" y="8"/>
      <point x="313" y="52"/>
      <point x="313" y="160" type="curve" smooth="yes"/>
      <point x="313" y="234"/>
      <point x="275" y="263"/>
      <point x="205" y="263" type="curve" smooth="yes"/>
      <point x="106" y="263" type="line"/>
      <point x="340" y="515" type="line"/>
      <point x="340" y="517" type="line"/>
      <point x="83" y="517" type="line"/>
      <point x="83" y="515" type="line"/>
      <point x="337" y="515" type="line"/>
      <point x="103" y="263" type="line"/>
      <point x="103" y="261" type="line"/>
      <point x="205" y="261" type="line" smooth="yes"/>
      <point x="274" y="261"/>
      <point x="311" y="233"/>
      <point x="311" y="160" type="curve" smooth="yes"/>
      <point x="311" y="53"/>
      <point x="250" y="10"/>
      <point x="139" y="-5" type="curve" smooth="yes"/>
      <point x="33" y="-19"/>
      <point x="-2" y="-53"/>
      <point x="-2" y="-105" type="curve" smooth="yes"/>
      <point x="-2" y="-145"/>
      <point x="23" y="-172"/>
    </contour>
  </outline>
</glyph>
<glyph name="tonefive" format="2">
  <advance width="346"/>
  <unicode hex="01BD"/>
  <anchor x="143" y="0" name="bottom"/>
  <anchor x="216" y="517" name="top"/>
  <outline>
    <contour>
      <point x="317" y="517" type="line"/>
      <point x="120" y="517" type="line"/>
      <point x="87" y="281" type="line"/>
      <point x="89" y="281" type="line"/>
      <point x="120" y="304"/>
      <point x="148" y="318"/>
      <point x="187" y="318" type="curve" smooth="yes"/>
      <point x="249" y="318"/>
      <point x="281" y="272"/>
      <point x="281" y="197" type="curve" smooth="yes"/>
      <point x="281" y="86"/>
      <point x="225" y="-7"/>
      <point x="128" y="-7" type="curve" smooth="yes"/>
      <point x="84" y="-7"/>
      <point x="48" y="15"/>
      <point x="28" y="49" type="curve"/>
      <point x="26" y="48" type="line"/>
      <point x="47" y="13"/>
      <point x="83" y="-9"/>
      <point x="128" y="-9" type="curve" smooth="yes"/>
      <point x="226" y="-9"/>
      <point x="283" y="85"/>
      <point x="283" y="197" type="curve" smooth="yes"/>
      <point x="283" y="273"/>
      <point x="250" y="320"/>
      <point x="187" y="320" type="curve" smooth="yes"/>
      <point x="147" y="320"/>
      <point x="118" y="305"/>
      <point x="89" y="283" type="curve"/>
      <point x="122" y="515" type="line"/>
      <point x="317" y="515" type="line"/>
    </contour>
  </outline>
</glyph>
<glyph name="glottalinvertedstroke" format="2">
  <advance width="489"/>
  <unicode hex="01BE"/>
  <anchor x="154" y="0" name="bottom"/>
  <anchor x="219" y="727" name="top"/>
  <outline>
    <contour>
      <point x="138" y="585" type="line"/>
      <point x="138" y="583" type="line"/>
      <point x="198" y="583" type="line"/>
      <point x="298" y="583" type="line"/>
      <point x="298" y="585" type="line"/>
    </contour>
    <component base="glottalstopinverted"/>
  </outline>
</glyph>
<glyph name="wynn" format="2">
  <advance width="461"/>
  <unicode hex="01BF"/>
  <anchor x="273" y="517" name="top"/>
  <outline>
    <contour>
      <point x="147" y="517" type="line"/>
      <point x="145" y="517" type="line"/>
      <point x="46" y="-190" type="line"/>
      <point x="48" y="-190" type="line"/>
      <point x="134" y="419" type="line"/>
      <point x="134" y="421" type="line"/>
    </contour>
    <contour>
      <point x="133" y="421" type="curve"/>
      <point x="133" y="418" type="line"/>
      <point x="181" y="482"/>
      <point x="235" y="525"/>
      <point x="304" y="525" type="curve" smooth="yes"/>
      <point x="373" y="525"/>
      <point x="416" y="474"/>
      <point x="416" y="388" type="curve" smooth="yes"/>
      <point x="416" y="217"/>
      <point x="292" y="116"/>
      <point x="134" y="24" type="curve" smooth="yes"/>
      <point x="72" y="-12" type="line"/>
      <point x="72" y="-14" type="line"/>
      <point x="134" y="22" type="line" smooth="yes"/>
      <point x="294" y="115"/>
      <point x="418" y="216"/>
      <point x="418" y="388" type="curve" smooth="yes"/>
      <point x="418" y="475"/>
      <point x="374" y="527"/>
      <point x="304" y="527" type="curve" smooth="yes"/>
      <point x="234" y="527"/>
      <point x="181" y="483"/>
    </contour>
  </outline>
</glyph>
<glyph name="clickdental" format="2">
  <advance width="215"/>
  <unicode hex="01C0"/>
  <outline>
    <contour>
      <point x="181" y="730" type="line"/>
      <point x="179" y="730" type="line"/>
      <point x="77" y="0" type="line"/>
      <point x="79" y="0" type="line"/>
    </contour>
  </outline>
</glyph>
<glyph name="clickalveolar" format="2">
  <advance width="278"/>
  <unicode hex="01C2"/>
  <outline>
    <contour>
      <point x="76" y="435" type="line"/>
      <point x="167" y="435" type="line"/>
      <point x="265" y="435" type="line"/>
      <point x="265" y="437" type="line"/>
      <point x="76" y="437" type="line"/>
    </contour>
    <contour>
      <point x="55" y="286" type="line"/>
      <point x="146" y="286" type="line"/>
      <point x="244" y="286" type="line"/>
      <point x="244" y="288" type="line"/>
      <point x="55" y="288" type="line"/>
    </contour>
    <component base="clickdental" xOffset="29"/>
  </outline>
</glyph>
<glyph name="clickretroflex" format="2">
  <advance width="274"/>
  <unicode hex="01C3"/>
  <outline>
    <contour>
      <point x="185" y="730" type="line"/>
      <point x="183" y="730" type="line"/>
      <point x="107" y="188" type="line"/>
      <point x="109" y="188" type="line"/>
    </contour>
    <component base="period" xOffset="63"/>
  </outline>
</glyph>
<glyph name="Gstroke" format="2">
  <advance width="502"/>
  <unicode hex="01E4"/>
  <anchor x="221" y="0" name="bottom"/>
  <anchor x="317" y="680" name="top"/>
  <outline>
    <contour>
      <point x="349" y="690" type="curve" smooth="yes"/>
      <point x="167" y="690"/>
      <point x="81" y="439"/>
      <point x="81" y="243" type="curve" smooth="yes"/>
      <point x="81" y="79"/>
      <point x="148" y="-9"/>
      <point x="260" y="-9" type="curve" smooth="yes"/>
      <point x="317" y="-9"/>
      <point x="366" y="15"/>
      <point x="402" y="39" type="curve"/>
      <point x="445" y="342" type="line"/>
      <point x="320" y="342" type="line"/>
      <point x="320" y="340" type="line"/>
      <point x="443" y="340" type="line"/>
      <point x="400" y="40" type="line"/>
      <point x="365" y="17"/>
      <point x="318" y="-7"/>
      <point x="260" y="-7" type="curve" smooth="yes"/>
      <point x="149" y="-7"/>
      <point x="83" y="80"/>
      <point x="83" y="243" type="curve" smooth="yes"/>
      <point x="83" y="433"/>
      <point x="167" y="688"/>
      <point x="349" y="688" type="curve" smooth="yes"/>
      <point x="399" y="688"/>
      <point x="435" y="669"/>
      <point x="470" y="633" type="curve"/>
      <point x="471" y="635" type="line"/>
      <point x="436" y="671"/>
      <point x="400" y="690"/>
    </contour>
    <component base="hyphen" xOffset="220" yOffset="-90"/>
  </outline>
</glyph>
<glyph name="gstroke" format="2">
  <advance width="399"/>
  <unicode hex="01E5"/>
  <anchor x="243" y="517" name="top"/>
  <outline>
    <contour>
      <point x="290" y="527" type="curve" smooth="yes"/>
      <point x="122" y="527"/>
      <point x="67" y="328"/>
      <point x="67" y="187" type="curve" smooth="yes"/>
      <point x="67" y="80"/>
      <point x="109" y="0"/>
      <point x="187" y="0" type="curve" smooth="yes"/>
      <point x="240" y="0"/>
      <point x="296" y="42"/>
      <point x="337" y="132" type="curve"/>
      <point x="316" y="-11" type="line" smooth="yes"/>
      <point x="296" y="-151"/>
      <point x="238" y="-189"/>
      <point x="168" y="-189" type="curve" smooth="yes"/>
      <point x="111" y="-189"/>
      <point x="66" y="-165"/>
      <point x="40" y="-143" type="curve"/>
      <point x="39" y="-145" type="line"/>
      <point x="65" y="-167"/>
      <point x="111" y="-191"/>
      <point x="168" y="-191" type="curve" smooth="yes"/>
      <point x="239" y="-191"/>
      <point x="297" y="-152"/>
      <point x="318" y="-11" type="curve" smooth="yes"/>
      <point x="391" y="487" type="line"/>
      <point x="364" y="511"/>
      <point x="331" y="527"/>
    </contour>
    <contour>
      <point x="290" y="525" type="curve" smooth="yes"/>
      <point x="330" y="525"/>
      <point x="362" y="510"/>
      <point x="389" y="486" type="curve"/>
      <point x="338" y="138" type="line"/>
      <point x="298" y="49"/>
      <point x="244" y="2"/>
      <point x="187" y="2" type="curve" smooth="yes"/>
      <point x="110" y="2"/>
      <point x="69" y="81"/>
      <point x="69" y="187" type="curve" smooth="yes"/>
      <point x="69" y="327"/>
      <point x="123" y="525"/>
    </contour>
    <contour>
      <point x="189" y="-76" type="line"/>
      <point x="378" y="-76" type="line"/>
      <point x="378" y="-74" type="line"/>
      <point x="189" y="-74" type="line"/>
    </contour>
  </outline>
</glyph>
<glyph name="Hwair" format="2">
  <advance width="784"/>
  <unicode hex="01F6"/>
  <anchor x="362" y="0" name="bottom"/>
  <anchor x="457" y="680" name="top"/>
  <outline>
    <contour>
      <point x="722" y="517" type="curve"/>
      <point x="720" y="517" type="line"/>
      <point x="720" y="503"/>
      <point x="721" y="480"/>
      <point x="721" y="463" type="curve" smooth="yes"/>
      <point x="721" y="272"/>
      <point x="689" y="-7"/>
      <point x="518" y="-7" type="curve" smooth="yes"/>
      <point x="429" y="-7"/>
      <point x="410" y="76"/>
      <point x="421" y="154" type="curve" smooth="yes"/>
      <point x="495" y="680" type="line"/>
      <point x="494" y="680" type="line"/>
      <point x="450" y="367" type="line"/>
      <point x="130" y="367" type="line"/>
      <point x="174" y="680" type="line"/>
      <point x="172" y="680" type="line"/>
      <point x="77" y="0" type="line"/>
      <point x="79" y="0" type="line"/>
      <point x="130" y="365" type="line"/>
      <point x="450" y="365" type="line"/>
      <point x="420" y="154" type="line" smooth="yes"/>
      <point x="410" y="82"/>
      <point x="423" y="-9"/>
      <point x="518" y="-9" type="curve" smooth="yes"/>
      <point x="689" y="-9"/>
      <point x="723" y="264"/>
      <point x="723" y="463" type="curve" smooth="yes"/>
      <point x="723" y="480"/>
      <point x="722" y="503"/>
    </contour>
  </outline>
</glyph>
<glyph name="Wynn" format="2">
  <advance width="453"/>
  <unicode hex="01F7"/>
  <anchor x="197" y="0" name="bottom"/>
  <anchor x="292" y="680" name="top"/>
  <outline>
    <contour>
      <point x="162" y="600" type="curve"/>
      <point x="162" y="597" type="line"/>
      <point x="203" y="645"/>
      <point x="255" y="688"/>
      <point x="327" y="688" type="curve" smooth="yes"/>
      <point x="398" y="688"/>
      <point x="443" y="636"/>
      <point x="443" y="548" type="curve" smooth="yes"/>
      <point x="443" y="394"/>
      <point x="344" y="323"/>
      <point x="214" y="273" type="curve" smooth="yes"/>
      <point x="110" y="233" type="line"/>
      <point x="110" y="231" type="line"/>
      <point x="214" y="271" type="line" smooth="yes"/>
      <point x="344" y="321"/>
      <point x="445" y="393"/>
      <point x="445" y="548" type="curve" smooth="yes"/>
      <point x="445" y="637"/>
      <point x="399" y="690"/>
      <point x="327" y="690" type="curve" smooth="yes"/>
      <point x="254" y="690"/>
      <point x="203" y="646"/>
    </contour>
    <contour>
      <point x="174" y="680" type="line"/>
      <point x="172" y="680" type="line"/>
      <point x="77" y="0" type="line"/>
      <point x="79" y="0" type="line"/>
    </contour>
  </outline>
</glyph>
<glyph name="Yogh" format="2">
  <advance width="398"/>
  <unicode hex="021C"/>
  <anchor x="265" y="680" name="top"/>
  <outline>
    <contour>
      <point x="255" y="690" type="curve"/>
      <point x="189" y="690"/>
      <point x="140" y="660"/>
      <point x="89" y="605" type="curve"/>
      <point x="90" y="603" type="line"/>
      <point x="141" y="658"/>
      <point x="190" y="688"/>
      <point x="255" y="688" type="curve"/>
      <point x="331" y="688"/>
      <point x="370" y="631"/>
      <point x="370" y="553" type="curve" smooth="yes"/>
      <point x="370" y="442"/>
      <point x="301" y="363"/>
      <point x="203" y="363" type="curve" smooth="yes"/>
      <point x="159" y="363" type="line"/>
      <point x="159" y="361" type="line"/>
      <point x="206" y="361" type="line" smooth="yes"/>
      <point x="290" y="361"/>
      <point x="343" y="319"/>
      <point x="343" y="230" type="curve" smooth="yes"/>
      <point x="343" y="61"/>
      <point x="195" y="-22"/>
      <point x="17" y="-77" type="curve"/>
      <point x="16" y="-79" type="line"/>
      <point x="196" y="-24"/>
      <point x="345" y="59"/>
      <point x="345" y="230" type="curve" smooth="yes"/>
      <point x="345" y="320"/>
      <point x="292" y="359"/>
      <point x="219" y="362" type="curve"/>
      <point x="304" y="369"/>
      <point x="372" y="441"/>
      <point x="372" y="553" type="curve" smooth="yes"/>
      <point x="372" y="632"/>
      <point x="332" y="690"/>
    </contour>
  </outline>
</glyph>
